<svg width="509" height="504" viewBox="0 0 509 504" fill="none" xmlns="http://www.w3.org/2000/svg">
<path d="M408.12 235.95C433.107 257.226 449.464 285.729 452.378 318.77C453.819 341.119 449.804 361.856 440.706 382.262C440.385 382.99 440.063 383.718 439.732 384.467C438.95 386.236 438.164 388.003 437.378 389.77C438.181 390.562 438.984 391.354 439.812 392.17C447.402 399.659 454.979 407.162 462.544 414.677C466.432 418.54 470.326 422.398 474.23 426.245C478.001 429.962 481.761 433.691 485.512 437.43C486.941 438.849 488.374 440.264 489.812 441.675C508.342 459.87 508.342 459.87 508.628 472.958C508.518 481.28 505.445 488.641 499.589 494.587C492.296 501.33 485.256 503.728 475.378 503.77C462.222 502.963 452.98 491.805 444.28 483.001C443.154 481.871 442.027 480.743 440.9 479.615C438.558 477.268 436.222 474.917 433.889 472.562C430.896 469.541 427.895 466.529 424.891 463.52C422.573 461.199 420.258 458.874 417.945 456.549C416.838 455.436 415.731 454.324 414.623 453.213C413.084 451.667 411.549 450.118 410.014 448.568C408.704 447.247 408.704 447.247 407.367 445.9C404.293 442.608 404.018 440.265 404.108 435.747C404.378 433.77 404.378 433.77 405.878 431.27C408.704 429.575 410.958 429.016 414.263 429.205C421.767 431.211 428.52 440.818 433.775 446.153C435.299 447.699 436.827 449.241 438.356 450.782C442.697 455.156 447.033 459.535 451.36 463.923C454.021 466.622 456.689 469.314 459.362 472C460.374 473.02 461.383 474.043 462.39 475.068C463.794 476.499 465.208 477.92 466.623 479.34C467.423 480.149 468.222 480.958 469.046 481.792C472.627 484.83 475.19 485.813 479.878 485.645C483.765 484.673 485.599 483.629 488.378 480.77C490.155 477.781 490.378 475.947 490.378 472.458C487.634 462.34 477.782 454.915 470.542 447.739C469.295 446.495 468.048 445.251 466.801 444.007C463.541 440.754 460.274 437.507 457.006 434.261C453.664 430.94 450.328 427.613 446.991 424.286C440.459 417.775 433.921 411.27 427.378 404.77C426.262 405.718 425.148 406.668 424.034 407.618C423.413 408.146 422.793 408.675 422.153 409.22C419.275 411.733 416.569 414.419 414.042 417.286C395.22 437.731 364.694 447.438 337.707 448.695C317.421 449.284 297.398 445.192 279.378 435.77C278.001 435.095 278.001 435.095 276.597 434.407C268.801 430.431 262.152 425.25 255.378 419.77C254.322 418.931 254.322 418.931 253.245 418.075C230.805 399.66 217.935 370.245 214.576 341.937C211.784 311.447 219.781 279.664 239.378 255.77C242.289 252.347 245.295 249.039 248.378 245.77C248.99 245.093 249.603 244.417 250.233 243.719C290.301 201.089 363.729 199.566 408.12 235.95ZM286.378 238.77C285.32 239.305 284.261 239.84 283.171 240.391C260.544 252.757 243.338 274.343 235.709 298.924C227.591 327.495 230.887 355.519 245.37 381.508C260.382 405.895 283.511 422.595 311.301 429.314C338.448 435.28 365.909 429.762 389.276 414.872C412.782 398.945 427.845 376.383 434.058 348.747C439.045 321.621 432.891 293.538 417.378 270.77C400.762 248.103 377.06 233.355 349.522 228.24C327.337 224.927 306.187 228.755 286.378 238.77Z" fill="#FF5100"/>
<path d="M320.561 9.00779C328.122 16.3412 332.123 26.3527 332.69 36.7695C332.519 47.0609 328.723 56.5786 321.378 63.7695C312.609 71.3152 303.864 74.3944 292.327 74.0547C284.097 73.2589 277.362 70.0377 270.378 65.7695C259.201 73.4185 248.087 81.1537 236.999 88.9316C234.303 90.8222 231.604 92.7103 228.905 94.5976C228.011 95.2231 227.116 95.8485 226.195 96.4929C224.493 97.6834 222.79 98.8736 221.088 100.064C216.499 103.274 211.929 106.507 207.378 109.77C207.532 110.367 207.685 110.965 207.844 111.581C210.637 122.707 209.789 132.964 204.022 143.168C198.343 151.116 190.2 157.949 180.378 159.77C167.869 160.62 157.825 159.927 147.94 151.395C144.513 148.098 141.712 144.908 139.378 140.77C131.921 141.435 124.77 142.867 117.468 144.492C116.259 144.757 115.051 145.022 113.807 145.295C109.975 146.136 106.145 146.984 102.315 147.832C99.7066 148.407 97.0978 148.98 94.489 149.553C88.1175 150.953 81.7471 152.359 75.3777 153.77C75.1887 154.579 74.9996 155.389 74.8049 156.223C74.4194 157.828 74.4194 157.828 74.0261 159.465C73.7752 160.522 73.5243 161.579 73.2658 162.668C70.3194 172.956 64.008 180.166 54.8777 185.473C45.8552 190.153 36.5007 190.933 26.6745 188.527C17.5668 185.522 8.90784 179.33 4.37766 170.77C-0.769901 157.943 -1.0349 147.57 4.37766 134.77C9.34591 126.059 17.2328 119.771 26.8152 116.832C37.8385 114.355 48.125 115.376 57.9245 121.312C62.9683 125.011 67.2005 129.35 70.3777 134.77C70.3777 135.43 70.3777 136.09 70.3777 136.77C71.6958 136.428 71.6958 136.428 73.0405 136.079C84.3314 133.2 95.6857 130.662 107.073 128.195C110.231 127.511 113.387 126.82 116.544 126.129C118.557 125.691 120.571 125.254 122.585 124.816C123.525 124.61 124.466 124.404 125.435 124.192C126.304 124.004 127.173 123.817 128.068 123.624C128.831 123.458 129.593 123.293 130.378 123.122C132.378 122.77 132.378 122.77 135.378 122.77C135.38 122.187 135.383 121.604 135.385 121.004C135.879 110.533 140.475 101.55 148.159 94.457C157.969 86.9958 168.397 85.6137 180.378 86.7695C186.613 88.3223 191.859 91.5854 197.378 94.7695C197.839 94.4333 198.301 94.0971 198.776 93.7507C207.575 87.348 216.408 81.0102 225.394 74.8725C236.86 67.0351 248.183 58.99 259.378 50.7695C259.213 49.6764 259.048 48.5833 258.878 47.457C257.464 35.4303 258.227 23.9857 265.565 13.832C279.759 -2.6974 303.661 -4.54615 320.561 9.00779ZM282.307 21.5742C277.598 26.7954 274.772 31.2445 275.007 38.5195C275.894 43.8987 278.205 48.9185 282.385 52.4804C287.829 55.9555 292.85 57.587 299.378 56.7695C305.59 54.8419 309.797 51.1224 313.378 45.7695C315.898 40.7283 315.662 36.1413 314.378 30.7695C312.346 25.4967 309.009 21.9482 304.378 18.7695C296.619 15.9604 288.768 15.9422 282.307 21.5742ZM155.94 111.77C152.463 116.62 151.975 120.829 152.378 126.77C154.475 133.062 157.572 137.766 163.003 141.645C169.153 143.695 175.637 143.865 181.69 141.332C186.977 138.242 190.32 133.275 192.073 127.465C193.17 120.717 191.183 115.712 187.69 110.02C183.217 105.668 178.645 103.549 172.378 103.27C165.155 103.624 160.401 106.09 155.94 111.77ZM20.5691 141.992C17.1798 147.048 17.0774 151.509 17.8425 157.375C19.2146 163.514 23.4398 167.214 28.3777 170.77C33.6512 173.406 38.7456 173.028 44.3777 171.77C50.0374 168.886 53.913 164.699 56.7527 159.02C57.8902 153.105 57.4335 147.842 54.6902 142.457C49.7826 136.754 45.2347 133.149 37.5652 132.395C30.2472 132.629 24.9602 136.333 20.5691 141.992Z" fill="#FF5100"/>
<path d="M115.358 216.532C116.688 216.519 116.688 216.519 118.045 216.507C119.924 216.493 121.803 216.483 123.682 216.475C126.537 216.458 129.391 216.414 132.247 216.369C134.075 216.359 135.904 216.351 137.733 216.344C139.002 216.318 139.002 216.318 140.297 216.291C146.721 216.314 152.044 217.766 156.906 222.147C161.819 227.612 162.627 233.128 162.632 240.26C162.635 240.993 162.638 241.727 162.641 242.482C162.649 244.928 162.643 247.373 162.636 249.819C162.639 251.577 162.643 253.335 162.647 255.093C162.656 259.859 162.653 264.625 162.646 269.392C162.641 274.38 162.646 279.368 162.649 284.357C162.653 292.731 162.648 301.105 162.638 309.48C162.627 319.165 162.631 328.85 162.642 338.535C162.651 346.85 162.652 355.165 162.647 363.481C162.644 368.447 162.644 373.414 162.65 378.38C162.656 383.047 162.652 387.714 162.64 392.381C162.638 394.095 162.638 395.809 162.643 397.524C162.648 399.86 162.642 402.197 162.632 404.534C162.631 405.842 162.63 407.151 162.629 408.499C162.391 411.589 162.136 413.26 160.378 415.77C156.949 418.056 155.646 418.035 151.609 418.076C150.424 418.092 149.239 418.108 148.018 418.125C146.096 418.133 146.096 418.133 144.135 418.141C142.82 418.15 141.504 418.159 140.149 418.168C137.363 418.185 134.577 418.192 131.791 418.195C128.228 418.201 124.665 418.238 121.102 418.284C117.696 418.321 114.291 418.322 110.885 418.328C108.97 418.358 108.97 418.358 107.015 418.388C105.824 418.382 104.633 418.375 103.405 418.369C102.36 418.374 101.314 418.379 100.236 418.385C96.2628 417.53 94.912 415.913 92.3776 412.77C91.8855 410.071 91.7031 408.003 91.7494 405.313C91.7423 404.571 91.7352 403.829 91.7279 403.065C91.7103 400.584 91.7284 398.104 91.7465 395.622C91.7413 393.841 91.734 392.06 91.7248 390.28C91.7062 385.445 91.7192 380.61 91.7389 375.775C91.7552 370.713 91.7464 365.65 91.7413 360.588C91.7368 352.083 91.7527 343.578 91.7806 335.073C91.8127 325.249 91.8127 315.425 91.7954 305.601C91.7795 296.144 91.7863 286.688 91.8034 277.231C91.8102 273.21 91.8092 269.189 91.8018 265.169C91.7941 260.428 91.8063 255.688 91.8337 250.948C91.8405 249.212 91.8407 247.475 91.8334 245.739C91.7662 227.441 91.7662 227.441 98.194 220.93C98.7702 220.568 99.3464 220.206 99.9401 219.832C100.808 219.262 100.808 219.262 101.694 218.68C106.083 216.307 110.511 216.573 115.358 216.532ZM109.378 234.77C109.281 236.909 109.256 239.051 109.257 241.192C109.256 242.21 109.256 242.21 109.255 243.249C109.253 245.54 109.259 247.831 109.264 250.122C109.264 251.757 109.264 253.393 109.264 255.028C109.263 259.483 109.269 263.937 109.276 268.391C109.282 273.041 109.283 277.691 109.284 282.341C109.287 291.152 109.296 299.964 109.306 308.775C109.317 318.804 109.322 328.833 109.327 338.862C109.338 359.498 109.356 380.134 109.378 400.77C121.258 400.77 133.138 400.77 145.378 400.77C145.4 379.143 145.419 357.517 145.429 335.891C145.435 325.85 145.442 315.809 145.453 305.768C145.463 297.02 145.469 288.272 145.472 279.523C145.473 274.888 145.476 270.253 145.483 265.618C145.49 261.261 145.492 256.903 145.491 252.546C145.491 250.942 145.493 249.337 145.497 247.733C145.502 245.553 145.501 243.373 145.498 241.192C145.499 239.969 145.5 238.746 145.501 237.485C145.687 234.855 145.687 234.855 144.378 233.77C141.868 233.669 139.387 233.63 136.878 233.637C136.127 233.636 135.376 233.635 134.602 233.634C133.012 233.633 131.421 233.635 129.831 233.639C127.388 233.645 124.945 233.64 122.503 233.633C120.961 233.634 119.419 233.635 117.878 233.637C117.142 233.635 116.407 233.633 115.649 233.631C112.225 233.339 112.225 233.339 109.378 234.77Z" fill="#FF5100"/>
<path d="M329.936 248.609C352.493 247.905 372.03 255.879 389.065 270.457C403.314 283.884 412.778 303.109 413.761 322.719C414.435 346.674 408.853 366.876 392.378 384.77C391.839 385.4 391.3 386.03 390.745 386.68C377.761 401.001 356.863 409.065 337.956 410.051C318.004 410.669 299.002 405.466 283.378 392.77C282.549 392.103 281.72 391.437 280.866 390.75C265.936 378.06 256.779 360.998 253.378 341.77C252.281 326.175 252.369 309.688 260.378 295.77C264.128 293.269 265.936 293.233 270.378 293.77C273.315 295.832 273.315 295.832 275.378 298.77C276.158 303.844 274.888 307.859 273.132 312.559C267.988 327.643 271.105 345.467 277.94 359.395C286.826 374.623 300.736 385.057 317.503 390.082C334.103 394.174 350.288 391.759 365.464 383.66C377.793 375.661 387.123 364.475 392.378 350.77C392.859 349.578 392.859 349.578 393.35 348.363C398.75 332.491 396.044 314.74 389.026 299.914C380.648 284.819 366.557 273.544 349.995 268.801C331.152 264.328 313.807 267.723 297.378 277.77C295.557 279.213 293.763 280.691 292.003 282.207C288.992 284.758 287.003 286.321 283.003 286.52C279.378 285.77 279.378 285.77 276.878 284.27C275.179 281.438 274.899 279.152 274.846 275.867C276.828 268.043 286.854 262.751 293.378 258.77C304.689 252.624 317.152 249.41 329.936 248.609Z" fill="#FF5100"/>
<path d="M23.3426 243.337C24.2941 243.332 25.2456 243.326 26.226 243.321C28.2322 243.314 30.2385 243.316 32.2447 243.324C35.3021 243.333 38.3576 243.304 41.4148 243.272C43.3699 243.271 45.325 243.271 47.2801 243.274C48.6413 243.257 48.6413 243.257 50.0301 243.24C55.9987 243.305 59.4754 244.319 64.3777 247.77C69.1738 252.826 70.6236 257.326 70.6519 264.222C70.6619 265.526 70.6718 266.83 70.6821 268.173C70.683 269.611 70.6837 271.049 70.6841 272.487C70.6918 274.007 70.7002 275.527 70.7094 277.046C70.7313 281.168 70.7401 285.29 70.7452 289.412C70.7488 291.987 70.7551 294.563 70.7622 297.138C70.7867 306.124 70.7997 315.11 70.8033 324.096C70.8069 332.472 70.8368 340.847 70.8787 349.223C70.9134 356.417 70.9288 363.61 70.9295 370.803C70.9303 375.099 70.9391 379.394 70.9675 383.689C70.9937 387.728 70.9959 391.766 70.9799 395.804C70.978 397.286 70.9848 398.767 71.0007 400.248C71.0211 402.272 71.0076 404.295 70.9925 406.318C70.9945 407.45 70.9965 408.582 70.9986 409.748C70.179 413.738 68.5008 415.243 65.3777 417.77C62.5255 418.399 62.5255 418.399 59.3658 418.401C58.1778 418.414 56.9899 418.427 55.7659 418.439C53.8548 418.42 53.8548 418.42 51.9051 418.399C50.5899 418.402 49.2747 418.404 47.9196 418.407C45.1413 418.409 42.3637 418.395 39.5855 418.367C36.0286 418.333 32.4732 418.339 28.9163 418.358C25.5166 418.371 22.1173 418.353 18.7176 418.337C17.4415 418.342 16.1654 418.347 14.8506 418.352C13.6658 418.336 12.481 418.32 11.2603 418.304C10.2184 418.298 9.17644 418.291 8.10294 418.285C4.69478 417.641 3.53182 416.429 1.37773 413.77C0.00647485 411.028 0.245468 408.84 0.237292 405.768C0.231582 404.488 0.225872 403.208 0.219989 401.89C0.218743 400.463 0.217618 399.036 0.216601 397.609C0.211974 396.113 0.20695 394.617 0.201556 393.121C0.188418 389.048 0.181983 384.976 0.177545 380.903C0.174615 378.358 0.170512 375.814 0.166041 373.269C0.152361 365.308 0.142697 357.346 0.138839 349.385C0.134361 340.195 0.11683 331.006 0.0878382 321.817C0.0662092 314.715 0.0561353 307.612 0.0547992 300.51C0.0537517 296.268 0.047856 292.026 0.0299788 287.784C0.0134778 283.791 0.0113524 279.798 0.0201178 275.805C0.0208872 274.342 0.0165585 272.879 0.00665958 271.416C-0.0562347 261.54 0.18013 254.174 7.37773 246.77C12.6727 243.372 17.2555 243.317 23.3426 243.337ZM17.3777 261.77C16.9295 264.291 16.9295 264.291 17.017 267.288C17.0128 268.46 17.0087 269.632 17.0045 270.84C17.0153 272.133 17.026 273.425 17.0372 274.757C17.038 276.127 17.0375 277.497 17.0358 278.866C17.035 282.591 17.0526 286.316 17.0736 290.041C17.0923 293.932 17.0941 297.822 17.0976 301.713C17.107 309.083 17.1316 316.453 17.1617 323.823C17.1952 332.212 17.2117 340.601 17.2268 348.99C17.2581 366.25 17.3132 383.51 17.3777 400.77C29.2577 400.77 41.1377 400.77 53.3777 400.77C53.3777 354.57 53.3777 308.37 53.3777 260.77C48.9848 258.574 43.0319 259.585 38.147 259.585C35.9522 259.583 33.758 259.565 31.5633 259.546C30.1694 259.543 28.7755 259.541 27.3816 259.54C25.4762 259.534 25.4762 259.534 23.5323 259.527C20.2173 259.524 20.2173 259.524 17.3777 261.77Z" fill="#FF5100"/>
<path d="M201.539 179.577C202.374 179.561 203.209 179.545 204.069 179.528C207.892 179.484 211.714 179.443 215.537 179.42C217.547 179.403 219.558 179.376 221.568 179.338C224.478 179.283 227.386 179.261 230.296 179.246C231.631 179.212 231.631 179.212 232.993 179.178C239.293 179.199 243.652 180.493 248.378 184.77C253.162 190.153 254.121 195.127 254.007 202.16C254.01 203.028 254.012 203.895 254.014 204.788C254.013 206.606 254 208.425 253.975 210.243C253.941 213.027 253.955 215.807 253.974 218.59C253.967 220.364 253.957 222.137 253.945 223.91C253.952 225.154 253.952 225.154 253.96 226.423C253.881 230.265 253.842 232.157 251.468 235.29C248.566 237.345 246.734 237.336 243.281 237.168C240.381 236.561 239.095 235.105 237.378 232.77C235.845 229.704 236.257 226.499 236.281 223.137C236.282 222.471 236.283 221.804 236.284 221.118C236.289 218.627 236.303 216.136 236.316 213.645C236.347 205.292 236.347 205.292 236.378 196.77C224.828 196.77 213.278 196.77 201.378 196.77C201.048 264.09 200.718 331.41 200.378 400.77C208.958 400.77 217.538 400.77 226.378 400.77C230.378 402.77 230.378 402.77 231.628 404.52C232.637 407.545 232.832 409.596 232.378 412.77C230.391 415.442 228.79 417.432 225.447 418.232C223.116 418.415 220.836 418.437 218.499 418.399C217.65 418.401 216.801 418.404 215.926 418.406C214.137 418.405 212.347 418.392 210.558 418.367C207.821 418.332 205.086 418.346 202.349 418.366C200.607 418.359 198.866 418.349 197.124 418.336C196.308 418.341 195.491 418.346 194.649 418.351C191.036 418.276 188.835 418.11 185.894 415.922C182.876 411.638 183.232 407.372 183.238 402.345C183.235 401.475 183.232 400.605 183.229 399.709C183.22 396.782 183.219 393.855 183.217 390.928C183.212 388.833 183.207 386.739 183.202 384.645C183.189 378.946 183.182 373.248 183.178 367.549C183.175 363.989 183.171 360.429 183.167 356.869C183.153 345.73 183.143 334.592 183.139 323.453C183.135 310.595 183.117 297.737 183.088 284.88C183.067 274.942 183.057 265.005 183.055 255.068C183.054 249.132 183.048 243.197 183.03 237.262C183.014 231.675 183.012 226.089 183.021 220.503C183.021 218.455 183.017 216.408 183.007 214.361C182.994 211.559 183 208.758 183.011 205.956C183.003 205.152 182.995 204.347 182.986 203.519C183.043 197.008 184.112 190.547 188.316 185.395C189.337 184.59 189.337 184.59 190.378 183.77C191.059 183.213 191.739 182.656 192.441 182.082C195.443 180.049 198.007 179.639 201.539 179.577Z" fill="#FF5100"/>
<path d="M292.646 106.593C293.504 106.58 294.362 106.567 295.246 106.554C296.171 106.547 297.096 106.539 298.049 106.532C299.483 106.519 299.483 106.519 300.946 106.507C302.97 106.493 304.994 106.483 307.018 106.475C310.102 106.457 313.185 106.414 316.268 106.369C318.237 106.359 320.206 106.351 322.174 106.344C323.55 106.318 323.55 106.318 324.953 106.291C330.964 106.311 334.437 107.3 339.377 110.77C341.12 112.586 341.12 112.586 342.252 114.332C342.836 115.201 342.836 115.201 343.432 116.086C345.622 119.987 345.521 123.439 345.554 127.824C345.561 128.538 345.568 129.252 345.574 129.988C345.594 132.35 345.606 134.712 345.616 137.075C345.62 137.882 345.624 138.689 345.628 139.521C345.649 143.793 345.663 148.066 345.673 152.338C345.684 156.749 345.718 161.159 345.758 165.569C345.784 168.963 345.792 172.357 345.796 175.751C345.801 177.377 345.812 179.003 345.831 180.628C345.855 182.905 345.854 185.18 345.847 187.457C345.853 188.751 345.859 190.046 345.865 191.379C345.292 195.362 344.259 197.004 341.377 199.77C337.883 200.706 335.531 201.144 332.065 200.02C330.377 198.77 330.377 198.77 328.377 195.77C328.099 192.714 328.099 192.714 328.059 188.912C328.049 188.219 328.039 187.526 328.028 186.812C327.997 184.523 327.98 182.235 327.963 179.946C327.945 178.358 327.925 176.771 327.905 175.183C327.853 171.006 327.814 166.828 327.777 162.651C327.737 158.388 327.685 154.125 327.635 149.862C327.538 141.498 327.454 133.134 327.377 124.77C324.415 123.289 321.738 123.64 318.436 123.637C317.753 123.636 317.07 123.635 316.367 123.634C314.923 123.633 313.48 123.635 312.037 123.639C309.82 123.645 307.604 123.64 305.387 123.633C303.987 123.634 302.586 123.635 301.186 123.637C299.265 123.639 299.265 123.639 297.305 123.64C294.487 123.435 294.487 123.435 293.377 124.77C293.274 127.268 293.234 129.74 293.236 132.24C293.232 133.022 293.229 133.804 293.225 134.61C293.218 136.314 293.212 138.019 293.209 139.724C293.202 142.422 293.186 145.12 293.167 147.818C293.115 155.492 293.067 163.166 293.052 170.841C293.041 175.53 293.012 180.219 292.97 184.908C292.958 186.695 292.953 188.483 292.955 190.271C292.957 192.775 292.935 195.278 292.908 197.783C292.914 198.52 292.921 199.258 292.928 200.018C292.84 204.859 291.857 207.395 288.377 210.77C286.159 211.434 286.159 211.434 283.877 211.395C283.125 211.408 282.372 211.421 281.596 211.434C278.222 210.424 277.253 208.715 275.377 205.77C274.99 202.892 274.829 200.4 274.86 197.526C274.853 196.71 274.846 195.893 274.839 195.051C274.821 192.357 274.833 189.663 274.846 186.969C274.844 185.09 274.84 183.21 274.835 181.331C274.829 177.392 274.837 173.454 274.856 169.516C274.879 164.482 274.866 159.449 274.842 154.416C274.827 150.534 274.832 146.652 274.842 142.77C274.845 140.915 274.842 139.06 274.832 137.205C274.822 134.603 274.838 132.003 274.86 129.401C274.852 128.643 274.844 127.885 274.835 127.104C274.931 121.027 276.612 115.694 280.86 111.202C284.666 107.902 287.69 106.658 292.646 106.593Z" fill="#FF5100"/>
</svg>
