<svg width="498" height="498" viewBox="0 0 498 498" fill="none" xmlns="http://www.w3.org/2000/svg">
<path d="M26.5011 24.2836C27.8588 24.2768 27.8588 24.2768 29.244 24.2699C32.2778 24.2572 35.3114 24.2589 38.3452 24.2605C40.5202 24.2545 42.6951 24.2477 44.87 24.2402C50.7792 24.2225 56.6882 24.2178 62.5974 24.2165C67.5303 24.2146 72.4632 24.2073 77.396 24.2002C89.0347 24.1839 100.673 24.179 112.312 24.1804C124.318 24.1816 136.323 24.1605 148.328 24.1289C158.636 24.1028 168.943 24.0921 179.251 24.0933C185.407 24.0939 191.563 24.0882 197.719 24.067C203.51 24.0476 209.3 24.0475 215.091 24.062C217.215 24.0641 219.338 24.0594 221.462 24.0473C224.365 24.0318 227.266 24.0412 230.169 24.0566C231.006 24.0463 231.843 24.036 232.706 24.0254C239.464 24.1045 244.66 26.0401 249.768 30.5159C250.307 31.1669 250.845 31.8178 251.401 32.4885C251.955 33.1369 252.509 33.7853 253.08 34.4534C256.504 39.4224 256.816 44.019 256.793 49.919C256.798 50.7589 256.802 51.5987 256.807 52.464C256.819 55.2767 256.818 58.0892 256.816 60.9019C256.822 62.9192 256.829 64.9365 256.837 66.9537C256.854 72.4332 256.859 77.9125 256.86 83.392C256.862 87.9669 256.869 92.5419 256.877 97.1169C256.893 107.912 256.898 118.707 256.896 129.501C256.895 140.634 256.916 151.767 256.948 162.9C256.974 172.46 256.985 182.021 256.983 191.581C256.983 197.29 256.989 202.999 257.01 208.708C257.029 214.078 257.029 219.448 257.015 224.819C257.013 226.788 257.017 228.757 257.029 230.725C257.045 233.418 257.036 236.109 257.02 238.802C257.03 239.577 257.041 240.352 257.051 241.15C256.969 247.701 254.889 252.854 250.561 257.793C249.91 258.332 249.259 258.871 248.588 259.426C247.94 259.98 247.291 260.535 246.623 261.106C241.382 264.717 236.709 264.841 230.55 264.818C229.192 264.825 229.192 264.825 227.807 264.832C224.773 264.845 221.74 264.843 218.706 264.842C216.531 264.848 214.356 264.854 212.181 264.862C206.272 264.88 200.363 264.884 194.454 264.886C189.521 264.887 184.588 264.895 179.655 264.902C168.017 264.918 156.378 264.923 144.739 264.922C132.734 264.92 120.728 264.942 108.723 264.973C98.4155 264.999 88.1079 265.01 77.8003 265.009C71.6442 265.008 65.4882 265.014 59.3322 265.035C53.5414 265.054 47.7509 265.055 41.9602 265.04C39.8366 265.038 37.7129 265.043 35.5893 265.055C32.6865 265.07 29.7848 265.061 26.882 265.046C26.0449 265.056 25.2079 265.066 24.3454 265.077C17.5875 264.998 12.391 263.062 7.28346 258.586C6.47522 257.61 6.47522 257.61 5.65065 256.614C5.09635 255.965 4.54206 255.317 3.97096 254.649C0.547231 249.68 0.234842 245.083 0.258224 239.183C0.253693 238.343 0.249162 237.503 0.244493 236.638C0.231839 233.825 0.233471 231.013 0.235123 228.2C0.229138 226.183 0.222333 224.166 0.214767 222.148C0.197093 216.669 0.192411 211.19 0.191135 205.71C0.189236 201.135 0.181878 196.56 0.174791 191.985C0.158504 181.19 0.153623 170.395 0.155045 159.601C0.156246 148.468 0.135145 137.335 0.103558 126.202C0.0773995 116.642 0.0666767 107.081 0.067955 97.5212C0.0684648 91.8122 0.0627727 86.1034 0.0415993 80.3944C0.022225 75.0239 0.0220871 69.6537 0.0366325 64.2831C0.0387227 62.3143 0.0340071 60.3455 0.0219116 58.3767C0.00644307 55.6841 0.0157777 52.9926 0.0311737 50.3C0.0208866 49.5252 0.0105989 48.7503 0 47.952C0.0824953 41.4007 2.16232 36.248 6.49049 31.3089C7.14147 30.77 7.79245 30.2312 8.46315 29.676C9.11155 29.1217 9.75995 28.5674 10.428 27.9964C15.6698 24.3847 20.3422 24.261 26.5011 24.2836ZM18.5257 43.551C16.0499 47.554 16.2412 51.8234 16.265 56.401C16.2611 57.1851 16.2573 57.9692 16.2534 58.777C16.2431 61.4009 16.247 64.0246 16.251 66.6485C16.2466 68.5311 16.2415 70.4137 16.2355 72.2963C16.2221 77.4078 16.2215 82.5193 16.2241 87.6308C16.2251 91.8978 16.2203 96.1648 16.2155 100.432C16.2044 110.498 16.2039 120.564 16.21 130.63C16.216 141.015 16.2037 151.401 16.1824 161.786C16.1648 170.703 16.1588 179.619 16.162 188.536C16.1639 193.861 16.1612 199.186 16.1473 204.512C16.1348 209.52 16.1367 214.527 16.1497 219.535C16.1521 221.372 16.1494 223.21 16.1411 225.047C16.1307 227.556 16.1387 230.065 16.1514 232.574C16.1441 233.3 16.1367 234.026 16.1291 234.775C16.1784 239.417 16.8994 242.696 19.5257 246.551C23.6607 249.153 28.2407 248.834 32.983 248.812C33.8324 248.816 34.6819 248.819 35.557 248.823C38.402 248.834 41.2468 248.83 44.0918 248.826C46.1321 248.83 48.1723 248.835 50.2125 248.841C55.7538 248.855 61.295 248.855 66.8363 248.853C71.4612 248.852 76.086 248.856 80.7109 248.861C91.6208 248.872 102.531 248.873 113.44 248.867C124.698 248.861 135.956 248.873 147.214 248.894C156.878 248.912 166.542 248.918 176.206 248.915C181.978 248.913 187.751 248.915 193.523 248.929C198.951 248.942 204.379 248.94 209.807 248.927C211.799 248.925 213.791 248.927 215.784 248.936C218.503 248.946 221.222 248.938 223.941 248.925C224.73 248.933 225.518 248.94 226.33 248.948C231.122 248.901 234.554 248.296 238.526 245.551C241.001 241.548 240.81 237.279 240.786 232.701C240.79 231.917 240.794 231.133 240.798 230.325C240.808 227.701 240.804 225.078 240.8 222.454C240.805 220.571 240.81 218.688 240.816 216.806C240.829 211.694 240.83 206.583 240.827 201.471C240.826 197.204 240.831 192.937 240.836 188.67C240.847 178.604 240.847 168.538 240.841 158.472C240.835 148.087 240.848 137.701 240.869 127.316C240.887 118.399 240.893 109.483 240.889 100.567C240.887 95.2411 240.89 89.9157 240.904 84.5902C240.917 79.5825 240.915 74.575 240.902 69.5673C240.899 67.7299 240.902 65.8925 240.91 64.0551C240.921 61.5458 240.913 59.0372 240.9 56.528C240.907 55.8018 240.915 55.0756 240.922 54.3275C240.873 49.6851 240.152 46.4065 237.526 42.551C233.391 39.9487 228.811 40.2677 224.068 40.2903C222.794 40.2846 222.794 40.2846 221.494 40.2788C218.649 40.2684 215.804 40.2724 212.959 40.2764C210.919 40.272 208.879 40.2669 206.839 40.2609C201.298 40.2475 195.756 40.2469 190.215 40.2495C185.59 40.2505 180.965 40.2456 176.34 40.2409C165.431 40.2298 154.521 40.2293 143.611 40.2354C132.353 40.2414 121.095 40.2291 109.837 40.2078C100.173 40.1902 90.5095 40.1842 80.8457 40.1874C75.0731 40.1892 69.3005 40.1866 63.528 40.1727C58.1 40.1602 52.6723 40.1621 47.2443 40.1751C45.2521 40.1775 43.2599 40.1747 41.2677 40.1665C38.5482 40.1561 35.8294 40.1641 33.11 40.1768C31.9274 40.1658 31.9274 40.1658 30.7208 40.1545C25.9288 40.2016 22.4974 40.8058 18.5257 43.551Z" fill="#FF5100"/>
<path d="M300.572 0.0424833C301.39 0.0362433 302.207 0.0300033 303.049 0.0235743C305.791 0.00760181 308.533 0.0202649 311.275 0.0328397C313.24 0.0274205 315.205 0.0202989 317.169 0.0115995C322.508 -0.0066604 327.846 0.000444696 333.185 0.0131158C338.767 0.0232296 344.35 0.0138546 349.932 0.00757115C359.307 0.000290038 368.682 0.00989465 378.057 0.0289335C388.902 0.050703 399.747 0.043652 410.592 0.0216278C419.896 0.00348708 429.201 0.000909037 438.505 0.0113825C444.065 0.0176247 449.625 0.0184331 455.186 0.00523656C460.413 -0.006302 465.639 0.0016674 470.866 0.0248136C472.786 0.0301113 474.707 0.0285687 476.627 0.0197629C479.245 0.00886582 481.861 0.0224997 484.479 0.0424833C485.242 0.0335604 486.006 0.0246375 486.793 0.0154442C489.958 0.0624646 492.216 0.378029 494.997 1.92738C497.445 6.12768 497.075 10.251 497.033 15.027C497.04 16.1056 497.046 17.1843 497.052 18.2956C497.068 21.9224 497.056 25.5486 497.043 29.1754C497.048 31.7705 497.056 34.3655 497.064 36.9606C497.082 43.2848 497.078 49.6088 497.067 55.933C497.058 61.0721 497.056 66.2111 497.061 71.3502C497.061 72.0812 497.062 72.8122 497.063 73.5654C497.064 75.0503 497.065 76.5352 497.066 78.0202C497.078 91.9495 497.065 105.879 497.043 119.808C497.025 131.764 497.029 143.72 497.047 155.675C497.068 169.554 497.077 183.433 497.065 197.312C497.063 198.792 497.062 200.271 497.061 201.751C497.06 202.843 497.06 202.843 497.059 203.957C497.055 209.09 497.061 214.224 497.071 219.358C497.083 226.266 497.074 233.173 497.051 240.081C497.046 242.621 497.047 245.161 497.056 247.7C497.067 251.159 497.053 254.616 497.033 258.074C497.042 259.087 497.051 260.1 497.06 261.143C496.986 267.761 496.986 267.761 494.997 271.173C491.525 273.108 488.351 273.104 484.479 273.058C483.253 273.068 483.253 273.068 482.002 273.077C479.259 273.093 476.518 273.081 473.775 273.068C471.811 273.073 469.846 273.081 467.882 273.089C462.543 273.107 457.205 273.1 451.866 273.088C446.284 273.078 440.701 273.087 435.119 273.093C425.744 273.101 416.369 273.091 406.994 273.072C396.149 273.05 385.304 273.057 374.459 273.079C365.155 273.097 355.85 273.1 346.546 273.089C340.986 273.083 335.425 273.082 329.865 273.096C324.638 273.107 319.412 273.099 314.185 273.076C312.265 273.071 310.344 273.072 308.424 273.081C305.806 273.092 303.19 273.078 300.572 273.058C299.809 273.067 299.045 273.076 298.258 273.085C295.093 273.038 292.835 272.723 290.054 271.173C287.606 266.973 287.975 262.85 288.018 258.074C288.008 256.456 288.008 256.456 287.999 254.805C287.983 251.178 287.995 247.552 288.008 243.925C288.002 241.33 287.995 238.735 287.987 236.14C287.969 229.816 287.973 223.492 287.984 217.168C287.993 212.029 287.995 206.89 287.99 201.751C287.99 201.02 287.989 200.289 287.988 199.535C287.987 198.051 287.986 196.566 287.984 195.081C287.973 181.151 287.986 167.222 288.008 153.293C288.026 141.337 288.022 129.381 288.004 117.425C287.983 103.547 287.974 89.6677 287.986 75.7888C287.988 74.3093 287.989 72.8297 287.99 71.3502C287.991 70.6222 287.991 69.8943 287.992 69.1442C287.996 64.0104 287.99 58.8766 287.98 53.7428C287.968 46.835 287.977 39.9275 288 33.0197C288.005 30.4799 288.004 27.9402 287.995 25.4005C287.984 21.9423 287.998 18.4851 288.018 15.027C288.009 14.0141 288 13.0013 287.991 11.9578C288.065 5.34027 288.065 5.34027 290.054 1.92738C293.526 -0.00729895 296.7 -0.002749 300.572 0.0424833ZM304.525 16.5504C304.525 95.7504 304.525 174.95 304.525 256.55C362.605 256.55 420.685 256.55 480.525 256.55C480.525 177.35 480.525 98.1504 480.525 16.5504C422.445 16.5504 364.365 16.5504 304.525 16.5504Z" fill="#FF5100"/>
<path d="M266.501 296.284C267.859 296.277 267.859 296.277 269.244 296.27C272.278 296.257 275.311 296.259 278.345 296.261C280.52 296.255 282.695 296.248 284.87 296.24C290.779 296.222 296.688 296.218 302.597 296.217C307.53 296.215 312.463 296.207 317.396 296.2C329.035 296.184 340.673 296.179 352.312 296.18C364.317 296.182 376.323 296.161 388.328 296.129C398.636 296.103 408.943 296.092 419.251 296.093C425.407 296.094 431.563 296.088 437.719 296.067C443.51 296.048 449.3 296.047 455.091 296.062C457.215 296.064 459.338 296.059 461.462 296.047C464.365 296.032 467.266 296.041 470.169 296.057C471.006 296.046 471.843 296.036 472.706 296.025C479.464 296.104 484.66 298.04 489.768 302.516C490.307 303.167 490.845 303.818 491.4 304.489C491.955 305.137 492.509 305.785 493.08 306.453C496.221 311.012 496.778 314.916 496.793 320.4C496.797 321.077 496.802 321.753 496.807 322.45C496.819 324.71 496.818 326.97 496.816 329.23C496.822 330.853 496.829 332.476 496.836 334.1C496.854 338.505 496.859 342.91 496.86 347.315C496.861 350.069 496.866 352.822 496.871 355.576C496.89 365.188 496.898 374.8 496.896 384.412C496.895 393.363 496.916 402.315 496.948 411.267C496.974 418.958 496.984 426.65 496.983 434.342C496.983 438.933 496.988 443.524 497.01 448.116C497.029 452.435 497.029 456.755 497.014 461.075C497.012 462.657 497.017 464.239 497.029 465.82C497.096 475.185 497.013 482.43 490.561 489.793C489.91 490.332 489.259 490.871 488.588 491.426C487.94 491.98 487.291 492.535 486.623 493.106C481.381 496.717 476.709 496.841 470.55 496.818C469.192 496.825 469.192 496.825 467.807 496.832C464.773 496.845 461.74 496.843 458.706 496.842C456.531 496.848 454.356 496.854 452.181 496.862C446.272 496.88 440.363 496.884 434.454 496.886C429.521 496.887 424.588 496.895 419.655 496.902C408.016 496.918 396.378 496.923 384.739 496.922C372.734 496.92 360.728 496.942 348.723 496.973C338.415 496.999 328.108 497.01 317.8 497.009C311.644 497.008 305.488 497.014 299.332 497.035C293.541 497.054 287.751 497.055 281.96 497.04C279.836 497.038 277.713 497.043 275.589 497.055C272.686 497.07 269.785 497.061 266.882 497.046C266.045 497.056 265.208 497.066 264.345 497.077C257.587 496.998 252.391 495.062 247.283 490.586C246.475 489.61 246.475 489.61 245.65 488.614C245.096 487.965 244.542 487.317 243.971 486.649C240.83 482.09 240.273 478.186 240.258 472.702C240.254 472.025 240.249 471.349 240.244 470.652C240.232 468.392 240.233 466.132 240.235 463.872C240.229 462.249 240.222 460.626 240.215 459.002C240.197 454.597 240.192 450.192 240.191 445.787C240.19 443.034 240.185 440.28 240.18 437.526C240.161 427.914 240.153 418.302 240.155 408.69C240.156 399.739 240.135 390.787 240.103 381.836C240.077 374.144 240.067 366.452 240.068 358.76C240.068 354.169 240.063 349.578 240.041 344.987C240.022 340.667 240.022 336.347 240.036 332.027C240.039 330.445 240.034 328.863 240.022 327.282C239.955 317.917 240.038 310.672 246.49 303.309C247.141 302.77 247.792 302.231 248.463 301.676C249.111 301.122 249.76 300.567 250.428 299.996C255.67 296.385 260.342 296.261 266.501 296.284ZM258.525 315.551C256.333 319.249 256.273 322.645 256.265 326.882C256.258 328.16 256.251 329.437 256.243 330.753C256.246 332.161 256.248 333.569 256.251 334.977C256.246 336.465 256.241 337.954 256.235 339.442C256.222 343.479 256.221 347.516 256.224 351.554C256.225 354.926 256.22 358.298 256.215 361.67C256.204 369.627 256.204 377.584 256.21 385.54C256.216 393.744 256.204 401.948 256.182 410.152C256.165 417.201 256.159 424.249 256.162 431.297C256.164 435.505 256.161 439.712 256.147 443.92C256.135 447.877 256.137 451.834 256.15 455.791C256.152 457.241 256.149 458.692 256.141 460.142C256.13 462.126 256.14 464.109 256.151 466.093C256.151 467.202 256.151 468.31 256.151 469.453C256.595 473.126 257.493 475.459 259.525 478.551C263.66 481.153 268.241 480.834 272.983 480.812C273.832 480.816 274.682 480.819 275.557 480.823C278.402 480.834 281.247 480.83 284.092 480.826C286.132 480.83 288.172 480.835 290.212 480.841C295.754 480.855 301.295 480.855 306.836 480.853C311.461 480.852 316.086 480.856 320.711 480.861C331.621 480.872 342.53 480.873 353.44 480.867C364.698 480.861 375.956 480.873 387.214 480.894C396.878 480.912 406.542 480.918 416.205 480.915C421.978 480.913 427.751 480.915 433.523 480.929C438.951 480.942 444.379 480.94 449.807 480.927C451.799 480.925 453.791 480.927 455.783 480.936C458.503 480.946 461.222 480.938 463.941 480.925C464.73 480.933 465.518 480.94 466.33 480.948C471.122 480.901 474.554 480.296 478.525 477.551C480.718 473.853 480.778 470.458 480.786 466.22C480.793 464.942 480.8 463.665 480.808 462.349C480.805 460.941 480.803 459.533 480.8 458.126C480.805 456.637 480.81 455.148 480.816 453.66C480.829 449.623 480.83 445.586 480.827 441.548C480.826 438.176 480.831 434.804 480.836 431.432C480.847 423.475 480.847 415.519 480.841 407.562C480.835 399.358 480.847 391.154 480.869 382.95C480.886 375.901 480.892 368.853 480.889 361.805C480.887 357.598 480.89 353.39 480.904 349.182C480.916 345.225 480.914 341.268 480.901 337.311C480.899 335.861 480.902 334.41 480.91 332.96C480.921 330.977 480.911 328.993 480.9 327.009C480.9 325.901 480.9 324.792 480.9 323.649C480.456 319.976 479.558 317.643 477.525 314.551C473.39 311.949 468.81 312.268 464.068 312.29C462.794 312.285 462.794 312.285 461.494 312.279C458.649 312.268 455.804 312.272 452.959 312.276C450.919 312.272 448.879 312.267 446.839 312.261C441.297 312.247 435.756 312.247 430.215 312.249C425.59 312.251 420.965 312.246 416.34 312.241C405.43 312.23 394.521 312.229 383.611 312.235C372.353 312.241 361.095 312.229 349.837 312.208C340.173 312.19 330.509 312.184 320.846 312.187C315.073 312.189 309.3 312.187 303.528 312.173C298.1 312.16 292.672 312.162 287.244 312.175C285.252 312.178 283.26 312.175 281.268 312.167C278.548 312.156 275.829 312.164 273.11 312.177C271.927 312.166 271.927 312.166 270.721 312.154C265.929 312.202 262.497 312.806 258.525 315.551Z" fill="#FF5100"/>
<path d="M111.963 288.176C113.084 288.178 113.084 288.178 114.228 288.179C143.341 288.291 172.121 296.148 194.525 315.551C195.332 316.215 196.139 316.879 196.971 317.563C210.334 328.944 222.574 346.643 224.525 364.551C225.963 389.172 221.262 409.216 204.867 428.061C185.228 449.88 154.92 463.072 125.737 464.772C122.258 464.893 118.783 464.923 115.302 464.922C113.187 464.926 111.074 464.963 108.959 465.001C107.536 465.009 106.113 465.013 104.69 465.012C103.608 465.018 103.608 465.018 102.505 465.024C98.131 464.94 94.3697 464.31 90.1797 463.03C80.5558 459.964 80.5558 459.964 70.9825 461.763C64.6944 466.185 59.7823 471.965 54.7755 477.739C53.2128 479.441 51.6438 481.137 50.0684 482.827C46.6332 486.525 43.2645 490.272 39.9467 494.076C37.1769 496.952 34.4574 496.764 30.5958 496.977C27.5512 496.351 26.4614 494.943 24.5254 492.551C24.0603 489.815 24.0603 489.815 24.1065 486.641C24.1126 485.449 24.1187 484.257 24.125 483.029C24.1489 481.743 24.1727 480.458 24.1973 479.133C24.2027 477.793 24.2051 476.453 24.2047 475.112C24.2073 469.432 24.2534 463.752 24.3365 458.073C24.3854 454.592 24.3948 451.113 24.3809 447.633C24.3847 445.678 24.4327 443.723 24.4817 441.769C24.4467 435.266 24.0336 431.337 19.619 426.378C18.2628 425.093 16.8992 423.817 15.5255 422.551C1.26302 404.156 -1.50201 383.401 0.919982 360.883C5.50633 339.431 21.3459 320.447 39.2569 308.584C61.3722 294.531 85.8519 288.102 111.963 288.176ZM42.5255 327.551C41.462 328.304 41.462 328.304 40.377 329.071C29.1874 337.765 19.9931 352.722 17.5254 366.551C15.6805 384.319 19.197 399.381 30.5254 413.551C32.6011 415.803 34.7143 417.946 36.959 420.028C39.5348 422.533 39.6614 424.349 39.7308 427.818C39.7507 428.698 39.7707 429.579 39.7912 430.487C39.8079 431.439 39.8246 432.391 39.8419 433.372C39.8626 434.346 39.8834 435.319 39.9048 436.323C39.9703 439.44 40.0292 442.558 40.088 445.676C40.1311 447.787 40.1748 449.898 40.2188 452.008C40.326 457.189 40.4278 462.37 40.5255 467.551C44.522 464.186 48.4089 460.791 52.0762 457.063C52.8568 456.275 53.6373 455.487 54.4415 454.674C55.2323 453.871 56.0231 453.067 56.838 452.239C58.4359 450.616 60.036 448.994 61.6387 447.376C62.3378 446.665 63.0369 445.954 63.7571 445.222C66.2469 442.87 67.2163 442.569 70.7051 442.372C74.6555 442.558 77.8596 443.324 81.6505 444.426C111.582 452.46 144.677 448.729 171.662 433.266C187.675 423.459 201.425 409.157 206.639 390.774C210.407 374.936 207.5 359.329 199.088 345.551C197.927 343.866 196.742 342.197 195.525 340.551C195.065 339.92 194.605 339.288 194.131 338.637C177.969 318.237 151.279 308.643 126.366 305.258C96.3218 301.778 66.8476 309.925 42.5255 327.551Z" fill="#FF5100"/>
<path d="M100.525 128.55C102.345 129.775 102.345 129.775 104.162 131.45C104.857 132.089 105.552 132.727 106.268 133.385C110.472 137.416 114.607 141.51 118.713 145.64C119.665 146.594 120.618 147.548 121.571 148.502C124.052 150.987 126.53 153.475 129.008 155.964C131.547 158.513 134.089 161.06 136.631 163.606C141.599 168.585 146.563 173.566 151.525 178.55C155.351 176.774 157.964 174.354 160.877 171.358C161.377 170.853 161.877 170.348 162.393 169.827C163.983 168.219 165.567 166.603 167.15 164.987C168.742 163.369 170.334 161.751 171.93 160.137C172.921 159.133 173.909 158.127 174.895 157.119C178.098 153.868 179.553 152.684 184.15 152.05C193.451 152.267 202.295 165.133 208.555 171.394C210.412 173.249 212.277 175.096 214.143 176.942C215.331 178.127 216.518 179.313 217.705 180.499C218.538 181.321 218.538 181.321 219.387 182.16C224.343 187.144 224.343 187.144 225.525 190.55C225.377 194.114 224.937 196.005 222.775 198.862C220.163 200.822 218.794 201.472 215.525 201.55C210.672 199.556 207.294 196.725 203.69 193.007C203.165 192.478 202.641 191.95 202.101 191.405C200.444 189.731 198.797 188.047 197.15 186.362C196.022 185.219 194.893 184.076 193.764 182.935C191.01 180.148 188.265 177.351 185.525 174.55C181.635 176.128 179.049 178.785 176.174 181.741C175.674 182.247 175.174 182.752 174.658 183.272C173.068 184.881 171.484 186.496 169.9 188.112C168.309 189.731 166.717 191.348 165.121 192.963C164.13 193.966 163.142 194.972 162.156 195.981C158.953 199.231 157.498 200.416 152.9 201.05C149.218 200.987 147.579 200.129 144.889 197.649C144.194 197.011 143.499 196.372 142.783 195.715C138.579 191.684 134.444 187.59 130.338 183.46C129.386 182.506 128.433 181.552 127.48 180.598C124.999 178.113 122.521 175.625 120.043 173.136C117.504 170.587 114.962 168.04 112.42 165.493C107.452 160.515 102.488 155.533 97.5255 150.55C93.8841 152.08 91.6135 154.247 88.868 157.06C87.9499 157.994 87.0318 158.928 86.0859 159.891C85.5996 160.39 85.1133 160.89 84.6123 161.404C83.0827 162.974 81.5455 164.535 80.0059 166.094C75.6305 170.528 71.2649 174.97 66.9144 179.428C64.2492 182.158 61.5718 184.875 58.8864 187.585C57.8687 188.617 56.8556 189.654 55.8475 190.695C54.4338 192.155 53.0027 193.598 51.5711 195.04C50.3601 196.277 50.3601 196.277 49.1246 197.538C45.9946 199.961 43.3958 200.806 39.5255 201.55C35.8384 200.367 34.1029 199.504 32.088 196.175C31.4446 193.172 31.7065 191.494 32.5255 188.55C33.7406 186.73 33.7406 186.73 35.3524 184.981C35.9869 184.291 36.6215 183.602 37.2753 182.891C41.8932 178.086 46.5781 173.354 51.295 168.647C52.4238 167.518 53.5524 166.388 54.6809 165.259C57.0301 162.908 59.381 160.559 61.7332 158.212C64.7507 155.2 67.7636 152.184 70.7752 149.166C73.0973 146.84 75.4218 144.517 77.747 142.194C78.8597 141.082 79.9717 139.97 81.083 138.856C82.6289 137.308 84.1779 135.762 85.7279 134.218C86.6083 133.338 87.4888 132.459 88.3959 131.552C92.0277 128.137 95.6785 127.525 100.525 128.55Z" fill="#FF5100"/>
<path d="M352.526 328.55C356.936 330.176 360.786 332.459 364.776 334.925C365.858 335.564 366.941 336.202 368.057 336.86C370.226 338.142 372.388 339.436 374.542 340.742C377.145 342.319 379.76 343.865 382.393 345.39C385.801 347.365 389.19 349.37 392.572 351.39C394.614 352.603 396.667 353.796 398.721 354.988C400.073 355.779 401.424 356.571 402.776 357.363C403.384 357.712 403.993 358.061 404.62 358.421C409.626 361.378 414.544 364.875 416.526 370.55C416.897 373.285 416.897 373.285 416.963 376.3C417.003 377.285 417.043 378.27 417.084 379.285C416.103 385.021 413.781 388.886 409.064 392.367C405.996 394.241 402.88 395.973 399.713 397.675C397.969 398.646 396.225 399.616 394.482 400.588C392.689 401.586 390.892 402.576 389.094 403.566C383.491 406.665 377.982 409.928 372.463 413.175C369.671 414.813 366.876 416.448 364.073 418.069C362.4 419.042 360.736 420.031 359.082 421.037C352.472 424.956 347.192 425.643 339.526 424.55C334.492 422.166 331.026 418.55 328.526 413.55C328.413 411.244 328.366 408.934 328.349 406.625C328.342 405.913 328.336 405.201 328.329 404.467C328.309 402.104 328.298 399.741 328.288 397.378C328.283 396.571 328.279 395.764 328.275 394.933C328.254 390.659 328.24 386.386 328.231 382.113C328.22 377.703 328.185 373.294 328.145 368.885C328.119 365.491 328.111 362.097 328.107 358.703C328.103 357.078 328.091 355.453 328.072 353.828C328.048 351.549 328.049 349.272 328.056 346.993C328.05 345.697 328.044 344.402 328.038 343.068C328.774 337.76 331.197 334.721 335.151 331.238C340.535 327.412 346.1 327.782 352.526 328.55ZM345.526 345.55C344.255 346.598 344.255 346.598 344.406 348.948C344.408 350.012 344.41 351.076 344.412 352.172C344.412 353.373 344.412 354.574 344.413 355.812C344.418 357.119 344.423 358.426 344.428 359.773C344.43 361.117 344.431 362.46 344.432 363.804C344.436 367.347 344.446 370.89 344.457 374.433C344.467 378.045 344.472 381.658 344.477 385.271C344.488 392.364 344.505 399.457 344.526 406.55C347.393 407.87 347.393 407.87 349.597 406.693C350.392 406.232 351.187 405.771 352.006 405.296C353.365 404.519 353.365 404.519 354.751 403.726C355.729 403.152 356.706 402.579 357.713 401.988C359.226 401.116 359.226 401.116 360.769 400.227C364.028 398.345 367.277 396.448 370.526 394.55C372.753 393.257 374.981 391.964 377.209 390.671C382.99 387.312 388.768 383.948 394.526 380.55C395.453 380.037 396.379 379.523 397.334 378.994C398.057 378.518 398.781 378.041 399.526 377.55C399.526 376.89 399.526 376.23 399.526 375.55C398.874 375.174 398.223 374.799 397.552 374.411C395.567 373.266 393.583 372.121 391.598 370.976C389.282 369.64 386.966 368.305 384.649 366.97C379.065 363.752 373.485 360.53 367.917 357.285C365.529 355.893 363.139 354.504 360.749 353.116C359.041 352.122 357.335 351.123 355.63 350.124C354.595 349.524 353.561 348.923 352.495 348.304C351.581 347.771 350.668 347.238 349.727 346.689C347.643 345.397 347.643 345.397 345.526 345.55Z" fill="#FF5100"/>
<path d="M428.525 432.551C431.025 434.301 431.025 434.301 432.525 436.551C432.525 437.871 432.525 439.191 432.525 440.551C433.11 440.53 433.695 440.509 434.298 440.488C436.957 440.405 439.616 440.353 442.275 440.301C443.196 440.268 444.116 440.234 445.064 440.2C451.86 440.101 451.86 440.101 455.135 442.317C456.585 444.647 457.068 445.834 457.025 448.551C457.041 449.541 457.041 449.541 457.057 450.551C456.219 453.704 455.251 454.707 452.525 456.551C449.096 457.041 445.731 456.927 442.275 456.801C441.34 456.783 440.404 456.765 439.439 456.747C437.134 456.7 434.83 456.634 432.525 456.551C432.371 457.974 432.371 457.974 432.213 459.426C431.525 462.551 431.525 462.551 428.525 464.551C421.483 465.222 421.483 465.222 418.025 462.801C416.525 460.551 416.525 460.551 416.525 456.551C415.849 456.555 415.172 456.559 414.475 456.563C398.017 456.651 381.559 456.717 365.101 456.759C357.142 456.779 349.183 456.807 341.224 456.853C334.287 456.893 327.351 456.919 320.414 456.928C316.741 456.933 313.068 456.945 309.394 456.974C305.295 457.006 301.196 457.007 297.097 457.005C295.877 457.02 294.657 457.034 293.4 457.049C292.284 457.044 291.168 457.038 290.018 457.032C289.048 457.036 288.078 457.04 287.079 457.044C283.789 456.409 282.601 455.124 280.525 452.551C279.994 450.551 279.994 450.551 280.025 448.551C280.01 447.561 280.01 447.561 279.994 446.551C280.769 443.633 282.215 442.457 284.525 440.551C287.079 440.059 287.079 440.059 290.018 440.07C291.134 440.065 292.25 440.059 293.4 440.054C294.62 440.068 295.84 440.082 297.097 440.097C298.385 440.097 299.673 440.096 301 440.095C304.529 440.094 308.057 440.118 311.586 440.146C315.274 440.171 318.963 440.173 322.652 440.178C329.636 440.19 336.62 440.223 343.604 440.263C351.556 440.308 359.507 440.33 367.459 440.35C383.814 440.392 400.17 440.462 416.525 440.551C416.68 439.128 416.68 439.128 416.838 437.676C418.164 431.647 423.212 431.675 428.525 432.551Z" fill="#FF5100"/>
<path d="M176.416 67.2938C184.761 72.2697 189.95 79.1572 192.525 88.5516C193.524 99.6514 192.875 109.286 185.775 118.364C180.106 124.435 173.053 128.148 164.756 128.888C156.975 129.061 150.247 128.88 143.525 124.552C142.819 124.116 142.113 123.68 141.385 123.231C134.479 118.551 130.728 112.551 128.525 104.552C127.527 93.4518 128.176 83.8171 135.275 74.7391C145.573 63.7131 162.822 60.7702 176.416 67.2938ZM147.15 88.1766C144.946 92.7543 144.728 96.5571 145.525 101.552C147.855 106.39 150.687 109.222 155.525 111.552C160.52 112.349 164.323 112.131 168.9 109.927C172.484 106.684 175.121 104.087 175.908 99.1532C176.164 93.4694 175.462 89.9022 171.525 85.5516C167.175 81.6153 163.608 80.9128 157.924 81.1688C152.99 81.9562 150.393 84.5925 147.15 88.1766Z" fill="#FF5100"/>
<path d="M337.535 184.042C338.545 184.031 339.554 184.02 340.594 184.008C341.695 184.016 342.797 184.024 343.932 184.033C345.096 184.026 346.261 184.019 347.461 184.011C351.316 183.994 355.17 184.006 359.025 184.019C361.701 184.016 364.376 184.012 367.051 184.007C372.66 184 378.268 184.01 383.877 184.029C390.36 184.051 396.842 184.044 403.324 184.022C408.892 184.003 414.46 184.001 420.028 184.011C423.352 184.018 426.677 184.017 430.001 184.005C433.708 183.995 437.413 184.01 441.119 184.033C442.221 184.025 443.322 184.017 444.457 184.008C445.971 184.025 445.971 184.025 447.516 184.042C448.392 184.044 449.268 184.045 450.17 184.047C453.304 184.717 454.52 186.11 456.525 188.55C457.057 190.55 457.057 190.55 457.025 192.55C457.041 193.54 457.041 193.54 457.057 194.55C456.286 197.452 454.807 198.642 452.525 200.55C450.17 201.054 450.17 201.054 447.516 201.058C446.506 201.07 445.497 201.081 444.457 201.092C443.355 201.084 442.254 201.076 441.119 201.068C439.955 201.075 438.79 201.082 437.59 201.089C433.735 201.107 429.881 201.095 426.025 201.082C423.35 201.084 420.675 201.088 418 201.093C412.391 201.1 406.783 201.091 401.174 201.072C394.691 201.05 388.209 201.057 381.726 201.079C376.159 201.097 370.591 201.1 365.023 201.089C361.698 201.083 358.374 201.084 355.05 201.095C351.343 201.106 347.638 201.09 343.932 201.068C342.83 201.076 341.729 201.084 340.594 201.092C339.08 201.076 339.08 201.076 337.535 201.058C336.659 201.057 335.783 201.055 334.88 201.054C331.746 200.384 330.531 198.991 328.525 196.55C327.994 194.55 327.994 194.55 328.025 192.55C328.01 191.56 328.01 191.56 327.994 190.55C329.299 185.638 332.789 184.051 337.535 184.042Z" fill="#FF5100"/>
<path d="M337.535 112.042C338.545 112.031 339.554 112.02 340.594 112.008C341.695 112.016 342.797 112.024 343.932 112.033C345.096 112.026 346.261 112.019 347.461 112.011C351.316 111.994 355.17 112.006 359.025 112.019C361.701 112.016 364.376 112.012 367.051 112.007C372.66 112 378.268 112.01 383.877 112.029C390.36 112.051 396.842 112.044 403.324 112.022C408.892 112.003 414.46 112.001 420.028 112.011C423.352 112.018 426.677 112.017 430.001 112.005C433.708 111.995 437.413 112.01 441.119 112.033C442.221 112.025 443.322 112.017 444.457 112.008C445.971 112.025 445.971 112.025 447.516 112.042C448.392 112.044 449.268 112.045 450.17 112.047C453.304 112.717 454.52 114.11 456.525 116.55C457.057 118.55 457.057 118.55 457.025 120.55C457.041 121.54 457.041 121.54 457.057 122.55C456.286 125.452 454.807 126.642 452.525 128.55C450.17 129.054 450.17 129.054 447.516 129.058C446.506 129.07 445.497 129.081 444.457 129.092C443.355 129.084 442.254 129.076 441.119 129.068C439.955 129.075 438.79 129.082 437.59 129.089C433.735 129.107 429.881 129.095 426.025 129.082C423.35 129.084 420.675 129.088 418 129.093C412.391 129.1 406.783 129.091 401.174 129.072C394.691 129.05 388.209 129.057 381.726 129.079C376.159 129.097 370.591 129.1 365.023 129.089C361.698 129.083 358.374 129.084 355.05 129.095C351.343 129.106 347.638 129.09 343.932 129.068C342.83 129.076 341.729 129.084 340.594 129.092C339.08 129.076 339.08 129.076 337.535 129.058C336.659 129.057 335.783 129.055 334.88 129.054C331.746 128.384 330.531 126.991 328.525 124.55C327.994 122.55 327.994 122.55 328.025 120.55C328.01 119.56 328.01 119.56 327.994 118.55C329.299 113.638 332.789 112.051 337.535 112.042Z" fill="#FF5100"/>
<path d="M340.994 40.0327C341.847 40.0257 342.699 40.0187 343.577 40.0115C346.394 39.9939 349.209 40.0055 352.025 40.0191C353.983 40.0164 355.941 40.0125 357.898 40.0075C362.001 40.0016 366.103 40.0101 370.205 40.0288C375.465 40.0516 380.723 40.0385 385.983 40.0145C390.025 40.0001 394.067 40.0047 398.11 40.0151C400.049 40.0177 401.988 40.0144 403.927 40.0051C406.638 39.995 409.347 40.0105 412.057 40.0327C412.859 40.0246 413.661 40.0165 414.488 40.0082C418.088 40.0631 420.119 40.2395 423.021 42.4577C424.651 44.7251 425.069 45.79 425.025 48.5503C425.041 49.5403 425.041 49.5403 425.057 50.5503C424.251 53.5815 423.02 54.6442 420.525 56.5503C417.578 56.9449 415.004 57.0976 412.057 57.0679C410.778 57.0784 410.778 57.0784 409.473 57.0891C406.657 57.1067 403.842 57.0951 401.025 57.0816C399.068 57.0843 397.11 57.0881 395.152 57.0932C391.05 57.0991 386.948 57.0905 382.846 57.0718C377.586 57.049 372.327 57.0621 367.068 57.0861C363.026 57.1005 358.984 57.0959 354.941 57.0856C353.002 57.0829 351.063 57.0862 349.123 57.0955C346.413 57.1057 343.704 57.0902 340.994 57.0679C340.192 57.076 339.39 57.0841 338.563 57.0924C334.963 57.0376 332.932 56.8611 330.029 54.643C328.4 52.3755 327.982 51.3107 328.025 48.5503C328.01 47.5603 328.01 47.5603 327.994 46.5503C329.745 39.9577 335.174 39.974 340.994 40.0327Z" fill="#FF5100"/>
<path d="M338.791 152.032C340.059 152.02 341.327 152.007 342.634 151.994C344.014 152.001 345.395 152.01 346.775 152.019C348.195 152.016 349.615 152.012 351.034 152.007C354.007 152.001 356.979 152.01 359.951 152.028C363.758 152.051 367.564 152.038 371.37 152.014C374.301 152 377.231 152.004 380.162 152.015C381.565 152.017 382.969 152.014 384.372 152.005C386.335 151.995 388.297 152.013 390.26 152.032C391.376 152.036 392.492 152.039 393.642 152.042C397.167 152.663 398.344 153.769 400.525 156.55C401.057 158.55 401.057 158.55 401.025 160.55C401.041 161.54 401.041 161.54 401.057 162.55C400.274 165.495 398.88 166.646 396.525 168.55C393.642 169.058 393.642 169.058 390.26 169.068C388.992 169.08 387.724 169.093 386.417 169.106C385.036 169.099 383.656 169.09 382.275 169.081C380.856 169.084 379.436 169.088 378.017 169.093C375.044 169.099 372.072 169.09 369.1 169.071C365.293 169.049 361.487 169.062 357.68 169.086C354.75 169.1 351.819 169.096 348.889 169.085C347.485 169.083 346.082 169.086 344.679 169.095C342.716 169.105 340.753 169.087 338.791 169.068C337.675 169.064 336.559 169.061 335.409 169.058C331.883 168.437 330.707 167.331 328.525 164.55C327.994 162.55 327.994 162.55 328.025 160.55C328.01 159.56 328.01 159.56 327.994 158.55C329.487 152.93 333.555 152.047 338.791 152.032Z" fill="#FF5100"/>
<path d="M394.791 80.0323C396.059 80.0197 397.327 80.0071 398.634 79.9941C400.014 80.0013 401.395 80.0095 402.775 80.0187C404.195 80.016 405.615 80.0121 407.034 80.0071C410.007 80.0012 412.979 80.0097 415.951 80.0284C419.758 80.0512 423.564 80.0381 427.37 80.0142C430.301 79.9997 433.231 80.0043 436.162 80.0147C437.565 80.0173 438.969 80.0141 440.372 80.0047C442.335 79.9946 444.297 80.0128 446.26 80.0323C447.376 80.0355 448.492 80.0387 449.642 80.042C453.167 80.663 454.344 81.7689 456.525 84.5499C457.057 86.5499 457.057 86.5499 457.025 88.5499C457.041 89.5399 457.041 89.5399 457.057 90.5499C456.274 93.4948 454.88 94.6457 452.525 96.5499C449.642 97.0579 449.642 97.0579 446.26 97.0675C444.992 97.0801 443.724 97.0927 442.417 97.1057C441.036 97.0986 439.656 97.0903 438.275 97.0812C436.856 97.0839 435.436 97.0878 434.017 97.0928C431.044 97.0987 428.072 97.0901 425.1 97.0714C421.293 97.0486 417.487 97.0617 413.68 97.0857C410.75 97.1002 407.819 97.0955 404.889 97.0852C403.485 97.0825 402.082 97.0858 400.679 97.0951C398.716 97.1053 396.753 97.087 394.791 97.0675C393.675 97.0643 392.559 97.0611 391.409 97.0579C387.883 96.4368 386.707 95.331 384.525 92.5499C383.994 90.5499 383.994 90.5499 384.025 88.5499C384.01 87.5599 384.01 87.5599 383.994 86.5499C385.487 80.9296 389.555 80.0473 394.791 80.0323Z" fill="#FF5100"/>
<path d="M343.275 216.019C344.326 216.015 345.376 216.011 346.458 216.007C348.677 216.004 350.896 216.012 353.115 216.029C356.513 216.05 359.909 216.029 363.307 216.003C365.463 216.006 367.619 216.011 369.775 216.019C370.792 216.011 371.809 216.003 372.856 215.994C379.886 216.088 379.886 216.088 383.164 218.458C384.632 220.714 385.067 221.88 385.025 224.55C385.036 225.21 385.046 225.87 385.057 226.55C384.224 229.683 383.182 230.629 380.525 232.55C376.948 233.166 373.398 233.11 369.775 233.081C368.2 233.087 368.2 233.087 366.593 233.093C364.374 233.096 362.155 233.088 359.936 233.072C356.538 233.05 353.142 233.071 349.744 233.097C347.588 233.094 345.432 233.089 343.275 233.081C342.259 233.089 341.242 233.098 340.194 233.106C333.165 233.012 333.165 233.012 329.887 230.642C328.419 228.387 327.984 227.22 328.025 224.55C328.01 223.56 328.01 223.56 327.994 222.55C329.998 215.005 336.901 215.968 343.275 216.019Z" fill="#FF5100"/>
<path d="M173.525 364.55C176.651 366.222 178.918 368.336 180.525 371.55C181.04 375.642 181.469 379.786 179.478 383.507C177.08 386.406 175.129 388.348 171.353 388.823C163.536 389.131 163.536 389.131 159.963 386.175C156.219 382.144 156.135 379.455 156.166 374.101C156.745 369.991 158.524 368.336 161.525 365.55C165.25 363.688 169.47 363.979 173.525 364.55Z" fill="#FF5100"/>
<path d="M117.525 364.55C120.651 366.222 122.918 368.336 124.525 371.55C125.04 375.642 125.469 379.786 123.478 383.507C121.08 386.406 119.129 388.348 115.353 388.823C107.536 389.131 107.536 389.131 103.963 386.175C100.219 382.144 100.135 379.455 100.166 374.101C100.745 369.991 102.524 368.336 105.525 365.55C109.25 363.688 113.47 363.979 117.525 364.55Z" fill="#FF5100"/>
<path d="M61.5251 364.55C64.6509 366.222 66.9179 368.336 68.5251 371.55C69.0402 375.642 69.4688 379.786 67.4782 383.507C65.0801 386.406 63.1286 388.348 59.3532 388.823C51.5363 389.131 51.5363 389.131 47.9626 386.175C44.2193 382.144 44.1347 379.455 44.1657 374.101C44.7447 369.991 46.5242 368.336 49.5251 365.55C53.2498 363.688 57.47 363.979 61.5251 364.55Z" fill="#FF5100"/>
<path d="M434.025 152.02C435.077 152.014 436.129 152.009 437.213 152.004C438.306 152.019 439.399 152.035 440.525 152.051C442.165 152.028 442.165 152.028 443.838 152.004C444.89 152.009 445.942 152.014 447.025 152.02C448.464 152.026 448.464 152.026 449.932 152.033C453.238 152.693 454.434 153.962 456.525 156.551C457.057 158.551 457.057 158.551 457.025 160.551C457.036 161.211 457.046 161.871 457.057 162.551C456.282 165.469 454.834 166.644 452.525 168.551C449.932 169.068 449.932 169.068 447.025 169.082C445.974 169.087 444.922 169.092 443.838 169.098C442.745 169.082 441.652 169.067 440.525 169.051C438.886 169.074 438.886 169.074 437.213 169.098C436.161 169.092 435.109 169.087 434.025 169.082C433.066 169.078 432.107 169.073 431.119 169.068C427.812 168.409 426.616 167.14 424.525 164.551C423.994 162.551 423.994 162.551 424.025 160.551C424.01 159.561 424.01 159.561 423.994 158.551C425.373 153.36 429.084 152.043 434.025 152.02Z" fill="#FF5100"/>
<path d="M338.025 80.0195C339.077 80.0144 340.129 80.0092 341.213 80.0039C342.306 80.0194 343.399 80.0348 344.525 80.0508C346.165 80.0276 346.165 80.0276 347.838 80.0039C348.89 80.0091 349.942 80.0142 351.025 80.0195C352.464 80.0263 352.464 80.0263 353.932 80.0332C357.238 80.6931 358.434 81.9619 360.525 84.5508C361.057 86.5508 361.057 86.5508 361.025 88.5508C361.036 89.2108 361.046 89.8708 361.057 90.5508C360.282 93.4687 358.834 94.6439 356.525 96.5508C353.932 97.0684 353.932 97.0684 351.025 97.082C349.974 97.0872 348.922 97.0923 347.838 97.0977C346.745 97.0822 345.652 97.0667 344.525 97.0508C342.886 97.074 342.886 97.074 341.213 97.0977C340.161 97.0925 339.109 97.0873 338.025 97.082C337.066 97.0775 336.107 97.073 335.119 97.0684C331.812 96.4085 330.616 95.1396 328.525 92.5508C327.994 90.5508 327.994 90.5508 328.025 88.5508C328.01 87.5608 328.01 87.5608 327.994 86.5508C329.373 81.3598 333.084 80.0428 338.025 80.0195Z" fill="#FF5100"/>
</svg>
