<svg width="481" height="483" viewBox="0 0 481 483" fill="none" xmlns="http://www.w3.org/2000/svg">
<path d="M240.242 88.3262C241.47 88.3101 242.699 88.294 243.964 88.2774C252.34 88.2729 259.055 88.9371 266.222 93.4278C268.793 96.0781 270.112 98.6763 271.679 102.014C276.422 111.121 282.056 114.772 291.703 117.947C297.174 119.367 301.522 119.045 306.867 117.139C313.212 114.882 317.966 114.754 324.117 117.451C335.284 123.542 346.238 134.446 350.367 146.639C351.003 151.245 350.696 155.294 348.867 159.576C345.937 166.718 346.785 172.826 349.617 179.889C352.774 187.1 355.536 191.71 362.804 195.139C369.164 198.39 372.856 200.662 375.46 207.518C376.966 213.088 376.695 218.85 376.679 224.576C376.695 225.718 376.711 226.859 376.728 228.035C376.733 236.357 375.919 243.613 370.21 250.174C367.687 252.179 364.916 253.294 361.992 254.639C353.006 259.162 350.444 266.406 347.367 275.639C346.909 280.593 346.9 285.081 348.867 289.701C351.117 295.1 351.476 299.868 349.277 305.361C348.047 307.838 346.748 310.244 345.367 312.639C345.037 313.299 344.707 313.959 344.367 314.639C345.523 317.225 346.737 319.699 348.054 322.201C348.799 323.65 349.543 325.099 350.285 326.549C350.645 327.25 351.005 327.952 351.376 328.674C353.188 332.267 354.782 335.941 356.367 339.639C357.041 338.803 357.041 338.803 357.73 337.951C362.95 331.758 368.666 327.159 375.367 322.639C373.885 318.818 372.171 315.228 370.269 311.604C366.419 303.22 367.06 290.207 369.929 281.576C374.549 271.028 382.756 262.821 393.304 258.201C403.454 254.904 416.174 255.024 425.98 259.318C436.498 265.137 443.943 273.39 447.648 284.889C450.658 296.406 449.356 307.136 443.39 317.482C442.081 319.843 442.081 319.843 442.367 323.639C444.503 325.51 444.503 325.51 447.304 327.201C460.777 336.592 469.36 351.579 472.367 367.639C472.793 372.668 472.832 377.657 472.804 382.701C472.824 383.999 472.844 385.296 472.865 386.633C472.858 398.851 470.195 406.593 461.738 415.439C454.734 421.935 447.669 424.872 438.051 424.929C437.345 424.936 436.638 424.943 435.91 424.95C433.588 424.968 431.267 424.972 428.945 424.975C427.318 424.981 425.692 424.988 424.065 424.995C420.659 425.007 417.253 425.01 413.847 425.009C409.505 425.009 405.164 425.036 400.822 425.071C397.462 425.093 394.103 425.097 390.743 425.096C389.144 425.098 387.544 425.107 385.945 425.123C377.085 425.201 369.375 424.96 361.367 420.639C361.345 422.249 361.345 422.249 361.322 423.892C361.264 427.913 361.187 431.933 361.104 435.952C361.071 437.685 361.043 439.418 361.02 441.152C360.986 443.657 360.934 446.161 360.878 448.666C360.869 449.81 360.869 449.81 360.859 450.978C360.601 460.622 357.59 467.556 350.855 474.463C342.466 481.798 332.514 481.342 321.917 480.859C315.562 480.311 309.512 478.476 303.432 476.627C300.963 475.879 298.486 475.167 296.004 474.463C288.965 472.46 281.945 470.396 274.931 468.309C270.6 467.023 266.259 465.778 261.91 464.555C260.278 464.087 258.651 463.605 257.029 463.105C245.731 459.627 237.658 459.399 226.371 463.004C223.26 463.989 220.105 464.806 216.955 465.653C214.5 466.35 212.047 467.048 209.593 467.748C206.865 468.513 204.135 469.273 201.406 470.033C197.194 471.207 192.985 472.388 188.783 473.595C148.718 485.085 148.718 485.085 134.374 477.963C126.928 473.052 122.285 466.349 120.367 457.639C120.215 454.805 120.11 451.99 120.05 449.154C120.019 447.931 120.019 447.931 119.987 446.683C119.922 444.085 119.863 441.487 119.804 438.889C119.761 437.124 119.717 435.36 119.673 433.596C119.566 429.277 119.465 424.958 119.367 420.639C118.84 420.921 118.313 421.204 117.77 421.495C109.512 425.393 101.468 425.223 92.5541 425.17C90.9332 425.173 89.3124 425.177 87.6915 425.182C84.3093 425.187 80.9275 425.179 77.5453 425.16C73.2348 425.137 68.9254 425.151 64.615 425.174C61.2724 425.189 57.93 425.184 54.5874 425.174C52.9992 425.171 51.4109 425.174 49.8227 425.184C36.5924 425.245 27.4017 423.413 17.5658 414.01C8.9154 404.683 8.00367 395.506 7.99156 383.139C7.96707 381.852 7.94258 380.566 7.91735 379.24C7.8631 361.265 14.045 345.74 26.3666 332.639C30.4881 328.983 34.7844 325.693 39.3666 322.639C38.2364 319.625 36.9928 316.996 35.3666 314.201C30.637 304.76 30.4611 293.634 33.3666 283.639C37.2378 273.082 44.1376 265.46 53.7767 259.83C63.7752 255.231 76.9486 254.747 87.4291 258.201C97.977 262.821 106.184 271.028 110.804 281.576C114.21 292.06 113.736 304.333 109.535 314.475C108.367 316.639 108.367 316.639 106.667 318.74C106.238 319.367 105.809 319.993 105.367 320.639C106.644 324.47 108.174 325.098 111.492 327.326C116.59 330.909 120.547 334.737 124.367 339.639C124.786 338.583 124.786 338.583 125.214 337.506C125.615 336.518 126.016 335.531 126.429 334.514C126.871 333.423 127.313 332.333 127.769 331.209C128.906 328.669 130.041 326.391 131.433 324.006C135.365 317.915 135.365 317.915 135.734 311.08C134.428 309.047 133.005 307.406 131.367 305.639C129.573 300.258 129.612 294.934 131.867 289.701C134.797 282.559 133.948 276.451 131.117 269.389C127.959 262.177 125.197 257.567 117.929 254.139C111.569 250.887 107.877 248.615 105.273 241.76C103.767 236.19 104.038 230.427 104.054 224.701C104.038 223.56 104.022 222.418 104.005 221.242C104 212.92 104.814 205.665 110.523 199.104C113.046 197.099 115.817 195.984 118.742 194.639C126.872 190.536 129.33 184.949 132.367 176.639C134.095 170.949 134.201 165.145 131.867 159.639C129.7 154.369 129.4 149.742 131.105 144.268C136.227 132.625 146.785 122.7 157.867 116.764C163.766 114.867 168.159 115.079 173.867 117.139C182.322 120.13 188.191 118.489 196.312 115.104C204.476 111.189 207.058 106.518 210.839 98.4239C213.593 93.4016 217.022 91.5398 222.222 89.541C228.078 87.9508 234.223 88.3105 240.242 88.3262ZM225.929 107.201C224.202 109.896 222.865 112.677 221.476 115.557C216.089 125.666 206.328 130.23 195.91 133.877C187.185 136.49 178.84 136.627 170.242 133.576C166.472 132.522 165.098 132.23 161.636 134.162C158.989 136.509 156.683 138.967 154.367 141.639C153.272 142.735 153.272 142.735 152.156 143.854C149.489 146.542 149.489 146.542 147.367 149.639C147.608 152.494 148.433 154.822 149.402 157.518C153.251 169.97 149.345 182.268 143.98 193.557C139.298 202.036 133.193 207.387 124.152 210.814C122.175 211.502 122.175 211.502 121.367 213.639C119.404 225.964 119.404 225.964 122.367 237.639C125.224 239.48 128.131 240.761 131.253 242.1C139.963 246.405 144.083 254.908 147.367 263.639C147.686 264.44 148.006 265.242 148.335 266.068C152.165 276.883 151.03 287.953 147.367 298.639C151.095 295.532 154.603 292.423 157.929 288.889C167.21 279.518 178.866 272.896 190.367 266.639C188.859 263.544 187.192 260.568 185.492 257.576C176.75 241.436 174.026 223.99 178.992 206.139C185.023 188.261 195.478 175.754 212.226 167.174C226.503 160.371 244.217 158.822 259.554 163.201C261.517 163.949 263.457 164.763 265.367 165.639C266.448 166.125 267.53 166.611 268.644 167.111C285.585 175.473 295.925 189.058 302.081 206.686C306.996 224.049 303.672 241.991 295.242 257.576C294.744 258.451 294.246 259.327 293.734 260.229C292.538 262.337 291.428 264.46 290.367 266.639C291.443 267.245 292.519 267.85 293.628 268.475C308.386 276.891 320.643 286.345 332.367 298.639C332.697 297.979 333.027 297.319 333.367 296.639C332.892 295.587 332.418 294.535 331.929 293.451C327.284 281.58 330.823 268.834 335.652 257.666C340.274 248.306 346.805 242.073 356.617 238.428C358.563 237.772 358.563 237.772 359.367 235.639C360.323 228.231 360.79 220.993 359.367 213.639C357.226 210.892 354.841 209.854 351.679 208.514C341.891 203.72 337.102 195.556 333.367 185.639C333.047 184.848 332.727 184.058 332.398 183.244C328.766 173.105 329.115 162.435 333.367 152.639C332.779 147.433 328.811 144.265 325.367 140.639C324.692 139.846 324.018 139.053 323.324 138.236C321.094 135.861 319.264 134.141 316.367 132.639C313.139 132.831 310.529 133.647 307.468 134.674C295.983 138.247 284.458 134.164 273.992 129.264C264.691 124.326 259.666 117.756 255.296 108.275C254.463 106.455 254.463 106.455 252.367 105.639C238.717 103.586 238.717 103.586 225.929 107.201ZM203.187 194.334C194.001 205.964 192.087 219.337 193.367 233.639C195.742 245.811 202.81 255.888 212.367 263.639C225.077 271.384 238.266 273.715 252.855 270.986C265.872 267.053 276.49 257.997 283.078 246.213C288.705 234.976 289.417 221.192 285.804 209.139C280.423 195.44 270.299 185.731 257.136 179.6C237.438 172.344 217.171 179.784 203.187 194.334ZM55.3666 279.639C49.8177 285.86 48.3941 291.991 48.7884 300.229C49.8536 306.512 52.4803 311.291 57.4408 315.326C64.2265 319.741 70.3635 320.341 78.3666 319.639C85.0094 317.883 89.5464 313.183 93.3666 307.639C96.3072 301.64 96.4654 294.756 94.7494 288.326C91.8346 281.723 85.9647 276.47 79.3666 273.639C70.3197 271.829 62.4544 273.47 55.3666 279.639ZM391.367 279.639C385.658 286.873 384.568 293.545 385.367 302.639C387.122 309.282 391.822 313.819 397.367 317.639C403.344 320.569 410.38 320.848 416.749 318.916C422.668 316.137 427.538 311.737 430.628 305.912C432.644 299.704 432.473 292.867 430.367 286.721C426.907 280.225 422.101 276.473 415.367 273.639C406.768 271.018 398.035 273.939 391.367 279.639ZM195.367 283.076C194.61 283.435 193.853 283.794 193.073 284.164C186.142 287.565 180.288 291.661 174.367 296.639C173.518 297.324 172.67 298.01 171.796 298.717C153.069 314.568 140.279 338.268 137.367 362.639C136.968 369.698 137.036 376.778 137.031 383.846C137.024 385.901 137.017 387.956 137.01 390.011C136.999 394.298 136.995 398.585 136.996 402.873C136.996 408.362 136.969 413.85 136.934 419.339C136.912 423.574 136.908 427.809 136.909 432.045C136.907 434.069 136.898 436.093 136.883 438.117C136.863 440.944 136.869 443.769 136.881 446.595C136.869 447.426 136.858 448.257 136.847 449.112C136.904 454.419 137.872 457.411 141.367 461.639C145.097 464.436 149.145 464.78 153.694 464.254C164.551 462.14 175.185 459.434 185.851 456.518C187.718 456.012 189.585 455.507 191.452 455.002C196.356 453.676 201.257 452.342 206.158 451.007C210.985 449.693 215.815 448.386 220.644 447.078C229.284 444.738 237.921 442.387 246.557 440.033C252.612 438.384 258.67 436.748 264.731 435.122C268.806 434.028 272.88 432.929 276.954 431.829C278.887 431.309 280.822 430.79 282.757 430.274C285.433 429.56 288.108 428.839 290.782 428.115C291.566 427.908 292.351 427.701 293.159 427.487C300.281 425.545 306.385 423.26 310.367 416.639C312.148 412.485 312.5 409.426 311.742 404.951C309.833 400.353 307.845 397.659 303.742 394.826C293.236 391.13 282.114 395.419 271.808 398.135C269.978 398.608 268.148 399.079 266.318 399.55C261.494 400.793 256.673 402.051 251.854 403.312C247.08 404.559 242.302 405.793 237.525 407.027C234.7 407.758 231.876 408.49 229.052 409.221C227.183 409.705 225.314 410.188 223.444 410.672C214.467 412.994 205.493 415.322 196.546 417.755C193.3 418.636 190.051 419.505 186.801 420.371C185.299 420.776 183.799 421.187 182.301 421.605C180.251 422.177 178.197 422.727 176.14 423.272C174.421 423.743 174.421 423.743 172.667 424.223C168.671 424.726 166.083 424.152 162.367 422.639C160.673 419.049 160.155 416.801 160.867 412.889C162.851 409.912 165.174 409.132 168.367 407.639C168.381 406.594 168.396 405.55 168.411 404.473C168.469 400.599 168.546 396.724 168.629 392.85C168.662 391.173 168.69 389.496 168.713 387.819C168.747 385.408 168.799 382.998 168.855 380.588C168.861 379.838 168.868 379.088 168.874 378.315C169.021 373.122 169.021 373.122 170.777 370.667C173.753 368.742 176.968 369.107 180.367 369.639C183.041 371.45 183.326 372.516 184.367 375.639C184.517 377.775 184.615 379.916 184.683 382.057C184.725 383.31 184.767 384.564 184.81 385.855C184.849 387.166 184.889 388.476 184.929 389.826C184.972 391.162 185.016 392.497 185.06 393.832C185.166 397.101 185.268 400.37 185.367 403.639C193.743 401.56 202.117 399.476 210.492 397.389C211.746 397.076 213.001 396.764 214.294 396.442C227.885 393.055 241.467 389.641 255.011 386.072C256.065 385.795 257.118 385.518 258.204 385.232C263.157 383.926 268.108 382.611 273.057 381.284C274.836 380.812 276.615 380.341 278.394 379.869C279.176 379.656 279.958 379.443 280.764 379.224C285.96 377.854 291.013 377.129 296.367 376.639C296.655 375.669 296.944 374.7 297.242 373.701C298.367 370.639 298.367 370.639 300.367 369.639C307.49 369.186 307.49 369.186 310.304 370.639C311.367 372.639 311.367 372.639 311.492 376.326C311.744 379.328 312.143 380.403 314.249 382.623C315.849 383.943 317.456 385.254 319.07 386.557C324.538 391.514 327.117 397.939 327.605 405.178C327.878 415.239 327.006 423.204 320.679 431.451C314.083 438.299 305.372 440.832 296.429 443.264C294.378 443.839 292.327 444.414 290.277 444.99C289.293 445.263 288.31 445.535 287.297 445.815C282.969 447.031 278.666 448.328 274.367 449.639C277.062 451.435 278.657 452.135 281.695 452.951C282.567 453.188 283.439 453.425 284.337 453.669C285.747 454.043 285.747 454.043 287.187 454.424C288.16 454.685 289.133 454.946 290.136 455.215C292.198 455.767 294.261 456.316 296.325 456.862C299.461 457.693 302.593 458.537 305.726 459.383C307.734 459.918 309.741 460.453 311.749 460.986C312.678 461.237 313.606 461.488 314.563 461.747C326.155 464.929 326.155 464.929 337.64 462.713C340.61 460.865 341.87 458.751 343.367 455.639C344.22 450.913 344.497 446.348 344.512 441.552C344.515 440.881 344.519 440.21 344.522 439.518C344.531 437.315 344.533 435.112 344.535 432.908C344.538 431.352 344.541 429.796 344.545 428.239C344.551 424.975 344.552 421.711 344.552 418.448C344.552 415.14 344.559 411.832 344.572 408.525C344.717 373.212 344.574 338.934 320.367 310.639C319.547 309.646 318.727 308.654 317.882 307.631C308.797 296.947 297.889 289.016 285.304 282.889C284.251 282.367 284.251 282.367 283.177 281.835C278.802 279.832 275.985 279.245 271.367 280.639C268.657 281.774 266.067 283.07 263.441 284.385C255.946 287.442 248.586 287.999 240.554 287.951C239.1 287.944 239.1 287.944 237.618 287.936C227.134 287.765 218.686 285.804 209.523 280.627C204.332 278.248 200.087 280.835 195.367 283.076ZM46.5892 338.455C35.6061 345.897 28.3841 356.69 25.3666 369.639C24.828 372.971 24.5366 376.269 24.3666 379.639C24.3253 380.415 24.2841 381.191 24.2416 381.99C24.0269 389.8 25.2018 396.523 30.3666 402.639C36.5739 407.546 42.19 408.753 50.0614 408.784C51.1563 408.79 52.2512 408.797 53.3792 408.803C54.5481 408.804 55.717 408.806 56.9213 408.807C58.1368 408.81 59.3523 408.813 60.6046 408.817C63.1716 408.822 65.7386 408.824 68.3055 408.824C72.2205 408.826 76.1352 408.844 80.0502 408.863C82.5489 408.866 85.0476 408.868 87.5462 408.869C89.2935 408.88 89.2935 408.88 91.076 408.891C99.7632 408.867 107.443 408.485 114.367 402.639C117.807 398.287 120.023 394.256 120.367 388.639C120.405 388.019 120.444 387.399 120.484 386.76C121.032 370.208 116.323 356.377 105.367 344.014C100.42 339.311 93.8394 335.712 87.3666 333.639C84.4185 334.411 84.4185 334.411 81.3666 335.639C78.3852 335.943 75.4236 335.919 72.4291 335.889C71.6563 335.896 70.8835 335.904 70.0873 335.912C66.241 335.899 63.4062 335.652 59.6986 334.447C54.264 333.128 51.2045 335.737 46.5892 338.455ZM382.589 338.455C371.606 345.897 364.384 356.69 361.367 369.639C360.828 372.971 360.537 376.269 360.367 379.639C360.325 380.415 360.284 381.191 360.242 381.99C360.033 389.573 361.148 396.001 365.882 402.1C370.666 407.06 376.437 408.451 383.16 408.772C384.596 408.778 384.596 408.778 386.061 408.784C387.156 408.79 388.251 408.797 389.379 408.803C390.548 408.804 391.717 408.806 392.921 408.807C394.137 408.81 395.352 408.813 396.605 408.817C399.172 408.822 401.739 408.824 404.306 408.824C408.221 408.826 412.135 408.844 416.05 408.863C418.549 408.866 421.048 408.868 423.546 408.869C425.293 408.88 425.293 408.88 427.076 408.891C435.763 408.867 443.443 408.485 450.367 402.639C453.807 398.287 456.023 394.256 456.367 388.639C456.405 388.019 456.444 387.399 456.484 386.76C457.032 370.208 452.323 356.377 441.367 344.014C436.42 339.311 429.839 335.712 423.367 333.639C420.419 334.411 420.419 334.411 417.367 335.639C414.385 335.943 411.424 335.919 408.429 335.889C407.656 335.896 406.883 335.904 406.087 335.912C402.241 335.899 399.406 335.652 395.699 334.447C390.264 333.128 387.204 335.737 382.589 338.455Z" fill="#FF5100"/>
<path d="M260.351 5.95934C267.703 11.7092 271.287 19.3304 273.117 28.3265C274.159 38.2415 270.721 46.8867 265.117 54.8265C258.891 61.1939 251.673 64.8166 242.657 65.0194C232.58 64.9929 224.524 63.4648 216.898 56.3422C210.57 49.3037 207.53 41.0622 207.367 31.639C207.963 22.5822 210.943 14.9808 217.48 8.56481C229.785 -1.57281 246.808 -3.05153 260.351 5.95934ZM226.992 24.264C224.788 28.8417 224.57 32.6446 225.367 37.639C227.696 42.4776 230.528 45.3093 235.367 47.639C240.361 48.4362 244.164 48.2181 248.742 46.014C252.326 42.7713 254.962 40.1743 255.75 35.2406C256.006 29.5568 255.303 25.9896 251.367 21.639C247.016 17.7028 243.449 17.0002 237.765 17.2562C232.831 18.0437 230.234 20.68 226.992 24.264Z" fill="#FF5100"/>
<path d="M52.3158 101.888C59.0797 107.052 63.1824 114.304 64.8666 122.575C66.2197 133.331 63.2568 142.127 57.1166 150.825C50.871 157.213 43.6478 160.816 34.6069 161.018C27.4097 160.999 21.5519 160.621 15.3666 156.638C14.6602 156.202 13.9538 155.766 13.226 155.317C6.32015 150.637 2.56946 144.638 0.366622 136.638C-0.627734 125.584 0.036129 115.997 6.99162 106.888C18.7119 94.2705 38.1053 92.7748 52.3158 101.888ZM21.7807 117.106C17.7154 121.9 17.0099 124.978 17.0893 131.099C17.6403 136.143 20.3717 138.738 23.9916 142.013C28.5693 144.217 32.3721 144.435 37.3666 143.638C42.2052 141.308 45.0369 138.476 47.3666 133.638C48.1638 128.643 47.9457 124.84 45.7416 120.263C42.3873 116.555 39.2622 114.256 34.4916 112.7C29.6351 112.603 25.4065 113.749 21.7807 117.106Z" fill="#FF5100"/>
<path d="M468.351 101.959C474.524 106.787 478.309 113.126 480.366 120.639C481.155 129.489 481.327 137.937 476.366 145.639C475.931 146.345 475.495 147.051 475.046 147.779C470.366 154.684 464.366 158.439 456.366 160.639C447.516 161.427 439.068 161.599 431.366 156.639C430.66 156.203 429.954 155.767 429.226 155.318C421.783 150.274 417.756 143.425 415.96 134.654C414.499 125.289 416.355 116.859 421.534 108.932C432.913 94.6904 453.2 91.8783 468.351 101.959ZM437.781 117.107C433.715 121.901 433.01 124.979 433.089 131.1C433.64 136.144 436.372 138.739 439.991 142.014C444.569 144.218 448.372 144.436 453.366 143.639C458.205 141.309 461.037 138.477 463.366 133.639C464.164 128.644 463.946 124.841 461.741 120.264C458.387 116.556 455.262 114.257 450.491 112.701C445.635 112.604 441.406 113.75 437.781 117.107Z" fill="#FF5100"/>
<path d="M193.367 47.6394C196.304 49.7019 196.304 49.7019 198.367 52.6394C198.929 56.2019 198.929 56.2019 198.367 59.6394C195.347 63.4182 191.57 65.2457 187.261 67.2214C186.558 67.5522 185.855 67.8829 185.13 68.2237C182.817 69.3084 180.498 70.3803 178.179 71.4519C176.552 72.2115 174.924 72.9718 173.297 73.7326C161.432 79.2691 149.516 84.6964 137.583 90.0869C126.231 95.2189 114.946 100.488 103.68 105.806C102.719 106.259 102.719 106.259 101.738 106.721C100.017 107.533 98.296 108.346 96.5752 109.16C84.9799 114.507 84.9799 114.507 78.3667 113.639C75.0783 110.926 74.4582 109.291 73.8667 105.077C74.4595 101.001 75.312 100.26 78.3667 97.6394C80.592 96.3217 80.592 96.3217 83.0659 95.1511C84.0102 94.7002 84.9546 94.2492 85.9275 93.7846C87.4752 93.063 87.4752 93.063 89.0542 92.3269C90.1485 91.8091 91.2429 91.2913 92.3704 90.7578C102.737 85.8776 113.175 81.1526 123.616 76.4348C132.862 72.2537 142.067 67.9934 151.248 63.6698C155.201 61.8092 159.157 59.9559 163.114 58.1026C165.875 56.809 168.634 55.5128 171.391 54.2097C173.898 53.0274 176.412 51.8616 178.929 50.7019C179.607 50.3778 180.284 50.0536 180.982 49.7197C185.257 47.7787 188.691 47.1741 193.367 47.6394Z" fill="#FF5100"/>
<path d="M294.367 47.6383C297.113 48.6376 299.599 49.6746 302.211 50.943C302.96 51.2935 303.71 51.6441 304.482 52.0052C306.95 53.1624 309.408 54.3379 311.867 55.5133C313.603 56.3314 315.341 57.148 317.079 57.9633C320.698 59.6621 324.314 61.3671 327.928 63.0763C335.627 66.7111 343.364 70.2646 351.099 73.8212C355.14 75.6803 359.177 77.5462 363.214 79.4117C368.412 81.813 373.611 84.2122 378.812 86.6074C381.433 87.815 384.053 89.025 386.672 90.2356C388.433 91.0486 390.195 91.8587 391.957 92.6688C393.003 93.1525 394.048 93.6361 395.125 94.1344C396.023 94.5487 396.922 94.9631 397.848 95.39C405.02 98.944 405.02 98.944 406.367 101.638C406.857 105.972 406.844 107.958 404.304 111.576C400.558 114.206 398.896 114.051 394.367 113.638C391.481 112.712 388.808 111.439 386.086 110.115C385.291 109.742 384.497 109.369 383.679 108.985C381.069 107.757 378.468 106.51 375.867 105.263C374.035 104.398 372.203 103.534 370.37 102.671C366.578 100.885 362.789 99.0938 359.002 97.2985C351.194 93.6042 343.347 89.9958 335.499 86.3883C333.065 85.2685 330.633 84.1454 328.201 83.0211C321.444 79.8968 314.684 76.7764 307.905 73.6995C305.271 72.5032 302.639 71.3005 300.009 70.097C298.238 69.2901 296.463 68.4926 294.688 67.6954C293.64 67.2151 292.591 66.7348 291.511 66.2399C290.607 65.8307 289.704 65.4216 288.772 65.0001C286.117 63.4968 284.321 61.9791 282.367 59.6383C281.646 55.2306 281.847 53.3789 284.429 49.7008C288.165 47.0777 289.854 47.2406 294.367 47.6383Z" fill="#FF5100"/>
<path d="M436.464 173.251C439.473 173.863 440.676 175.135 442.367 177.638C444.127 182.616 442.548 186.895 441.199 191.786C440.845 193.121 440.845 193.121 440.483 194.482C439.725 197.328 438.953 200.171 438.179 203.013C437.678 204.886 437.177 206.76 436.677 208.634C435.705 212.278 434.72 215.919 433.729 219.559C432.86 222.761 432.031 225.968 431.251 229.194C431.08 229.883 430.91 230.573 430.734 231.283C430.289 233.095 429.858 234.911 429.428 236.726C428.254 239.947 427.008 241.489 424.367 243.638C421.622 244.367 419.142 244.196 416.367 243.638C413.342 241.621 412.544 240.374 411.694 236.849C411.347 233.447 411.695 231.171 412.567 227.88C412.854 226.772 413.142 225.664 413.438 224.523C413.759 223.341 414.079 222.16 414.41 220.943C414.735 219.718 415.059 218.493 415.394 217.23C416.084 214.645 416.778 212.061 417.48 209.479C418.378 206.177 419.252 202.87 420.119 199.56C420.953 196.392 421.807 193.23 422.66 190.068C422.97 188.882 423.281 187.697 423.601 186.475C423.904 185.374 424.207 184.272 424.52 183.137C424.78 182.17 425.041 181.202 425.31 180.205C427.625 174.583 430.691 172.939 436.464 173.251Z" fill="#FF5100"/>
<path d="M50.3669 173.638C53.79 176.498 55.0633 178.865 56.2138 183.138C56.5171 184.239 56.8203 185.341 57.1327 186.475C57.4433 187.661 57.7539 188.846 58.074 190.068C58.4036 191.291 58.7333 192.514 59.0729 193.774C59.7661 196.36 60.4537 198.946 61.1323 201.536C62.0002 204.845 62.8909 208.147 63.789 211.448C64.6461 214.61 65.4842 217.776 66.324 220.943C66.6447 222.124 66.9654 223.306 67.2958 224.523C67.727 226.184 67.727 226.184 68.167 227.88C68.5519 229.334 68.5519 229.334 68.9446 230.817C69.5828 235.08 69.1833 238.397 66.8044 242.013C63.8236 244 61.8738 244.114 58.3669 244.169C55.4804 243.403 54.3082 241.877 52.3669 239.638C51.3611 237.23 51.3611 237.23 50.6435 234.522C50.3668 233.503 50.09 232.485 49.8049 231.436C49.5224 230.341 49.24 229.247 48.949 228.119C48.4949 226.421 48.4949 226.421 48.0316 224.688C47.3943 222.295 46.7634 219.9 46.1387 217.504C45.1848 213.846 44.2123 210.194 43.2361 206.542C42.6184 204.214 42.0019 201.885 41.3865 199.556C41.0979 198.467 40.8094 197.378 40.5121 196.257C36.8172 182.052 36.8172 182.052 38.6794 177.263C41.4547 172.946 45.5072 172.639 50.3669 173.638Z" fill="#FF5100"/>
<path d="M275.617 328.107C276.659 328.102 276.659 328.102 277.723 328.096C279.189 328.093 280.655 328.1 282.121 328.117C284.36 328.139 286.596 328.117 288.835 328.092C290.263 328.094 291.69 328.1 293.117 328.107C295.058 328.114 295.058 328.114 297.039 328.121C300.876 328.718 302.057 329.582 304.367 332.639C304.898 334.639 304.898 334.639 304.867 336.639C304.877 337.299 304.887 337.959 304.898 338.639C304.106 341.62 302.781 342.735 300.367 344.639C297.039 345.156 297.039 345.156 293.117 345.17C292.422 345.174 291.726 345.178 291.01 345.182C289.544 345.184 288.079 345.177 286.613 345.16C284.373 345.139 282.137 345.16 279.898 345.186C278.471 345.183 277.044 345.178 275.617 345.17C274.322 345.165 273.028 345.161 271.695 345.156C267.857 344.559 266.676 343.696 264.367 340.639C263.835 338.639 263.835 338.639 263.867 336.639C263.851 335.649 263.851 335.649 263.835 334.639C265.456 328.537 270.042 328.127 275.617 328.107Z" fill="#FF5100"/>
</svg>
