<svg width="468" height="451" viewBox="0 0 468 451" fill="none" xmlns="http://www.w3.org/2000/svg">
<path d="M323.326 182.82C348.174 205.978 361.635 238.784 362.952 272.41C363.415 297.886 357.375 324.091 342.76 345.273C341.564 347.766 341.998 348.628 342.827 351.219C344.176 353.84 345.563 356.405 347.014 358.969C347.672 360.142 347.672 360.142 348.343 361.339C352.04 367.901 355.836 374.405 359.639 380.906C361.426 383.967 363.212 387.029 364.998 390.09C366.236 392.208 367.477 394.323 368.722 396.437C370.561 399.565 372.383 402.703 374.202 405.844C374.767 406.797 375.333 407.751 375.916 408.733C380.769 417.174 380.769 417.174 379.827 422.219C377.889 425.094 377.889 425.094 374.827 427.219C365.576 427.957 356.395 425.83 347.306 424.279C345.172 423.918 343.037 423.566 340.901 423.215C339.639 423 338.376 422.785 337.075 422.564C334.197 422.258 332.477 422.151 329.827 423.219C328.043 424.969 328.043 424.969 326.389 427.281C325.707 428.168 325.025 429.055 324.323 429.969C323.937 430.474 323.552 430.979 323.154 431.5C320.474 434.97 317.709 438.372 314.952 441.781C314.38 442.496 313.808 443.211 313.22 443.947C312.68 444.616 312.14 445.284 311.585 445.973C310.86 446.875 310.86 446.875 310.12 447.795C308.002 450.127 306.7 450.233 303.514 450.594C299.723 450.208 298.738 449.743 296.226 447.047C293.017 442.853 290.647 438.101 288.139 433.469C286.904 431.222 285.667 428.976 284.428 426.73C283.821 425.627 283.215 424.524 282.589 423.388C279.377 417.611 275.998 411.935 272.62 406.254C271.643 404.601 270.685 402.935 269.827 401.219C269.158 401.34 268.489 401.461 267.799 401.586C243.795 405.775 221.797 405.56 197.827 401.219C197.267 402.24 196.708 403.261 196.131 404.312C188.92 417.411 181.428 430.342 173.827 443.219C173.332 444.108 172.837 444.997 172.326 445.913C170.827 448.219 170.827 448.219 167.827 450.219C163.961 450.648 161.709 450.812 158.432 448.609C155.404 445.831 152.998 442.854 150.514 439.594C149.78 438.676 149.78 438.676 149.031 437.74C146.757 434.879 144.825 432.216 143.108 428.973C141.241 425.674 140.171 424.058 136.827 422.219C130.294 421.789 123.791 423.32 117.433 424.668C99.2339 428.511 99.2339 428.511 92.8267 427.219C89.7642 425.094 89.7642 425.094 87.8267 422.219C87.3005 417.356 88.3633 414.526 90.7564 410.324C91.3818 409.213 92.0071 408.101 92.6514 406.956C93.3345 405.772 94.0179 404.589 94.7017 403.406C95.3978 402.181 96.093 400.956 96.7872 399.73C98.7825 396.216 100.802 392.716 102.827 389.219C103.316 388.372 103.805 387.525 104.309 386.652C108.238 379.871 112.253 373.147 116.362 366.473C116.967 365.478 117.572 364.483 118.195 363.458C119.385 361.503 120.587 359.554 121.802 357.614C122.34 356.726 122.878 355.837 123.432 354.922C123.918 354.135 124.405 353.347 124.906 352.536C126.059 349.635 125.752 348.165 124.827 345.219C123.677 343.123 122.46 341.064 121.202 339.031C111.266 322.224 105.507 302.766 104.827 283.219C104.749 281.606 104.749 281.606 104.67 279.961C103.737 243.933 117.429 211.397 141.827 185.219C191.794 134.598 271.755 136.25 323.326 182.82ZM154.827 197.219C154.223 197.758 153.62 198.296 152.999 198.852C132.759 217.672 123.357 246.195 121.643 273.102C120.869 303.597 133.384 332.745 153.993 354.839C174.686 376.187 203.925 387.808 233.452 388.406C265 387.965 293.4 375.348 315.511 352.953C335.185 332.228 345.434 304.702 346.202 276.281C345.328 243.748 332.234 215.028 308.756 192.703C287.756 173.566 258.78 163.168 230.44 163.934C200.705 166.28 176.612 176.71 154.827 197.219ZM137.827 363.219C137.267 364.24 136.708 365.261 136.131 366.312C130.363 376.788 124.409 387.14 118.299 397.42C117.718 398.405 117.136 399.391 116.538 400.406C116.015 401.287 115.492 402.167 114.953 403.074C113.672 405.11 113.672 405.11 113.827 407.219C115.869 407.076 117.91 406.93 119.952 406.781C121.089 406.7 122.226 406.619 123.397 406.535C126.583 406.241 129.673 405.746 132.827 405.219C134.676 405.039 136.532 404.912 138.389 404.844C139.298 404.795 140.207 404.746 141.143 404.695C144.986 405.445 146.271 407.288 148.827 410.219C149.322 410.777 149.817 411.335 150.327 411.91C151.929 413.727 153.505 415.563 155.077 417.406C155.618 418.035 156.16 418.663 156.717 419.31C160.7 423.965 160.7 423.965 161.827 426.219C162.487 426.219 163.147 426.219 163.827 426.219C164.431 425.138 164.431 425.138 165.048 424.035C166.561 421.33 168.075 418.626 169.588 415.922C170.559 414.188 171.529 412.455 172.499 410.721C175.585 405.207 178.678 399.697 181.827 394.219C180.678 393.613 179.53 393.007 178.346 392.383C164.329 384.871 152.633 376.18 141.092 365.273C139.213 363.107 139.213 363.107 137.827 363.219ZM328.827 363.219C327.94 364.147 327.053 365.075 326.139 366.031C314.481 377.809 300.337 386.42 285.827 394.219C291.493 405.092 297.54 415.693 303.827 426.219C307.677 423.146 310.87 420.206 313.889 416.281C314.92 414.988 314.92 414.988 315.971 413.668C317.794 411.349 317.794 411.349 319.026 409.238C320.077 407.594 320.077 407.594 322.827 405.219C330.12 403.973 337.621 405.482 344.819 406.781C347.866 407.224 350.753 407.292 353.827 407.219C352.439 403.54 350.779 400.178 348.85 396.754C348.265 395.712 347.68 394.671 347.077 393.597C346.458 392.503 345.839 391.409 345.202 390.281C344.574 389.166 343.946 388.05 343.299 386.901C338.841 378.988 334.36 371.088 329.827 363.219C329.497 363.219 329.167 363.219 328.827 363.219Z" fill="#FF5100"/>
<path d="M280.968 211.771C298.566 225.046 309.554 243.386 312.827 265.22C313.128 268.767 313.208 272.285 313.202 275.845C313.2 276.799 313.199 277.753 313.197 278.736C313.049 287.372 311.526 295.047 308.827 303.22C308.538 304.137 308.249 305.055 307.952 306.001C301.132 325.242 285.485 338.994 268.077 348.532C248.849 357.544 226.803 357.817 206.827 351.22C205.45 350.786 205.45 350.786 204.046 350.345C184.815 343.529 170.985 327.857 161.514 310.407C153.091 292.363 151.844 270.909 157.51 251.817C165.167 230.893 178.968 214.567 198.827 204.22C226.044 192.551 256.69 194.239 280.968 211.771ZM188.827 233.22C188.189 233.834 187.551 234.449 186.893 235.083C175.712 246.712 171.3 262.589 171.405 278.359C171.955 295.518 178.836 309.188 190.827 321.22C191.442 321.858 192.057 322.496 192.69 323.153C204.32 334.334 220.197 338.746 235.967 338.642C253.125 338.091 266.795 331.21 278.827 319.22C279.465 318.605 280.103 317.99 280.76 317.356C291.942 305.727 296.353 289.85 296.249 274.08C295.698 256.921 288.817 243.251 276.827 231.22C276.212 230.581 275.597 229.943 274.963 229.286C263.334 218.105 247.457 213.693 231.687 213.797C214.528 214.348 200.858 221.229 188.827 233.22Z" fill="#FF5100"/>
<path d="M236.827 0.219223C241.25 3.11617 243.132 6.14972 245.377 10.8833C245.681 11.5166 245.985 12.1498 246.298 12.8023C246.933 14.1325 247.562 15.4656 248.185 16.8013C249.142 18.8506 250.116 20.8908 251.094 22.9302C255.827 32.8854 255.827 32.8854 255.827 35.2192C256.927 35.3497 258.026 35.4803 259.16 35.6147C263.247 36.1044 267.331 36.6166 271.415 37.1357C273.182 37.3571 274.949 37.5723 276.717 37.7812C279.261 38.083 281.801 38.4067 284.342 38.7348C285.525 38.8679 285.525 38.8679 286.732 39.0037C290.174 39.4676 292.507 39.9807 295.314 42.0776C297.165 44.6982 297.571 46.8766 297.405 50.0747C296.239 54.3976 292.955 57.1765 289.827 60.2192C289.252 60.8173 288.677 61.4155 288.084 62.0317C284.491 65.7415 280.685 69.1361 276.721 72.4458C274.371 74.6462 272.563 76.4773 270.827 79.2192C270.927 82.0488 271.207 84.2521 271.819 86.9692C271.962 87.705 272.106 88.4407 272.254 89.1987C272.714 91.544 273.205 93.8813 273.702 96.2192C274.188 98.5575 274.666 100.897 275.128 103.24C275.416 104.695 275.718 106.148 276.036 107.597C277.071 112.76 276.426 115.642 273.702 120.032C270.642 121.969 267.31 121.62 263.827 121.219C260.443 119.826 260.443 119.826 257.131 117.903C256.535 117.568 255.939 117.232 255.325 116.887C253.441 115.826 251.57 114.744 249.702 113.657C247.23 112.22 244.748 110.805 242.256 109.403C241.166 108.769 240.075 108.136 238.951 107.483C235.242 105.983 233.627 106.073 229.827 107.219C226.826 108.599 226.826 108.599 223.834 110.379C222.717 111.008 221.599 111.636 220.448 112.284C218.698 113.28 216.951 114.282 215.209 115.293C203.007 122.337 203.007 122.337 195.827 121.219C193.327 119.844 193.327 119.844 191.827 117.219C191.028 111.408 191.993 106.055 193.448 100.426C197.151 87.9755 197.151 87.9755 195.72 75.5303C192.492 70.9649 188.328 67.6791 183.745 64.5381C181.344 62.8872 179.223 60.9987 177.077 59.0317C176.504 58.5638 175.932 58.0959 175.342 57.6138C172.959 55.4208 171.091 53.4397 170.393 50.2192C170.392 49.5592 170.39 48.8992 170.389 48.2192C170.37 47.5592 170.35 46.8992 170.331 46.2192C171.075 43.2167 172.419 42.1513 174.827 40.2192C177.478 39.533 179.856 39.0697 182.549 38.7348C183.291 38.6295 184.033 38.5242 184.797 38.4157C187.16 38.0845 189.524 37.7768 191.889 37.4692C193.484 37.2481 195.078 37.0254 196.672 36.8013C208.09 35.2192 208.09 35.2192 211.827 35.2192C212.102 34.3512 212.378 33.4832 212.661 32.5889C214.571 27.067 217.138 21.8685 219.639 16.5942C220.161 15.4624 220.682 14.3306 221.219 13.1645C221.736 12.0766 222.252 10.9886 222.784 9.86766C223.479 8.38532 223.479 8.38532 224.189 6.87303C227.348 1.75321 230.747 -0.794106 236.827 0.219223ZM232.827 29.2192C232.457 30.059 232.457 30.059 232.08 30.9158C230.949 33.4617 229.794 35.9965 228.639 38.5317C228.058 39.8533 228.058 39.8533 227.465 41.2016C225.86 44.6919 224.516 47.5702 221.702 50.2192C217.23 51.7747 212.7 52.3308 208.014 52.9067C207.035 53.0363 206.056 53.1658 205.047 53.2993C202.642 53.6162 200.235 53.9224 197.827 54.2192C201.209 58.3009 204.588 62.088 208.639 65.5317C213.712 69.8568 213.712 69.8568 213.995 73.2153C214.04 78.9208 213.436 84.1895 212.264 89.7739C211.709 92.4614 211.709 92.4614 211.827 96.2192C217.607 94.4956 222.421 91.7057 227.608 88.6802C231.219 87.0413 232.919 86.6068 236.827 87.2192C239.871 88.5035 242.71 90.0819 245.577 91.7192C247.09 92.5664 248.606 93.4103 250.124 94.2505C250.787 94.6275 251.451 95.0046 252.134 95.3931C253.812 96.3655 253.812 96.3655 255.827 96.2192C255.215 90.2265 255.215 90.2265 254.264 84.2817C252.663 73.0738 252.663 73.0738 255.827 68.0317C256.792 67.0583 257.797 66.1236 258.827 65.2192C259.489 64.6327 260.152 64.0462 260.834 63.4419C262.195 62.2545 263.569 61.0825 264.959 59.9302C266.878 58.1721 268.295 56.315 269.827 54.2192C269.126 54.1399 268.425 54.0607 267.703 53.979C264.509 53.5963 261.326 53.1585 258.139 52.7192C257.036 52.5955 255.934 52.4717 254.797 52.3442C246.84 51.1903 246.84 51.1903 244.058 48.5239C242.746 46.4726 241.763 44.4647 240.827 42.2192C240.227 41.0105 239.627 39.8021 239.026 38.5942C238.527 37.4805 238.028 36.3667 237.514 35.2192C237.002 34.0848 236.491 32.9505 235.963 31.7817C235.588 30.9361 235.213 30.0905 234.827 29.2192C234.167 29.2192 233.507 29.2192 232.827 29.2192Z" fill="#FF5100"/>
<path d="M406.389 72.4853C411.259 74.9422 412.572 78.1521 414.827 82.9697C415.213 83.7496 415.6 84.5295 415.999 85.333C416.594 86.5376 416.594 86.5376 417.202 87.7666C417.84 89.0344 417.84 89.0344 418.491 90.3279C419.827 93.2197 419.827 93.2197 421.096 96.8713C422.577 100.869 424.081 103.907 426.827 107.22C432.436 109.57 437.932 109.997 443.952 110.407C446.28 110.624 448.606 110.858 450.932 111.102C452.371 111.247 453.813 111.373 455.256 111.477C459.509 111.83 462.403 112.64 465.827 115.22C467.446 118.458 467.42 121.72 466.827 125.22C465.133 127.622 463.758 129.237 461.647 131.181C461.119 131.697 460.591 132.214 460.047 132.746C458.367 134.382 456.66 135.988 454.952 137.595C453.811 138.696 452.671 139.799 451.534 140.903C449.452 142.919 447.362 144.925 445.257 146.916C443.763 148.333 442.282 149.764 440.827 151.22C441.105 153.683 441.496 155.973 442.014 158.388C442.303 159.853 442.592 161.319 442.881 162.784C443.35 165.091 443.825 167.397 444.304 169.702C444.763 171.928 445.202 174.157 445.639 176.388C445.787 177.067 445.935 177.747 446.087 178.447C447.018 183.249 446.589 186.671 444.827 191.22C442.577 193.22 442.577 193.22 439.827 194.22C435.278 193.801 431.895 192.471 427.877 190.349C426.782 189.774 425.687 189.2 424.559 188.608C423.431 188.006 422.302 187.403 421.139 186.782C419.999 186.183 418.859 185.585 417.684 184.968C409.373 180.584 409.373 180.584 405.827 178.22C401.629 178.546 398.493 180.308 394.862 182.345C393.732 182.969 392.602 183.593 391.438 184.235C389.661 185.227 387.887 186.221 386.113 187.218C384.388 188.184 382.656 189.14 380.924 190.095C379.898 190.67 378.872 191.245 377.815 191.837C374.719 193.27 372.222 193.952 368.827 194.22C363.215 191.996 363.215 191.996 361.827 189.22C361.361 181.346 362.824 174.102 364.389 166.407C364.877 164.006 365.358 161.604 365.831 159.2C366.045 158.147 366.26 157.094 366.481 156.009C366.816 153.309 366.791 151.736 365.827 149.22C364.033 147.024 364.033 147.024 361.764 144.907C360.951 144.12 360.137 143.332 359.299 142.52C356.504 139.92 353.647 137.407 350.752 134.919C340.981 126.297 340.981 126.297 340.577 120.845C340.849 116.891 341.016 115.891 343.827 113.22C346.506 112.476 348.909 111.974 351.639 111.595C352.393 111.477 353.147 111.359 353.924 111.238C355.473 110.999 357.023 110.768 358.574 110.544C360.658 110.244 362.736 109.922 364.815 109.591C370.56 108.708 376.003 108.124 381.827 108.22C382.098 107.361 382.37 106.503 382.65 105.619C384.466 100.374 386.833 95.4107 389.202 90.3962C389.786 89.1519 390.362 87.9038 390.93 86.6521C391.757 84.829 392.612 83.0183 393.467 81.208C393.968 80.1307 394.468 79.0535 394.984 77.9436C397.965 73.5367 401.131 72.0933 406.389 72.4853ZM403.827 101.22C403.013 102.865 403.013 102.865 402.182 104.544C401.46 105.998 400.737 107.453 400.014 108.907C399.658 109.628 399.301 110.35 398.934 111.093C398.231 112.505 397.519 113.912 396.797 115.315C395.992 116.895 395.24 118.502 394.502 120.114C391.36 124.062 386.689 124.095 381.932 124.782C379.307 125.075 376.682 125.367 374.057 125.657C370.749 125.914 370.749 125.914 368.827 128.22C369.281 128.616 369.735 129.013 370.204 129.422C382.972 140.768 382.972 140.768 384.893 146.278C384.889 149.111 384.518 151.474 383.827 154.22C383.469 156.198 383.115 158.177 382.764 160.157C382.567 161.032 382.37 161.908 382.167 162.81C381.812 165.323 382.148 166.811 382.827 169.22C384.528 168.245 384.528 168.245 386.264 167.251C387.785 166.406 389.305 165.563 390.827 164.72C391.57 164.29 392.314 163.861 393.081 163.419C398.034 160.705 402.165 158.992 407.827 160.22C410.975 161.451 413.845 163.025 416.764 164.72C418.273 165.565 419.782 166.408 421.292 167.251C421.948 167.628 422.604 168.005 423.28 168.394C424.681 169.298 424.681 169.298 425.827 169.22C425.261 162.099 425.261 162.099 424.264 155.032C422.824 145.775 422.824 145.775 425.143 142.177C426.952 140.084 428.842 138.146 430.827 136.22C431.471 135.564 432.116 134.907 432.78 134.231C434.445 132.542 436.129 130.877 437.827 129.22C438.487 128.56 439.147 127.9 439.827 127.22C438.432 126.924 437.036 126.633 435.639 126.345C434.736 126.158 433.832 125.971 432.901 125.778C430.748 125.387 428.581 125.073 426.409 124.817C425.268 124.682 424.127 124.547 422.952 124.407C421.347 124.243 421.347 124.243 419.709 124.075C415.87 122.936 414.961 121.594 412.827 118.22C411.301 115.329 409.924 112.385 408.577 109.407C408.213 108.619 407.85 107.831 407.475 107.019C406.586 105.088 405.706 103.154 404.827 101.22C404.497 101.22 404.167 101.22 403.827 101.22Z" fill="#FF5100"/>
<path d="M69.8265 74.219C71.5232 76.4885 72.6029 78.2633 73.764 80.7815C74.0875 81.4347 74.4111 82.0878 74.7444 82.7608C75.7965 84.9025 76.8114 87.0596 77.8265 89.219C78.5868 90.7874 79.3485 92.3551 80.1116 93.9221C85.8265 105.775 85.8265 105.775 85.8265 108.219C86.5097 108.256 87.1929 108.294 87.8968 108.332C95.4356 108.824 102.9 109.67 110.389 110.657C111.353 110.779 112.316 110.901 113.309 111.027C114.224 111.151 115.138 111.275 116.08 111.403C116.898 111.511 117.716 111.62 118.559 111.732C121.774 112.422 124.137 113.254 126.076 115.969C127.133 119.139 127.406 120.871 126.826 124.219C124.824 127.206 122.354 129.673 119.826 132.219C119.031 133.04 118.236 133.861 117.416 134.707C112.916 139.291 108.338 143.632 103.323 147.649C101.484 149.578 101.224 150.589 100.826 153.219C101.145 156.088 101.145 156.088 101.823 159.199C102.051 160.364 102.28 161.529 102.516 162.729C103.011 165.161 103.505 167.593 104 170.026C107.32 186.921 107.32 186.921 104.201 191.719C101.225 193.599 99.3544 194.015 95.8265 194.219C93.156 193.19 90.8745 192.143 88.389 190.782C87.7003 190.423 87.0116 190.064 86.3021 189.694C82.7003 187.806 79.1421 185.843 75.5882 183.867C74.9139 183.497 74.2397 183.126 73.545 182.744C72.2563 182.032 70.9742 181.308 69.6998 180.571C66.5371 178.707 66.5371 178.707 62.9896 178.454C60.2168 179.435 57.7111 180.72 55.1077 182.09C53.4622 182.952 53.4622 182.952 51.7835 183.83C50.6427 184.433 49.5019 185.036 48.3265 185.657C46.0661 186.843 43.8057 188.029 41.5452 189.215C40.5443 189.743 39.5433 190.271 38.512 190.814C37.1827 191.51 37.1827 191.51 35.8265 192.219C34.7524 192.811 34.7524 192.811 33.6565 193.415C30.7646 194.686 28.8 194.086 25.8265 193.219C23.4515 191.782 23.4515 191.782 21.8265 189.219C20.9823 183.41 22.0007 178.045 23.4827 172.426C27.2487 159.978 27.2487 159.978 25.6541 147.578C22.1728 143.02 17.6991 139.809 12.951 136.662C8.01044 133.306 2.06848 128.752 0.0491273 123.008C-0.231521 119.325 0.68328 117.395 2.97344 114.574C6.28416 111.841 8.18996 111.378 12.4124 110.856C13.6731 110.691 14.9338 110.527 16.2327 110.358C17.5424 110.209 18.8521 110.06 20.2015 109.907C21.5034 109.738 22.8054 109.57 24.1468 109.397C30.0869 108.654 35.8334 108.134 41.8265 108.219C41.9277 107.529 42.029 106.839 42.1334 106.128C42.9571 102.671 44.3234 99.8535 45.9163 96.6761C46.2209 96.0664 46.5255 95.4567 46.8393 94.8286C47.4812 93.5472 48.1259 92.2673 48.7735 90.9888C49.7643 89.0309 50.7443 87.0678 51.723 85.1038C57.3659 73.8682 57.3659 73.8682 60.514 72.469C64.0849 72.083 66.4964 72.9007 69.8265 74.219ZM62.8265 102.219C62.534 102.784 62.2416 103.349 61.9402 103.931C60.6145 106.488 59.2831 109.041 57.9515 111.594C57.4913 112.483 57.0311 113.373 56.5569 114.289C56.1122 115.14 55.6675 115.991 55.2093 116.867C54.8008 117.653 54.3923 118.439 53.9715 119.248C52.8265 121.219 52.8265 121.219 50.8265 123.219C48.6717 123.721 48.6717 123.721 46.0374 124.071C45.0964 124.199 44.1554 124.328 43.1858 124.461C42.201 124.588 41.2162 124.714 40.2015 124.844C39.2089 124.978 38.2163 125.112 37.1937 125.25C34.7388 125.581 32.2832 125.903 29.8265 126.219C29.518 129.144 29.518 129.144 31.004 130.721C31.5422 131.237 32.0805 131.754 32.6351 132.285C33.5081 133.137 33.5081 133.137 34.3987 134.006C35.0143 134.592 35.6298 135.178 36.264 135.782C37.4731 136.947 38.6802 138.115 39.8851 139.285C40.6942 140.058 40.6942 140.058 41.5196 140.846C44.317 143.785 44.0261 146.657 43.9944 150.574C43.7555 154.337 43.0397 157.956 42.264 161.641C41.8264 164.22 41.7514 166.609 41.8265 169.219C42.9583 168.653 44.0901 168.087 45.2562 167.504C61.5661 159.349 61.5661 159.349 67.8265 160.219C71.0071 161.419 73.8863 163.022 76.8265 164.719C77.6012 165.148 78.3759 165.578 79.1741 166.02C81.0667 167.071 82.9478 168.143 84.8265 169.219C86.3568 164.628 84.8213 160.276 83.8538 155.643C82.2708 147.521 82.2708 147.521 83.8265 143.219C86.1229 140.35 88.7154 137.859 91.389 135.344C92.0999 134.656 92.8108 133.967 93.5433 133.258C95.2936 131.567 97.0544 129.888 98.8265 128.219C96.4633 125.856 95.6324 125.87 92.3968 125.508C91.08 125.342 91.08 125.342 89.7366 125.172C87.8885 124.954 86.0395 124.743 84.1898 124.539C77.5304 123.681 77.5304 123.681 74.4593 121.664C72.0846 118.108 70.3214 114.366 68.5765 110.469C68.213 109.676 67.8494 108.883 67.4749 108.067C66.5841 106.121 65.7042 104.171 64.8265 102.219C64.1665 102.219 63.5065 102.219 62.8265 102.219Z" fill="#FF5100"/>
<path d="M267.827 252.218C270.891 254.261 271.648 255.659 272.764 259.156C272.857 263.729 270.724 266.188 267.78 269.566C266.997 270.372 266.213 271.178 265.406 272.008C264.515 272.929 263.623 273.85 262.704 274.798C261.733 275.789 260.761 276.779 259.788 277.769C259.294 278.272 258.801 278.775 258.292 279.293C255.681 281.951 253.064 284.602 250.441 287.249C247.743 289.975 245.07 292.727 242.403 295.484C240.339 297.609 238.254 299.713 236.164 301.812C235.17 302.818 234.184 303.831 233.206 304.852C224.61 313.8 224.61 313.8 218.845 314.041C216.266 313.717 215.031 313.359 212.875 311.877C212.484 311.239 212.093 310.602 211.69 309.945C211.223 309.213 210.756 308.481 210.274 307.727C209.797 306.899 209.319 306.071 208.827 305.218C208.278 304.321 207.729 303.423 207.164 302.498C205.396 299.557 203.699 296.583 202.014 293.593C201.43 292.583 200.845 291.572 200.243 290.531C199.686 289.548 199.13 288.566 198.557 287.554C198.056 286.673 197.555 285.792 197.038 284.884C195.701 281.941 195.116 279.433 194.827 276.218C196.063 273.355 197.158 271.725 199.639 269.843C202.74 268.957 204.743 269.319 207.827 270.218C212.344 273.955 214.806 279.058 217.647 284.081C218.656 285.824 219.736 287.525 220.827 289.218C222.931 289.439 222.931 289.439 224.418 287.813C225.361 286.828 225.361 286.828 226.323 285.822C227.038 285.081 227.753 284.34 228.489 283.577C229.65 282.363 229.65 282.363 230.834 281.124C232.477 279.437 234.12 277.751 235.764 276.066C238.361 273.395 240.951 270.719 243.525 268.026C246.006 265.436 248.511 262.873 251.022 260.312C252.165 259.098 252.165 259.098 253.33 257.859C258.196 252.947 260.852 251.042 267.827 252.218Z" fill="#FF5100"/>
</svg>
