<svg width="95" height="91" viewBox="0 0 95 91" fill="none" xmlns="http://www.w3.org/2000/svg">
<path d="M94.4191 45.1232C94.4191 69.7677 73.3946 89.7461 47.4596 89.7461C21.5245 89.7461 0.5 69.7677 0.5 45.1232C0.5 20.4788 21.5245 0.500373 47.4596 0.500373C73.3946 0.500373 94.4191 20.4788 94.4191 45.1232Z" stroke="#432D1C" stroke-miterlimit="10"/>
<path d="M55.613 32.8804C55.5026 33.171 55.8296 34.4528 55.5537 34.4528H55.4807H14.8178C13.7525 34.4528 12.348 35.8297 12.0287 36.7495C11.2395 39.0239 12.8356 41.0128 15.2873 41.1961C19.1107 41.4818 23.6198 40.7903 27.3574 41.2041C31.9107 41.708 33.3431 47.8359 29.4322 50.2239C28.9532 50.5163 27.5414 51.0762 27.0149 51.0762H8.95622C8.9321 50.9038 8.95666 50.8138 9.06707 50.6759C9.12039 50.6094 10.3016 49.6131 10.3826 49.5647C10.5238 49.4807 11.9935 49.4767 12.0885 49.509C12.7927 49.7489 22.0432 49.501 26.5463 49.5074C30.6263 49.513 31.3912 43.7665 27.435 42.8154C23.4273 42.4744 19.0178 43.0973 15.0565 42.7628C10.2271 42.3547 8.41216 36.8096 12.152 33.9461C12.6617 33.5559 14.0757 32.8804 14.6994 32.8804H55.613Z" fill="#432D1C"/>
<path d="M85.6912 32.8804V50.9076C85.4635 50.9498 85.1516 50.9851 84.7834 50.9605C84.4232 50.9364 84.1254 50.8626 83.9088 50.7923L83.9143 35.4643L72.8428 45.2334L61.6522 35.4637V50.9076C61.4039 50.938 61.1502 50.9662 60.8911 50.9919C60.5444 51.0261 60.2059 51.0539 59.876 51.0762V32.8804C60.3691 32.9361 61.0524 32.7518 61.4811 32.9864L72.8428 43.0994L84.086 32.9866C84.517 32.752 85.1967 32.9359 85.6912 32.8804Z" fill="#422D1B"/>
<path d="M55.6126 49.0545C55.7507 49.3221 55.8551 51.0762 55.5533 51.0762H35.0078V49.2229C35.0078 49.2111 35.1729 49.0545 35.1855 49.0545H55.6126Z" fill="white"/>
<path d="M55.6126 40.9666C55.7239 41.3017 55.9055 42.9883 55.4349 42.9883H35.1855C35.1558 42.9658 35.1242 42.9393 35.0919 42.9086C35.0596 42.8779 35.0317 42.8478 35.0078 42.8199V40.9666H55.6126Z" fill="white"/>
<path d="M35.0078 42.8208L35.1855 42.9883H35.0078" fill="white"/>
<path d="M55.7422 40.9666V42.9883H55.4351V40.9666" fill="white"/>
<path d="M35.0078 49.2227V49.0552H35.3271" fill="white"/>
<path d="M55.7483 51.0762V49.0545H55.6127L55.458 51.0762H55.7483Z" fill="white"/>
<path d="M55.742 34.4531V32.8803H55.4805L55.5026 34.4527" fill="#432D1C"/>
<path d="M59.876 32.8646V32.901L61.1721 33.1953L61.4811 32.9874L59.876 32.8646Z" fill="#432D1C"/>
<path d="M61.4811 32.9863L61.3553 32.8642L59.876 32.881" fill="#432D1C"/>
<path d="M84.0859 32.9863L84.2302 32.864L85.6911 32.8808" fill="#432D1C"/>
<path d="M59.876 51.0762H61.6508L61.6522 50.9087" fill="#432D1C"/>
<path d="M83.9087 50.7933V51.0771L85.6911 51.0918V50.9087" fill="#432D1C"/>
<path d="M8.50781 51.0762L10.4254 49.509L24.469 49.5166L23.3663 51.0762" fill="#432D1C"/>
<path d="M9.45673 56.6482C9.45673 56.7486 9.47553 56.8343 9.51377 56.9045C9.55331 56.9753 9.60711 57.0338 9.67452 57.0794C9.74323 57.1238 9.82231 57.157 9.91046 57.178C9.99991 57.1977 10.0971 57.2075 10.2009 57.2075C10.313 57.2075 10.4089 57.1964 10.4887 57.173C10.5677 57.1502 10.6319 57.1207 10.6805 57.0843C10.7304 57.0468 10.7661 57.0043 10.7868 56.9562C10.8089 56.9088 10.8205 56.8614 10.8205 56.8133C10.8205 56.7135 10.7952 56.6396 10.7453 56.5916C10.6948 56.5442 10.6397 56.5103 10.5794 56.4906C10.4757 56.4561 10.3545 56.424 10.2164 56.3945C10.0777 56.3637 9.90657 56.323 9.70304 56.2738C9.57664 56.2442 9.47229 56.206 9.38932 56.158C9.30635 56.1105 9.23958 56.0569 9.18967 55.9978C9.14106 55.9387 9.1067 55.8765 9.08596 55.8106C9.06522 55.7453 9.05485 55.6775 9.05485 55.6085C9.05485 55.4773 9.08467 55.3634 9.1456 55.2661C9.20782 55.1694 9.28949 55.0899 9.39191 55.0271C9.49368 54.963 9.60841 54.9162 9.73675 54.8867C9.86444 54.8559 9.99408 54.8398 10.1257 54.8398C10.2793 54.8398 10.4238 54.8583 10.5587 54.894C10.6948 54.9285 10.814 54.9815 10.9165 55.0517C11.0202 55.1226 11.1012 55.2106 11.1602 55.3154C11.2205 55.4188 11.2509 55.5389 11.2509 55.6751H10.7376C10.7252 55.5063 10.6611 55.3868 10.5457 55.3178C10.4316 55.2476 10.2851 55.2119 10.1075 55.2119C10.0466 55.2119 9.98436 55.218 9.92083 55.2291C9.85861 55.2408 9.80157 55.2599 9.74971 55.2858C9.69786 55.3104 9.65443 55.3449 9.62007 55.3893C9.58507 55.4336 9.56822 55.489 9.56822 55.5543C9.56822 55.6467 9.59998 55.7194 9.66415 55.7736C9.72767 55.8266 9.81259 55.866 9.91824 55.8919C9.92861 55.8937 9.97075 55.9042 10.0453 55.9239C10.1211 55.9424 10.206 55.9627 10.2994 55.9855C10.3927 56.0071 10.4835 56.0286 10.5716 56.0496C10.6611 56.0693 10.7252 56.084 10.7635 56.0939C10.8581 56.1204 10.9411 56.1573 11.0124 56.2048C11.085 56.251 11.1446 56.3046 11.1913 56.3649C11.2393 56.424 11.2749 56.4881 11.2976 56.5571C11.3216 56.6248 11.3339 56.6926 11.3339 56.7616C11.3339 56.9082 11.3002 57.0338 11.2328 57.1385C11.1667 57.242 11.0785 57.327 10.9683 57.3923C10.8594 57.4582 10.735 57.5056 10.595 57.5352C10.4549 57.566 10.3123 57.582 10.1671 57.582C10.0012 57.582 9.8437 57.5635 9.69526 57.5278C9.54812 57.4921 9.41913 57.436 9.30894 57.3603C9.20004 57.2833 9.11254 57.1853 9.04707 57.0671C8.98095 56.9488 8.9466 56.8096 8.94336 56.6482H9.45673ZM13.7951 55.2119C13.6395 55.2119 13.5047 55.2408 13.3906 55.2981C13.2765 55.3542 13.1838 55.4299 13.1132 55.5248C13.0419 55.6184 12.9894 55.7256 12.955 55.8451C12.92 55.9633 12.9032 56.0853 12.9032 56.2097C12.9032 56.3347 12.92 56.4573 12.955 56.5768C12.9894 56.6969 13.0419 56.8047 13.1132 56.8996C13.1838 56.9932 13.2765 57.0683 13.3906 57.1238C13.5047 57.1798 13.6395 57.2075 13.7951 57.2075C13.9507 57.2075 14.0855 57.1798 14.1996 57.1238C14.3136 57.0683 14.4057 56.9932 14.477 56.8996C14.5476 56.8047 14.6001 56.6969 14.6351 56.5768C14.6695 56.4573 14.687 56.3347 14.687 56.2097C14.687 56.0853 14.6695 55.9633 14.6351 55.8451C14.6001 55.7256 14.5476 55.6184 14.477 55.5248C14.4057 55.4299 14.3136 55.3542 14.1996 55.2981C14.0855 55.2408 13.9507 55.2119 13.7951 55.2119ZM13.7951 54.8398C14.0142 54.8398 14.2106 54.8768 14.3836 54.9507C14.558 55.0234 14.7051 55.1219 14.8244 55.2464C14.945 55.3714 15.0377 55.5168 15.1018 55.6825C15.1673 55.8488 15.2004 56.0243 15.2004 56.2097C15.2004 56.3988 15.1673 56.5768 15.1018 56.7443C15.0377 56.9106 14.945 57.056 14.8244 57.1804C14.7051 57.3036 14.558 57.4015 14.3836 57.4736C14.2106 57.5457 14.0142 57.582 13.7951 57.582C13.5753 57.582 13.3783 57.5457 13.2039 57.4736C13.0309 57.4015 12.8837 57.3036 12.7632 57.1804C12.6439 57.056 12.5512 56.9106 12.4857 56.7443C12.4216 56.5768 12.3898 56.3988 12.3898 56.2097C12.3898 56.0243 12.4216 55.8488 12.4857 55.6825C12.5512 55.5168 12.6439 55.3714 12.7632 55.2464C12.8837 55.1219 13.0309 55.0234 13.2039 54.9507C13.3783 54.8768 13.5753 54.8398 13.7951 54.8398ZM16.4008 54.9014H16.9142V56.4265C16.9142 56.5152 16.9181 56.6051 16.9272 56.6951C16.9375 56.7856 16.9648 56.8669 17.0101 56.939C17.0548 57.0117 17.1229 57.0714 17.215 57.1188C17.3063 57.165 17.436 57.1878 17.6039 57.1878C17.7698 57.1878 17.8981 57.165 17.9902 57.1188C18.0835 57.0714 18.1522 57.0117 18.1976 56.939C18.2423 56.8669 18.2689 56.7856 18.278 56.6951C18.2884 56.6051 18.2935 56.5152 18.2935 56.4265V54.9014H18.8069V56.5768C18.8069 56.7462 18.7771 56.8934 18.7188 57.0178C18.6617 57.1428 18.58 57.2482 18.475 57.3332C18.3694 57.4169 18.2423 57.4798 18.0939 57.5204C17.9468 57.5611 17.7834 57.582 17.6039 57.582C17.4224 57.582 17.2571 57.5611 17.1086 57.5204C16.9615 57.4798 16.8351 57.4169 16.7301 57.3332C16.6244 57.2482 16.5434 57.1428 16.4864 57.0178C16.4293 56.8934 16.4008 56.7462 16.4008 56.5768V54.9014ZM19.8849 54.9014H22.2572V55.2981H21.3264V57.5204H20.8131V55.2981H19.8849V54.9014ZM23.352 54.9014H23.8654V55.9436H25.1981V54.9014H25.7115V57.5204H25.1981V56.3403H23.8654V57.5204H23.352V54.9014ZM27.0928 54.9014H29.2059V55.2981H27.6061V55.983H29.0866V56.3575H27.6061V57.1238H29.2344V57.5204H27.0928V54.9014ZM30.4452 54.9014H31.8479C32.1694 54.9014 32.4105 54.9643 32.5713 55.0887C32.7333 55.2137 32.815 55.3868 32.815 55.6085C32.815 55.7336 32.7943 55.8371 32.7528 55.919C32.7126 56.0015 32.6653 56.068 32.6102 56.1185C32.5544 56.1678 32.5 56.2042 32.4468 56.2269C32.395 56.2485 32.3561 56.2627 32.3302 56.2688V56.2762C32.3749 56.2811 32.4222 56.2935 32.4728 56.3132C32.5227 56.3329 32.5694 56.3643 32.6128 56.4068C32.6575 56.4499 32.6938 56.5053 32.7217 56.5743C32.7508 56.6433 32.7658 56.7289 32.7658 56.8306C32.7658 56.9852 32.7787 57.1256 32.8046 57.2519C32.8306 57.3769 32.8708 57.4662 32.9265 57.5204H32.3768C32.3386 57.465 32.3159 57.4022 32.3094 57.3332C32.3023 57.2642 32.2991 57.1989 32.2991 57.1361C32.2991 57.0166 32.29 56.9131 32.2731 56.8256C32.2576 56.7388 32.2271 56.6667 32.1824 56.6088C32.1389 56.5515 32.0793 56.5097 32.0035 56.4832C31.9289 56.4555 31.833 56.4413 31.7157 56.4413H30.9586V57.5204H30.4452L30.4452 54.9014ZM30.9586 56.0939H31.8012C31.9652 56.0939 32.0897 56.0594 32.1746 55.9904C32.2589 55.9202 32.3017 55.8149 32.3017 55.6751C32.3017 55.5913 32.2874 55.5235 32.2602 55.4706C32.2342 55.4182 32.1966 55.3782 32.1487 55.3498C32.1001 55.3203 32.045 55.3006 31.9827 55.2907C31.9218 55.2809 31.8589 55.2759 31.7935 55.2759H30.9586V56.0939ZM34.0809 54.9014H34.6254L35.9633 56.8306H35.9711V54.9014H36.4611V57.5204H35.9192L34.5839 55.5938H34.571V57.5204H34.0809L34.0809 54.9014Z" fill="#432D1C"/>
<path d="M39.7373 54.9014H41.8504V55.2981H40.2507V55.983H41.7311V56.3575H40.2507V57.1238H41.8789V57.5204H39.7373V54.9014ZM43.0898 54.9014H44.3058C44.53 54.9014 44.7245 54.9359 44.8891 55.0049C45.0531 55.0727 45.1873 55.1663 45.291 55.2858C45.396 55.404 45.4738 55.5432 45.5244 55.7022C45.5743 55.8598 45.5996 56.0292 45.5996 56.2097C45.5996 56.392 45.5743 56.5632 45.5244 56.7222C45.4738 56.8798 45.396 57.019 45.291 57.1385C45.1873 57.2568 45.0531 57.3504 44.8891 57.4194C44.7245 57.4872 44.53 57.5204 44.3058 57.5204H43.0898V54.9014ZM43.6031 57.1459H44.1087C44.309 57.1459 44.4724 57.1225 44.5988 57.0745C44.7264 57.0271 44.8269 56.9611 44.8995 56.8774C44.9721 56.7924 45.0214 56.6926 45.0473 56.5793C45.0732 56.4659 45.0862 56.3427 45.0862 56.2097C45.0862 56.0785 45.0732 55.9559 45.0473 55.8426C45.0214 55.7293 44.9721 55.6307 44.8995 55.5469C44.8269 55.4619 44.7264 55.3954 44.5988 55.3474C44.4724 55.3 44.309 55.2759 44.1087 55.2759H43.6031V57.1459ZM49.3792 57.5204H49.0499L48.9721 57.2124C48.8353 57.3523 48.6986 57.449 48.5625 57.5032C48.4257 57.5555 48.2682 57.582 48.0906 57.582C47.8708 57.582 47.6738 57.5457 47.4994 57.4736C47.3264 57.4015 47.1792 57.3036 47.0586 57.1804C46.9394 57.056 46.8467 56.9106 46.7812 56.7443C46.7171 56.5768 46.6853 56.3988 46.6853 56.2097C46.6853 56.0243 46.7171 55.8488 46.7812 55.6825C46.8467 55.5168 46.9394 55.3714 47.0586 55.2464C47.1792 55.1219 47.3264 55.0234 47.4994 54.9507C47.6738 54.8768 47.8708 54.8398 48.0906 54.8398C48.2494 54.8398 48.4004 54.8589 48.5443 54.8965C48.6876 54.9347 48.8153 54.9914 48.928 55.0665C49.0402 55.1404 49.1329 55.234 49.2055 55.3474C49.2794 55.4595 49.3273 55.5882 49.3481 55.7342H48.8451C48.8308 55.6492 48.8016 55.574 48.7569 55.51C48.7115 55.4447 48.6545 55.3893 48.5858 55.3449C48.5184 55.3006 48.4419 55.2679 48.3576 55.2464C48.2727 55.2236 48.1839 55.2119 48.0906 55.2119C47.935 55.2119 47.8002 55.2408 47.6861 55.2981C47.572 55.3542 47.4793 55.4299 47.4087 55.5248C47.3374 55.6184 47.2849 55.7256 47.2505 55.8451C47.2155 55.9633 47.1987 56.0853 47.1987 56.2097C47.1987 56.3347 47.2155 56.4573 47.2505 56.5768C47.2849 56.6969 47.3374 56.8047 47.4087 56.8996C47.4793 56.9932 47.572 57.0683 47.6861 57.1238C47.8002 57.1798 47.935 57.2075 48.0906 57.2075C48.2215 57.2112 48.3375 57.1964 48.438 57.1632C48.5398 57.1305 48.6253 57.0831 48.6947 57.0203C48.7653 56.9581 48.8178 56.8817 48.8528 56.7911C48.8891 56.7012 48.9086 56.6008 48.9125 56.4906H48.1321V56.1407H49.3792V57.5204ZM50.7021 54.9014H52.8153V55.2981H51.2155V55.983H52.696V56.3575H51.2155V57.1238H52.8438V57.5204H50.7021V54.9014Z" fill="white"/>
<path d="M55.9536 54.9014H56.677L57.4859 56.9513H57.4937L58.2819 54.9014H58.9975V57.5204H58.5075V55.5001H58.4997L57.6882 57.5204H57.2656L56.4514 55.5001H56.4436V57.5204H55.9536V54.9014ZM61.1631 54.9014H61.7102L62.8381 57.5204H62.2884L62.0136 56.8281H60.8416L60.5668 57.5204H60.0379L61.1631 54.9014ZM60.9816 56.4782H61.8787L61.438 55.3523H61.425L60.9816 56.4782ZM63.8817 54.9014H65.2844C65.6059 54.9014 65.847 54.9643 66.0077 55.0887C66.1698 55.2137 66.2515 55.3868 66.2515 55.6085C66.2515 55.7336 66.2307 55.8371 66.1892 55.919C66.149 56.0015 66.1017 56.068 66.0466 56.1185C65.9909 56.1678 65.9364 56.2042 65.8833 56.2269C65.8314 56.2485 65.7925 56.2627 65.7666 56.2688V56.2762C65.8113 56.2811 65.8587 56.2935 65.9092 56.3132C65.9591 56.3329 66.0058 56.3643 66.0492 56.4068C66.0939 56.4499 66.1302 56.5053 66.1581 56.5743C66.1873 56.6433 66.2022 56.7289 66.2022 56.8306C66.2022 56.9852 66.2152 57.1256 66.2411 57.2519C66.267 57.3769 66.3072 57.4662 66.3629 57.5204H65.8133C65.775 57.465 65.7524 57.4022 65.7459 57.3332C65.7387 57.2642 65.7355 57.1989 65.7355 57.1361C65.7355 57.0166 65.7264 56.9131 65.7096 56.8256C65.694 56.7388 65.6635 56.6667 65.6188 56.6088C65.5754 56.5515 65.5158 56.5097 65.4399 56.4832C65.3654 56.4555 65.2694 56.4413 65.1521 56.4413H64.395V57.5204H63.8817V54.9014ZM64.395 56.0939H65.2377C65.4017 56.0939 65.5261 56.0594 65.611 55.9904C65.6953 55.9202 65.7381 55.8149 65.7381 55.6751C65.7381 55.5913 65.7238 55.5235 65.6966 55.4706C65.6707 55.4182 65.6331 55.3782 65.5851 55.3498C65.5365 55.3203 65.4814 55.3006 65.4192 55.2907C65.3582 55.2809 65.2954 55.2759 65.2299 55.2759H64.395V56.0939ZM67.5381 54.9014H68.0515V56.0939L69.3583 54.9014H69.9909L68.8215 55.9461L70.0739 57.5204H69.4334L68.4715 56.2688L68.0515 56.6409V57.5204H67.5381V54.9014ZM71.1162 54.9014H73.2293V55.2981H71.6295V55.983H73.11V56.3575H71.6295V57.1238H73.2578V57.5204H71.1162V54.9014ZM74.1912 54.9014H76.5636V55.2981H75.6328V57.5204H75.1194V55.2981H74.1912V54.9014ZM77.6687 54.9014H78.1821V57.5204H77.6687V54.9014ZM79.5543 54.9014H80.0988L81.4367 56.8306H81.4445V54.9014H81.9345V57.5204H81.3926L80.0573 55.5938H80.0444V57.5204H79.5543V54.9014ZM85.8645 57.5204H85.5352L85.4574 57.2124C85.3207 57.3523 85.1839 57.449 85.0478 57.5032C84.911 57.5555 84.7535 57.582 84.5759 57.582C84.3561 57.582 84.1591 57.5457 83.9847 57.4736C83.8117 57.4015 83.6645 57.3036 83.544 57.1804C83.4247 57.056 83.332 56.9106 83.2665 56.7443C83.2024 56.5768 83.1706 56.3988 83.1706 56.2097C83.1706 56.0243 83.2024 55.8488 83.2665 55.6825C83.332 55.5168 83.4247 55.3714 83.544 55.2464C83.6645 55.1219 83.8117 55.0234 83.9847 54.9507C84.1591 54.8768 84.3561 54.8398 84.5759 54.8398C84.7347 54.8398 84.8857 54.8589 85.0296 54.8965C85.1729 54.9347 85.3006 54.9914 85.4134 55.0665C85.5255 55.1404 85.6182 55.234 85.6908 55.3474C85.7647 55.4595 85.8126 55.5882 85.8334 55.7342H85.3304C85.3161 55.6492 85.287 55.574 85.2422 55.51C85.1969 55.4447 85.1398 55.3893 85.0711 55.3449C85.0037 55.3006 84.9272 55.2679 84.8429 55.2464C84.758 55.2236 84.6692 55.2119 84.5759 55.2119C84.4203 55.2119 84.2855 55.2408 84.1714 55.2981C84.0573 55.3542 83.9646 55.4299 83.894 55.5248C83.8227 55.6184 83.7702 55.7256 83.7358 55.8451C83.7008 55.9633 83.684 56.0853 83.684 56.2097C83.684 56.3347 83.7008 56.4573 83.7358 56.5768C83.7702 56.6969 83.8227 56.8047 83.894 56.8996C83.9646 56.9932 84.0573 57.0683 84.1714 57.1238C84.2855 57.1798 84.4203 57.2075 84.5759 57.2075C84.7068 57.2112 84.8228 57.1964 84.9233 57.1632C85.0251 57.1305 85.1106 57.0831 85.18 57.0203C85.2507 56.9581 85.3032 56.8817 85.3382 56.7911C85.3745 56.7012 85.3939 56.6008 85.3978 56.4906H84.6174V56.1407H85.8645V57.5204Z" fill="#432D1C"/>
</svg>
