<svg width="751" height="255" viewBox="0 0 751 255" fill="none" xmlns="http://www.w3.org/2000/svg">
<path d="M40.5204 167.714C53.2471 167.872 67.1857 167.951 83.1324 167.951C97.9911 167.951 113.118 167.884 127.746 167.82C142.296 167.758 157.343 167.691 172.042 167.691L178.915 167.696C197.583 167.696 207.655 153.72 209.38 139.87C211.094 126.108 204.824 110.199 186.967 105.575C179.102 104.879 170.448 104.54 160.52 104.54C149.735 104.54 138.602 104.938 127.835 105.323C117.076 105.707 105.951 106.104 95.1764 106.104C85.2244 106.104 76.5524 105.764 68.6671 105.063C46.0057 103.048 27.9564 88.7176 21.5631 67.663C15.2764 46.959 22.1204 25.4377 39.4217 11.4963C44.3604 7.51899 58.4311 0.169669 65.4844 0.169669H457.206L459.714 3.74167C459.492 4.53767 459.798 7.68699 459.998 9.77099C460.53 15.267 460.752 18.463 459.148 20.2297C458.494 20.9497 457.603 21.347 456.639 21.347H66.6191C59.4484 21.347 45.9337 32.0843 42.4471 42.6563C39.2431 52.371 40.3164 61.987 45.4657 69.731C50.9071 77.911 60.3311 83.099 71.3217 83.963C77.4137 84.443 84.0391 84.675 91.5777 84.675C102.616 84.675 114.211 84.167 125.424 83.675C136.698 83.1803 148.356 82.6697 159.522 82.6697C170 82.6697 178.984 83.123 186.986 84.055C207.754 86.4737 224.428 102.087 229.464 123.832C234.631 146.143 226.199 168.123 207.983 179.827C203.246 182.871 189.18 188.838 183.398 188.838H10.4964L7.85373 186.522C7.52839 184.088 7.95906 182.463 9.43773 180.522C15.0297 173.187 22.7364 168.684 22.7364 168.684" fill="white"/>
<path d="M457.206 2.83599C456.15 5.76266 459.279 18.68 456.639 18.68H455.939H66.6178C56.4178 18.68 42.9712 32.552 39.9152 41.82C32.3592 64.736 47.6392 84.776 71.1125 86.6226C107.72 89.5013 150.891 82.5347 186.678 86.7027C230.271 91.7813 243.987 153.523 206.542 177.584C201.956 180.531 188.438 186.171 183.398 186.171H10.4965C10.2658 184.433 10.5005 183.527 11.5592 182.139C12.0698 181.468 133.114 170.296 178.911 170.364C217.974 170.421 225.296 112.521 187.419 102.937C149.047 99.5013 106.83 105.779 68.9045 102.407C22.6645 98.296 5.28715 42.4253 41.0951 13.5733C45.9738 9.64265 59.5125 2.83599 65.4845 2.83599H457.206Z" fill="white"/>
<path d="M495.356 186.171V2.83603L498.337 0.18804C498.865 0.250707 499.467 0.281363 500.175 0.281363C501.217 0.281363 502.328 0.216042 503.505 0.148042C504.747 0.0747085 506.031 3.16002e-05 507.305 3.16002e-05C509.303 3.16002e-05 512.244 0.165375 514.723 1.59337L515.215 1.95871L622.161 102.137L728.492 1.59203C731.759 1.92003 734.099 1.49737 735.656 1.03203C736.996 0.630701 738.004 0.125366 739.708 0.146699C740.583 0.158699 741.389 0.281363 743.035 0.281363C743.743 0.281363 744.345 0.250707 744.875 0.18804L747.853 2.83603V184.473L745.697 187.089C743.44 187.532 741.129 187.753 738.828 187.753C738.02 187.753 737.179 187.727 736.307 187.665C733.225 187.448 730.181 186.832 727.26 185.833L725.455 183.309L725.504 34.988L623.987 129.256L620.367 129.265L517.696 34.936V184.473L515.372 187.117C512.949 187.429 510.476 187.719 508.017 187.975C504.781 188.309 501.484 188.599 498.212 188.831L495.356 186.171Z" fill="white"/>
<path d="M745.186 2.83599V184.473C743.006 184.899 740.019 185.255 736.494 185.005C733.046 184.761 730.195 184.019 728.121 183.311L728.174 28.8707L622.171 127.301L515.029 28.8653V184.473C512.651 184.78 510.222 185.064 507.741 185.321C504.422 185.667 501.181 185.947 498.022 186.171V2.83599C502.743 3.39732 509.285 1.53865 513.391 3.90398L622.171 105.8L729.818 3.90532C733.943 1.54133 740.451 3.39466 745.186 2.83599Z" fill="white"/>
<path d="M259.928 188.837L257.261 186.171V167.497C257.261 165.907 260.037 163.133 261.628 163.133H457.205L459.6 164.627C460.821 167.119 461.104 174.552 461.132 175.391C461.329 181.264 460.845 185.179 459.693 187.027C458.976 188.177 457.863 188.837 456.64 188.837H259.928Z" fill="#E5BFA1"/>
<path d="M457.206 165.8C458.527 168.497 459.529 186.171 456.639 186.171H259.929V167.497C259.929 167.377 261.509 165.8 261.629 165.8H457.206Z" fill="#E5BFA1"/>
<path d="M261.628 107.355L259.956 106.766C259.606 106.484 259.232 106.155 258.85 105.772C258.467 105.39 258.139 105.019 257.856 104.671L257.262 102.991V84.3175L259.928 81.6509H457.206L459.748 83.5162C460.534 86.0055 462.638 100.66 459.154 105.415C458.236 106.666 456.94 107.355 455.506 107.355H261.628Z" fill="#E5BFA1"/>
<path d="M457.206 84.3179C458.271 87.6939 460.011 104.689 455.505 104.689H261.629C261.346 104.461 261.043 104.194 260.734 103.885C260.423 103.575 260.157 103.274 259.929 102.991V84.3179H457.206Z" fill="#E5BFA1"/>
<path d="M259.928 102.991L261.628 104.688H259.928" fill="#F2DECC"/>
<path d="M461.383 81.6512V107.355H454.071V81.6512" fill="#E5BFA1"/>
<path d="M259.928 167.497V165.8H262.984" fill="#F2DECC"/>
<path d="M461.172 188.837V163.133H456.841L451.912 188.837H461.172Z" fill="#E5BFA1"/>
<path d="M458.444 18.6835V2.83547H455.939L456.152 18.6795" fill="#432D1C"/>
<path d="M498.022 2.66702V3.03236L510.431 5.99902L513.391 3.90436L498.022 2.66702Z" fill="white"/>
<path d="M513.391 3.90466L512.186 2.66733L498.022 2.83666" fill="white"/>
<path d="M729.818 3.90601L731.2 2.66734L745.186 2.83667" fill="white"/>
<path d="M498.022 186.17H515.015L515.029 184.473" fill="white"/>
<path d="M728.121 183.31V186.17L745.186 186.318V184.473" fill="white"/>
<path d="M257.261 188.837V184.608H261.456V188.831" fill="#E5BFA1"/>
<path d="M257.261 163.133V167.497H266.144L261.628 163.133" fill="#E5BFA1"/>
<path d="M257.261 107.355H263.228V98.7002L257.261 102.991" fill="#E5BFA1"/>
<path d="M257.261 81.6512V85.8058L262.1 86.6925L260.779 81.6512" fill="#E5BFA1"/>
<path d="M38.6069 167.951L51.0989 177.697Z" fill="white"/>
<path d="M1.34277 188.831L20.6894 167.951H43.4801L12.3854 188.831" fill="white"/>
<path d="M0 188.831L20.6893 167.951L31.0907 188.831" fill="white"/>
<path d="M461.175 0.000136058L461.099 21.3468H450.793L451.645 0.170803" fill="white"/>
<path d="M514.723 1.59388L513.026 0.000547896H495.356V2.83655" fill="white"/>
<path d="M728.491 1.59195L729.994 0.169288L744.874 0.187954L747.853 0.169288V3.28662" fill="white"/>
<path d="M725.379 188.831L725.455 181.838H747.852V188.831" fill="white"/>
<path d="M495.356 188.837V186.171L517.696 183.463V188.831" fill="white"/>
<path d="M6.29834 244.676C6.29834 245.707 6.48584 246.59 6.86084 247.316C7.23584 248.047 7.75537 248.644 8.42334 249.113C9.0874 249.574 9.85303 249.906 10.7202 250.113C11.5952 250.324 12.5366 250.426 13.5483 250.426C14.6421 250.426 15.5718 250.312 16.3452 250.082C17.1147 249.844 17.7397 249.535 18.2202 249.16C18.6968 248.785 19.0405 248.355 19.2515 247.863C19.4702 247.375 19.5796 246.879 19.5796 246.379C19.5796 245.348 19.3335 244.59 18.8452 244.098C18.353 243.609 17.814 243.266 17.2202 243.066C16.2085 242.715 15.0327 242.379 13.689 242.066C12.3452 241.754 10.6812 241.348 8.70459 240.848C7.47412 240.547 6.45459 240.152 5.64209 239.66C4.82959 239.172 4.18115 238.629 3.70459 238.035C3.22412 237.433 2.88428 236.793 2.68896 236.113C2.48975 235.437 2.39209 234.746 2.39209 234.035C2.39209 232.691 2.68896 231.527 3.28271 230.535C3.88428 229.535 4.67725 228.715 5.65771 228.066C6.646 227.41 7.76709 226.926 9.01709 226.613C10.2749 226.301 11.5483 226.144 12.8296 226.144C14.3179 226.144 15.7241 226.328 17.0483 226.691C18.3687 227.058 19.5327 227.605 20.5327 228.332C21.5327 229.062 22.3218 229.957 22.9077 231.019C23.4897 232.082 23.7827 233.316 23.7827 234.723H18.7827C18.646 232.996 18.0171 231.777 16.8921 231.066C15.7749 230.348 14.353 229.988 12.6265 229.988C12.0405 229.988 11.4429 230.047 10.8296 230.16C10.2124 230.266 9.6499 230.453 9.14209 230.723C8.64209 230.984 8.22412 231.34 7.89209 231.785C7.55615 232.234 7.39209 232.797 7.39209 233.473C7.39209 234.433 7.70459 235.183 8.32959 235.723C8.95459 236.254 9.771 236.66 10.7827 236.941C10.8843 236.965 11.3022 237.066 12.0327 237.254C12.771 237.441 13.5952 237.652 14.5015 237.879C15.4077 238.109 16.2905 238.328 17.1577 238.535C18.0327 238.746 18.6577 238.902 19.0327 239.004C19.9585 239.285 20.7671 239.668 21.4546 240.144C22.1499 240.613 22.7358 241.156 23.2046 241.769C23.6733 242.387 24.0171 243.047 24.2358 243.754C24.4624 244.453 24.5796 245.152 24.5796 245.848C24.5796 247.348 24.2515 248.637 23.5952 249.707C22.9468 250.769 22.0874 251.641 21.0171 252.316C19.9546 252.996 18.7397 253.488 17.3765 253.801C16.021 254.113 14.6343 254.269 13.2202 254.269C11.5952 254.269 10.064 254.082 8.62647 253.707C7.18897 253.332 5.93115 252.762 4.86084 251.988C3.79834 251.207 2.94287 250.207 2.29834 248.988C1.66162 247.769 1.32959 246.332 1.29834 244.676H6.29834ZM48.5483 229.988C47.0249 229.988 45.7085 230.277 44.5952 230.848C43.4897 231.422 42.5874 232.191 41.8921 233.16C41.2046 234.129 40.6929 235.23 40.3608 236.457C40.0249 237.676 39.8608 238.926 39.8608 240.207C39.8608 241.488 40.0249 242.746 40.3608 243.973C40.6929 245.203 41.2046 246.301 41.8921 247.269C42.5874 248.23 43.4897 248.996 44.5952 249.566C45.7085 250.141 47.0249 250.426 48.5483 250.426C50.0679 250.426 51.3804 250.141 52.4858 249.566C53.5874 248.996 54.4858 248.23 55.1733 247.269C55.8687 246.301 56.3843 245.203 56.7202 243.973C57.0522 242.746 57.2202 241.488 57.2202 240.207C57.2202 238.926 57.0522 237.676 56.7202 236.457C56.3843 235.23 55.8687 234.129 55.1733 233.16C54.4858 232.191 53.5874 231.422 52.4858 230.848C51.3804 230.277 50.0679 229.988 48.5483 229.988ZM48.5483 226.144C50.6812 226.144 52.5952 226.527 54.2827 227.285C55.978 228.035 57.4116 229.051 58.5796 230.332C59.7554 231.605 60.6577 233.094 61.2827 234.801C61.9077 236.5 62.2202 238.301 62.2202 240.207C62.2202 242.137 61.9077 243.953 61.2827 245.66C60.6577 247.371 59.7554 248.863 58.5796 250.144C57.4116 251.418 55.978 252.422 54.2827 253.16C52.5952 253.898 50.6812 254.269 48.5483 254.269C46.4116 254.269 44.4937 253.898 42.7983 253.16C41.1108 252.422 39.6772 251.418 38.5015 250.144C37.3335 248.863 36.4312 247.371 35.7983 245.66C35.1733 243.953 34.8608 242.137 34.8608 240.207C34.8608 238.301 35.1733 236.5 35.7983 234.801C36.4312 233.094 37.3335 231.605 38.5015 230.332C39.6772 229.051 41.1108 228.035 42.7983 227.285C44.4937 226.527 46.4116 226.144 48.5483 226.144ZM73.9077 226.785H78.9077V242.426C78.9077 243.332 78.9546 244.25 79.0483 245.176C79.1421 246.105 79.4077 246.937 79.8452 247.676C80.2827 248.418 80.9468 249.027 81.8452 249.504C82.7397 249.973 84.0015 250.207 85.6265 250.207C87.2515 250.207 88.5093 249.973 89.4077 249.504C90.3022 249.027 90.9702 248.418 91.4077 247.676C91.8452 246.937 92.1108 246.105 92.2046 245.176C92.2983 244.25 92.3452 243.332 92.3452 242.426V226.785H97.3452V243.973C97.3452 245.703 97.064 247.207 96.5015 248.488C95.9468 249.762 95.1577 250.828 94.1265 251.691C93.103 252.558 91.8687 253.203 90.4233 253.629C88.9858 254.055 87.3843 254.269 85.6265 254.269C83.8648 254.269 82.2671 254.055 80.8296 253.629C79.3921 253.203 78.1577 252.558 77.1265 251.691C76.103 250.828 75.314 249.762 74.7515 248.488C74.189 247.207 73.9077 245.703 73.9077 243.973V226.785ZM107.818 226.785H130.943V230.848H121.865V253.629H116.865V230.848H107.818V226.785ZM141.587 226.785H146.587V237.457H159.587V226.785H164.587V253.629H159.587V241.519H146.587V253.629H141.587V226.785ZM178.033 226.785H198.58V230.848H183.033V237.879H197.423V241.707H183.033V249.566H198.861V253.629H178.033V226.785ZM210.673 226.785H224.314C227.458 226.785 229.818 227.426 231.392 228.707C232.962 229.988 233.751 231.766 233.751 234.035C233.751 235.316 233.548 236.379 233.142 237.223C232.744 238.058 232.275 238.734 231.736 239.254C231.205 239.766 230.677 240.137 230.158 240.363C229.646 240.582 229.271 240.734 229.033 240.816V240.879C229.458 240.933 229.916 241.062 230.408 241.269C230.896 241.469 231.353 241.785 231.783 242.223C232.208 242.66 232.564 243.234 232.845 243.941C233.126 244.641 233.267 245.516 233.267 246.566C233.267 248.141 233.392 249.574 233.642 250.863C233.9 252.156 234.298 253.078 234.83 253.629H229.47C229.095 253.058 228.869 252.422 228.798 251.723C228.736 251.016 228.705 250.332 228.705 249.676C228.705 248.449 228.619 247.391 228.455 246.504C228.298 245.621 228.005 244.887 227.58 244.301C227.15 243.707 226.572 243.277 225.845 243.004C225.115 242.723 224.177 242.582 223.033 242.582H215.673V253.629H210.673L210.673 226.785ZM215.673 239.004H223.861C225.462 239.004 226.677 238.652 227.501 237.941C228.333 237.223 228.751 236.152 228.751 234.723C228.751 233.871 228.615 233.176 228.345 232.644C228.072 232.105 227.705 231.683 227.236 231.379C226.775 231.078 226.244 230.879 225.642 230.785C225.048 230.683 224.427 230.629 223.783 230.629H215.673V239.004ZM246.072 226.785H251.353L264.384 246.566H264.462V226.785H269.228V253.629H263.947L250.947 233.894H250.822V253.629H246.072V226.785Z" fill="white"/>
<path d="M301.154 226.785H321.701V230.848H306.154V237.879H320.544V241.707H306.154V249.566H321.982V253.629H301.154V226.785ZM333.794 226.785H345.623C347.81 226.785 349.701 227.141 351.294 227.848C352.896 228.547 354.205 229.504 355.216 230.723C356.236 231.933 356.99 233.355 357.482 234.988C357.982 236.613 358.232 238.355 358.232 240.207C358.232 242.062 357.982 243.808 357.482 245.441C356.99 247.066 356.236 248.488 355.216 249.707C354.205 250.918 352.896 251.875 351.294 252.582C349.701 253.281 347.81 253.629 345.623 253.629H333.794V226.785ZM338.794 249.801H343.701C345.646 249.801 347.24 249.558 348.482 249.066C349.72 248.578 350.693 247.902 351.404 247.035C352.111 246.172 352.591 245.156 352.841 243.988C353.099 242.824 353.232 241.562 353.232 240.207C353.232 238.855 353.099 237.594 352.841 236.426C352.591 235.262 352.111 234.246 351.404 233.379C350.693 232.516 349.72 231.844 348.482 231.363C347.24 230.875 345.646 230.629 343.701 230.629H338.794V249.801ZM395.021 253.629H391.833L391.068 250.473C389.732 251.902 388.4 252.891 387.068 253.441C385.732 253.992 384.201 254.269 382.474 254.269C380.337 254.269 378.419 253.898 376.724 253.16C375.037 252.422 373.603 251.418 372.427 250.144C371.248 248.863 370.349 247.371 369.724 245.66C369.099 243.953 368.787 242.137 368.787 240.207C368.787 238.301 369.099 236.5 369.724 234.801C370.349 233.094 371.248 231.605 372.427 230.332C373.603 229.051 375.037 228.035 376.724 227.285C378.419 226.527 380.337 226.144 382.474 226.144C384.013 226.144 385.482 226.344 386.88 226.738C388.287 227.125 389.537 227.703 390.63 228.473C391.724 229.234 392.63 230.191 393.349 231.348C394.068 232.496 394.521 233.816 394.708 235.316H389.833C389.697 234.441 389.404 233.676 388.958 233.019C388.521 232.355 387.966 231.797 387.302 231.348C386.634 230.891 385.888 230.551 385.068 230.332C384.244 230.105 383.38 229.988 382.474 229.988C380.951 229.988 379.634 230.277 378.521 230.848C377.416 231.422 376.513 232.191 375.818 233.16C375.13 234.129 374.619 235.23 374.287 236.457C373.951 237.676 373.787 238.926 373.787 240.207C373.787 241.488 373.951 242.746 374.287 243.973C374.619 245.203 375.13 246.301 375.818 247.269C376.513 248.23 377.416 248.996 378.521 249.566C379.634 250.141 380.951 250.426 382.474 250.426C383.744 250.457 384.873 250.308 385.865 249.973C386.853 249.629 387.685 249.141 388.365 248.504C389.041 247.859 389.552 247.074 389.896 246.144C390.248 245.219 390.443 244.191 390.474 243.066H382.865V239.488H395.021V253.629ZM407.916 226.785H428.462V230.848H412.916V237.879H427.306V241.707H412.916V249.566H428.744V253.629H407.916V226.785Z" fill="#E5BFA1"/>
<path d="M459.021 226.785H466.068L473.943 247.801H474.021L481.708 226.785H488.662V253.629H483.912V232.91H483.833L475.912 253.629H471.787L463.865 232.91H463.787V253.629H459.021V226.785ZM509.755 226.785H515.068L526.068 253.629H520.708L518.021 246.519H506.63L503.943 253.629H498.787L509.755 226.785ZM507.99 242.957H516.708L512.427 231.41H512.302L507.99 242.957ZM536.236 226.785H549.876C553.021 226.785 555.38 227.426 556.955 228.707C558.525 229.988 559.314 231.766 559.314 234.035C559.314 235.316 559.111 236.379 558.705 237.223C558.306 238.058 557.837 238.734 557.298 239.254C556.767 239.766 556.24 240.137 555.72 240.363C555.208 240.582 554.833 240.734 554.595 240.816V240.879C555.021 240.933 555.478 241.062 555.97 241.269C556.458 241.469 556.916 241.785 557.345 242.223C557.771 242.66 558.126 243.234 558.408 243.941C558.689 244.641 558.83 245.516 558.83 246.566C558.83 248.141 558.955 249.574 559.205 250.863C559.462 252.156 559.861 253.078 560.392 253.629H555.033C554.658 253.058 554.431 252.422 554.361 251.723C554.298 251.016 554.267 250.332 554.267 249.676C554.267 248.449 554.181 247.391 554.017 246.504C553.861 245.621 553.568 244.887 553.142 244.301C552.712 243.707 552.134 243.277 551.408 243.004C550.677 242.723 549.74 242.582 548.595 242.582H541.236V253.629H536.236L536.236 226.785ZM541.236 239.004H549.423C551.025 239.004 552.24 238.652 553.064 237.941C553.896 237.223 554.314 236.152 554.314 234.723C554.314 233.871 554.177 233.176 553.908 232.644C553.634 232.105 553.267 231.683 552.798 231.379C552.337 231.078 551.806 230.879 551.205 230.785C550.611 230.683 549.99 230.629 549.345 230.629H541.236V239.004ZM571.833 226.785H576.833V239.004L589.552 226.785H595.709L584.302 237.504L596.505 253.629H590.271L580.912 240.816L576.833 244.613V253.629H571.833V226.785ZM606.673 226.785H627.22V230.848H611.673V237.879H626.064V241.707H611.673V249.566H627.501V253.629H606.673V226.785ZM636.58 226.785H659.705V230.848H650.626V253.629H645.626V230.848H636.58V226.785ZM670.474 226.785H675.474V253.629H670.474V226.785ZM688.83 226.785H694.111L707.142 246.566H707.22V226.785H711.986V253.629H706.705L693.705 233.894H693.58V253.629H688.83L688.83 226.785ZM750.259 253.629H747.072L746.306 250.473C744.97 251.902 743.638 252.891 742.306 253.441C740.97 253.992 739.439 254.269 737.712 254.269C735.576 254.269 733.658 253.898 731.962 253.16C730.275 252.422 728.841 251.418 727.666 250.144C726.486 248.863 725.587 247.371 724.962 245.66C724.337 243.953 724.025 242.137 724.025 240.207C724.025 238.301 724.337 236.5 724.962 234.801C725.587 233.094 726.486 231.605 727.666 230.332C728.841 229.051 730.275 228.035 731.962 227.285C733.658 226.527 735.576 226.144 737.712 226.144C739.251 226.144 740.72 226.344 742.119 226.738C743.525 227.125 744.775 227.703 745.869 228.473C746.962 229.234 747.869 230.191 748.587 231.348C749.306 232.496 749.759 233.816 749.947 235.316H745.072C744.935 234.441 744.642 233.676 744.197 233.019C743.759 232.355 743.205 231.797 742.541 231.348C741.873 230.891 741.126 230.551 740.306 230.332C739.482 230.105 738.619 229.988 737.712 229.988C736.189 229.988 734.873 230.277 733.759 230.848C732.654 231.422 731.751 232.191 731.056 233.16C730.369 234.129 729.857 235.23 729.525 236.457C729.189 237.676 729.025 238.926 729.025 240.207C729.025 241.488 729.189 242.746 729.525 243.973C729.857 245.203 730.369 246.301 731.056 247.269C731.751 248.23 732.654 248.996 733.759 249.566C734.873 250.141 736.189 250.426 737.712 250.426C738.982 250.457 740.111 250.308 741.103 249.973C742.091 249.629 742.923 249.141 743.603 248.504C744.279 247.859 744.791 247.074 745.134 246.144C745.486 245.219 745.681 244.191 745.712 243.066H738.103V239.488H750.259V253.629Z" fill="white"/>
</svg>
