<svg width="1000" height="1000" viewBox="0 0 1000 1000" fill="none" xmlns="http://www.w3.org/2000/svg">
<path d="M499.607 0.00326767C501.865 0.00626065 504.124 0.00450598 506.382 0.00140385C508.163 -0.000503529 509.943 0.000128289 511.723 0.00147052C512.555 0.00181137 513.387 0.00141776 514.219 0.000176893C522.025 -0.00893356 529.806 0.334033 537.585 0.990408C538.031 1.02736 538.477 1.06431 538.936 1.10238C540.366 1.22288 541.796 1.34725 543.226 1.47341C543.728 1.51768 544.23 1.56196 544.747 1.60758C568.653 3.74801 592.361 7.73885 615.745 13.1143C616.641 13.3152 617.538 13.5157 618.435 13.7155C622.794 14.6982 627.069 15.889 631.346 17.178C633.297 17.7625 635.26 18.2812 637.233 18.788C642.481 20.179 647.633 21.8447 652.787 23.5487C653.132 23.6628 653.478 23.7769 653.833 23.8944C687.724 35.1104 720.8 49.2068 751.49 67.5458C752.917 68.3927 754.352 69.2242 755.79 70.051C763.066 74.2519 770.04 78.8545 776.994 83.5602C778.592 84.6371 780.198 85.6988 781.808 86.7561C790.394 92.4077 798.559 98.6618 806.694 104.937C807.052 105.213 807.411 105.489 807.779 105.773C811.659 108.771 815.442 111.862 819.169 115.047C820.664 116.322 822.186 117.561 823.715 118.795C826.201 120.818 828.573 122.944 830.932 125.113C832.035 126.122 833.149 127.111 834.28 128.088C838.763 131.993 843.075 136.063 847.252 140.294C848.31 141.337 849.391 142.317 850.519 143.283C854.11 146.366 857.372 149.76 860.444 153.355C861.777 154.836 863.188 156.23 864.605 157.631C866.643 159.646 868.607 161.683 870.466 163.867C871.593 165.173 872.762 166.437 873.931 167.706C876.054 170.035 878.066 172.428 880.045 174.88C881.456 176.602 882.908 178.284 884.365 179.967C887.188 183.239 889.877 186.6 892.521 190.018C893.358 191.095 894.2 192.167 895.044 193.238C899.305 198.659 903.399 204.179 907.386 209.803C907.682 210.218 907.978 210.634 908.283 211.062C912.854 217.49 917.236 224.019 921.473 230.671C921.777 231.147 922.082 231.623 922.395 232.113C930.739 245.178 938.299 258.672 945.472 272.409C945.757 272.956 946.043 273.502 946.337 274.065C952.898 286.714 958.58 299.792 964.058 312.94C964.298 313.515 964.538 314.089 964.786 314.681C966.54 318.946 968.084 323.271 969.598 327.625C970.235 329.447 970.888 331.263 971.539 333.079C975.586 344.394 979.27 355.717 982.224 367.372C982.669 369.117 983.135 370.855 983.628 372.587C985.281 378.392 986.685 384.223 987.959 390.122C988.06 390.585 988.161 391.049 988.264 391.526C992.494 411.028 995.732 430.623 997.774 450.478C997.834 451.047 997.834 451.047 997.896 451.628C999.546 467.415 999.899 483.262 999.833 499.121C999.827 500.846 999.827 502.571 999.827 504.296C999.827 517.638 999.301 530.805 998.068 544.094C997.983 545.009 997.983 545.009 997.898 545.941C996.862 557.076 995.413 568.106 993.641 579.145C993.384 580.761 993.142 582.38 992.899 583.998C991.788 591.321 990.365 598.554 988.774 605.788C988.638 606.416 988.501 607.045 988.36 607.692C985.846 619.233 983.103 630.7 979.451 641.941C978.562 644.685 977.781 647.446 977.036 650.232C976.172 653.418 975.173 656.499 973.972 659.578C973.076 661.884 972.239 664.203 971.437 666.544C964.97 685.354 957.196 703.772 948.154 721.493C947.251 723.264 946.372 725.045 945.496 726.829C941.909 734.118 938.118 741.22 933.994 748.217C933.33 749.353 932.666 750.489 932.003 751.625C925.579 762.579 918.827 773.278 911.56 783.694C911.301 784.067 911.041 784.44 910.774 784.824C903.772 794.876 896.48 804.692 888.69 814.147C887.944 815.053 887.202 815.962 886.464 816.874C881.627 822.846 876.549 828.609 871.388 834.301C871.033 834.698 870.679 835.094 870.313 835.503C864.378 842.147 858.242 848.577 851.933 854.867C850.833 855.964 849.735 857.065 848.638 858.165C847.924 858.879 847.21 859.592 846.496 860.305C846.175 860.627 845.854 860.949 845.524 861.28C843.573 863.221 841.561 865.064 839.475 866.86C837.931 868.202 836.453 869.613 834.965 871.017C832.332 873.483 829.633 875.817 826.815 878.072C825.489 879.158 824.227 880.291 822.965 881.451C820.639 883.571 818.207 885.512 815.721 887.438C813.769 888.953 811.868 890.51 809.988 892.114C806.158 895.329 802.11 898.241 798.068 901.182C796.832 902.087 795.605 903.002 794.381 903.922C788.327 908.459 782.099 912.694 775.773 916.842C774.544 917.647 773.318 918.457 772.094 919.268C756.232 929.713 739.658 938.987 722.697 947.514C722.214 947.757 722.214 947.757 721.721 948.005C702.734 957.53 683.139 965.53 663.093 972.543C660.909 973.307 658.737 974.097 656.569 974.904C652.651 976.308 648.658 977.419 644.651 978.54C642.445 979.159 640.251 979.814 638.061 980.487C621.79 985.481 605.167 989.004 588.435 992.035C586.752 992.341 585.071 992.654 583.39 992.969C575.344 994.452 567.241 995.453 559.117 996.404C557.653 996.577 556.189 996.757 554.725 996.936C547.075 997.862 539.441 998.568 531.748 999.001C531.176 999.034 530.605 999.067 530.015 999.101C507.727 1000.34 485.139 1000.4 462.881 998.643C461.941 998.572 461.941 998.572 460.982 998.499C451.889 997.804 451.889 997.804 449.567 997.332C448.002 997.024 446.456 996.915 444.867 996.794C422.502 995.057 400.087 990.549 378.362 985.078C377.796 984.937 377.23 984.796 376.647 984.65C373.208 983.789 369.781 982.888 366.363 981.948C365.678 981.76 365.678 981.76 364.98 981.568C338.183 974.151 312.179 964.276 287.042 952.417C285.553 951.714 284.06 951.017 282.568 950.32C276.491 947.472 270.529 944.448 264.628 941.253C264.076 940.956 263.525 940.659 262.957 940.353C249.433 933.046 236.402 925.119 223.607 916.602C223.148 916.297 222.688 915.991 222.215 915.676C213.95 910.172 205.855 904.456 197.978 898.407C197.52 898.057 197.063 897.707 196.591 897.346C186.643 889.721 176.965 881.83 167.677 873.407C166.669 872.499 165.649 871.609 164.62 870.723C157.81 864.763 151.405 858.374 145.016 851.97C143.578 850.529 142.138 849.091 140.697 847.654C139.769 846.726 138.842 845.798 137.915 844.87C137.49 844.446 137.066 844.023 136.629 843.587C134.428 841.377 132.305 839.13 130.275 836.763C129.118 835.42 127.906 834.131 126.698 832.834C124.481 830.434 122.388 827.962 120.339 825.415C118.844 823.594 117.295 821.824 115.742 820.051C112.815 816.698 110.034 813.255 107.317 809.731C106.485 808.657 105.645 807.589 104.804 806.521C100.542 801.1 96.4482 795.579 92.4601 789.955C92.1642 789.539 91.8683 789.123 91.5634 788.695C79.1763 771.276 68.0866 752.985 58.0266 734.131C57.7754 733.661 57.5242 733.192 57.2654 732.708C48.5104 716.297 40.6927 699.463 34.0438 682.089C33.3853 680.371 32.7056 678.665 31.9895 676.97C28.3978 668.418 25.6917 659.56 22.9012 650.723C22.3998 649.139 21.8922 647.557 21.386 645.974C16.4765 630.478 12.5596 614.686 9.45164 598.734C9.14388 597.162 8.80801 595.599 8.451 594.037C7.93452 591.738 7.5461 589.432 7.19154 587.104C7.12601 586.682 7.06048 586.26 6.99296 585.825C6.43574 582.221 5.89813 578.613 5.36271 575.006C5.0186 572.697 4.65531 570.394 4.25686 568.093C3.15586 561.524 2.55632 554.956 2.07331 548.317C1.85058 545.283 1.60155 542.257 1.27057 539.232C-0.0646486 526.873 0.0175617 514.45 0.0190365 502.035C0.0190787 500.174 0.0154861 498.313 0.00833722 496.452C-0.0284879 486.693 0.0387681 476.96 0.578331 467.214C0.598651 466.837 0.618981 466.46 0.639916 466.072C0.89823 461.413 1.34456 456.81 1.96393 452.187C2.19403 450.383 2.3689 448.582 2.51848 446.769C4.57767 421.864 9.82261 397.41 15.8325 373.199C15.9984 372.528 15.9984 372.528 16.1676 371.843C17.4546 366.645 18.8304 361.508 20.4628 356.406C20.8048 355.311 21.1447 354.216 21.4847 353.122C21.9733 351.55 22.4653 349.979 22.9575 348.408C23.2079 347.608 23.4577 346.808 23.707 346.008C25.1325 341.432 26.6036 336.894 28.2886 332.407C28.7337 331.192 29.1786 329.977 29.6234 328.763C34.9081 314.432 40.767 300.423 47.3133 286.621C48.08 285.002 48.8386 283.379 49.5955 281.755C52.4063 275.758 55.4262 269.915 58.64 264.125C59.7339 262.153 60.7898 260.167 61.8223 258.163C65.1213 251.779 68.8845 245.667 72.6347 239.541C72.9565 239.013 73.2784 238.486 73.6099 237.943C87.1484 215.822 102.605 194.801 119.541 175.159C120.591 173.941 121.634 172.717 122.671 171.487C126.058 167.478 129.577 163.619 133.189 159.811C134.547 158.378 135.882 156.927 137.208 155.465C140.372 151.982 143.646 148.623 146.979 145.303C147.867 144.418 148.752 143.53 149.636 142.642C152.305 139.972 154.974 137.334 157.862 134.898C158.802 134.081 159.673 133.216 160.545 132.327C162.104 130.743 163.736 129.278 165.419 127.827C166.648 126.759 167.851 125.664 169.055 124.567C171.297 122.543 173.607 120.626 175.956 118.728C177.343 117.588 178.701 116.423 180.054 115.244C183.713 112.06 187.499 109.086 191.369 106.164C193.317 104.692 195.242 103.193 197.162 101.684C206.128 94.6501 215.458 88.2423 224.977 81.9813C225.441 81.6742 225.906 81.3672 226.385 81.0509C232.769 76.8337 239.252 72.8184 245.846 68.9383C246.243 68.7032 246.639 68.4682 247.048 68.226C253.813 64.2237 260.708 60.4752 267.647 56.7864C268.721 56.2157 269.793 55.6435 270.864 55.0694C311.02 33.5598 355.105 18.666 399.691 9.68508C400.786 9.46429 401.881 9.24155 402.976 9.01847C434.941 2.52687 467.03 -0.0403188 499.607 0.00326767Z" fill="#F0DDCC"/>
<path d="M150.588 378.189C151.365 378.189 152.142 378.187 152.918 378.186C155.057 378.183 157.196 378.186 159.336 378.19C161.661 378.194 163.986 378.191 166.311 378.19C170.388 378.188 174.465 378.189 178.542 378.193C184.604 378.2 190.666 378.2 196.728 378.199C206.925 378.198 217.122 378.201 227.319 378.208C237.418 378.214 247.516 378.218 257.614 378.219C258.556 378.219 258.556 378.219 259.516 378.219C262.703 378.219 265.89 378.22 269.077 378.22C291.659 378.222 314.24 378.229 336.822 378.239C358.761 378.249 380.701 378.256 402.64 378.261C403.317 378.261 403.993 378.261 404.689 378.261C411.479 378.262 418.269 378.264 425.058 378.265C438.89 378.268 452.722 378.271 466.553 378.274C467.189 378.274 467.825 378.274 468.48 378.274C510.96 378.284 553.44 378.3 595.919 378.318C595.919 386.238 595.919 394.157 595.919 402.317C592.451 402.318 592.451 402.318 588.912 402.319C548.454 402.333 507.995 402.349 467.537 402.378C466.904 402.378 466.271 402.379 465.618 402.379C451.858 402.389 438.097 402.399 424.336 402.41C417.588 402.415 410.84 402.42 404.092 402.425C403.421 402.426 402.749 402.426 402.058 402.427C380.285 402.443 358.513 402.453 336.741 402.459C314.37 402.465 292 402.478 269.629 402.5C266.47 402.503 263.312 402.506 260.153 402.509C259.221 402.51 259.221 402.51 258.27 402.511C248.256 402.52 238.243 402.522 228.229 402.521C218.166 402.521 208.103 402.528 198.04 402.542C192.059 402.551 186.078 402.554 180.097 402.548C176.103 402.545 172.108 402.549 168.114 402.56C165.838 402.566 163.561 402.568 161.284 402.561C159.212 402.555 157.14 402.559 155.067 402.57C154.323 402.572 153.58 402.571 152.836 402.566C144.88 402.516 139.879 404.948 133.676 409.621C133.333 409.867 132.99 410.112 132.636 410.365C126.044 415.459 121.463 423.635 119.836 431.684C118.525 441.974 120.172 451.195 126.467 459.676C133.4 467.86 143.512 472.058 154.038 473.064C160.825 473.587 167.672 473.45 174.476 473.436C175.82 473.434 177.165 473.434 178.51 473.434C191.192 473.429 203.832 473.115 216.499 472.488C228.298 471.905 240.068 471.542 251.883 471.543C252.96 471.543 254.038 471.54 255.115 471.538C276.572 471.506 298.452 471.678 315.234 486.836C315.673 487.232 316.112 487.628 316.565 488.036C324.569 495.641 329.945 505.506 332.973 516.052C333.088 516.422 333.204 516.792 333.323 517.173C337.654 532.2 335.007 549.132 327.588 562.666C324.782 567.515 321.313 571.617 317.321 575.528C316.708 576.131 316.708 576.131 316.082 576.747C307.638 584.618 296.414 588.619 285.496 591.701C285.201 591.793 284.907 591.884 284.603 591.978C283.009 592.305 281.497 592.288 279.869 592.287C279.333 592.288 279.333 592.288 278.786 592.289C277.583 592.29 276.379 592.288 275.176 592.286C274.307 592.286 273.438 592.286 272.569 592.287C270.177 592.288 267.784 592.286 265.392 592.283C262.813 592.281 260.235 592.282 257.657 592.282C253.188 592.283 248.719 592.281 244.251 592.278C237.79 592.274 231.329 592.272 224.868 592.272C214.386 592.271 203.904 592.267 193.422 592.262C183.238 592.257 173.055 592.254 162.871 592.252C161.93 592.251 161.93 592.251 160.97 592.251C157.822 592.25 154.674 592.25 151.527 592.249C125.403 592.244 99.2797 592.235 73.1562 592.223C73.658 591.635 74.16 591.047 74.6623 590.46C74.9418 590.132 75.2214 589.805 75.5094 589.468C76.3149 588.538 77.1463 587.651 78.0208 586.786C78.3221 586.486 78.6234 586.187 78.9339 585.878C79.2486 585.567 79.5634 585.257 79.8877 584.937C80.222 584.605 80.5563 584.273 80.9007 583.93C82.3143 582.525 83.731 581.123 85.1475 579.721C86.1887 578.689 87.2283 577.656 88.2678 576.622C88.5815 576.313 88.8952 576.004 89.2184 575.685C91.1921 573.722 93.0524 571.688 94.8694 569.579C95.2702 569.116 95.6785 568.657 96.1119 568.224C97.0881 568.173 98.0663 568.159 99.0438 568.159C99.6846 568.157 100.325 568.156 100.985 568.155C101.706 568.156 102.426 568.157 103.146 568.159C103.904 568.158 104.662 568.158 105.421 568.157C107.076 568.155 108.73 568.155 110.385 568.156C113.078 568.158 115.771 568.157 118.463 568.155C121.866 568.153 125.269 568.152 128.672 568.152C135.367 568.152 142.062 568.145 148.757 568.136C149.811 568.135 150.865 568.134 151.918 568.132C153.515 568.13 155.113 568.128 156.71 568.126C162.738 568.118 168.766 568.111 174.795 568.105C175.346 568.104 175.897 568.104 176.465 568.103C185.381 568.094 194.297 568.092 203.212 568.093C212.369 568.094 221.525 568.085 230.681 568.067C236.326 568.056 241.971 568.053 247.616 568.061C251.492 568.065 255.368 568.06 259.243 568.047C261.476 568.04 263.709 568.038 265.941 568.046C278.828 568.093 290.395 567.711 300.294 558.25C307.016 550.901 310.108 541.939 310.115 532.062C310.121 531.6 310.128 531.137 310.134 530.661C310.153 521.913 307.095 513.163 301.017 506.759C294.539 500.707 287.066 498.001 278.317 497.503C277.934 497.481 277.551 497.459 277.156 497.436C272.663 497.199 268.173 497.194 263.676 497.201C262.757 497.2 261.838 497.2 260.919 497.199C259.006 497.198 257.093 497.199 255.18 497.202C252.764 497.205 250.348 497.203 247.931 497.2C238.73 497.19 229.549 497.189 220.36 497.729C217.217 497.905 214.07 497.996 210.923 498.085C210.539 498.096 210.155 498.107 209.759 498.118C200.327 498.371 190.891 498.371 181.456 498.378C180.217 498.379 178.979 498.381 177.74 498.383C175.751 498.386 173.762 498.386 171.773 498.383C171.037 498.383 170.301 498.383 169.564 498.384C150.453 498.41 131.768 496.199 116.459 483.705C116.187 483.483 115.915 483.262 115.635 483.033C105.758 474.819 99.3682 463.732 96.1119 451.359C96.0105 450.975 95.9091 450.592 95.8047 450.197C94.8919 446.275 94.914 442.391 94.938 438.381C94.932 437.375 94.932 437.375 94.9258 436.349C94.9584 420.3 101.736 406.444 112.709 394.948C120.133 387.8 129.706 382.696 139.415 379.361C139.884 379.184 140.354 379.007 140.838 378.824C144.004 377.936 147.329 378.177 150.588 378.189Z" fill="#442D1D"/>
<path d="M635.051 377.797C656.552 377.797 661.208 383.457 674.53 396.016C676.682 398.044 678.837 400.068 680.995 402.089C681.337 402.41 681.679 402.731 682.032 403.061C682.721 403.707 683.411 404.354 684.101 405C685.837 406.627 687.574 408.255 689.31 409.883C689.654 410.205 689.998 410.528 690.352 410.86C692.098 412.496 693.843 414.133 695.589 415.77C698.97 418.942 702.354 422.111 705.744 425.273C709.486 428.764 713.22 432.263 716.952 435.765C718.694 437.398 720.436 439.031 722.178 440.664C724.271 442.626 726.364 444.589 728.457 446.552C731.838 449.723 735.222 452.893 738.612 456.055C742.354 459.545 746.088 463.045 749.821 466.546C751.562 468.18 753.304 469.813 755.046 471.446C757.14 473.408 759.233 475.37 761.325 477.333C762.026 477.99 762.726 478.647 763.426 479.304C763.939 479.785 763.939 479.785 764.461 480.275C766.218 481.922 767.977 483.567 769.74 485.208C770.092 485.536 770.445 485.864 770.808 486.202C771.474 486.822 772.14 487.441 772.806 488.06C774.574 489.706 776.305 491.378 778.002 493.097C779.925 492.432 781.135 491.716 782.545 490.254C782.894 489.897 783.243 489.54 783.603 489.173C783.961 488.8 784.318 488.427 784.686 488.043C787.102 485.549 789.54 483.157 792.173 480.894C793.517 479.716 794.753 478.463 796.001 477.184C797.925 475.232 799.901 473.385 801.987 471.607C803.732 470.05 805.347 468.364 806.99 466.701C808.394 465.316 809.861 464.036 811.359 462.756C812.639 461.612 813.838 460.406 815.044 459.185C816.555 457.656 818.071 456.178 819.707 454.783C821.456 453.289 823.081 451.692 824.696 450.055C826.621 448.104 828.596 446.256 830.681 444.477C832.426 442.92 834.042 441.235 835.685 439.572C837.088 438.186 838.556 436.907 840.054 435.626C841.333 434.483 842.533 433.276 843.739 432.056C845.249 430.526 846.766 429.049 848.402 427.654C850.15 426.159 851.776 424.562 853.39 422.926C855.316 420.974 857.29 419.126 859.376 417.348C861.121 415.791 862.736 414.105 864.379 412.442C865.783 411.057 867.25 409.778 868.749 408.497C870.028 407.353 871.227 406.147 872.433 404.926C873.944 403.397 875.46 401.919 877.096 400.524C878.845 399.03 880.471 397.433 882.085 395.796C884.01 393.845 885.985 391.997 888.071 390.218C889.811 388.665 891.423 386.984 893.062 385.325C894.516 383.889 896.027 382.545 897.586 381.225C898.636 380.303 899.618 379.307 900.606 378.319C907.493 378.319 914.379 378.319 921.475 378.319C921.475 448.907 921.475 519.496 921.475 592.224C913.039 592.224 904.602 592.224 895.911 592.224C895.738 534.892 895.566 477.56 895.389 418.491C890.999 422.623 890.999 422.623 886.52 426.839C883.063 430.034 883.063 430.034 881.429 431.538C879.552 433.267 877.688 435.009 875.824 436.751C873.123 439.276 870.412 441.791 867.693 444.296C865.526 446.294 863.37 448.303 861.216 450.316C858.515 452.841 855.804 455.355 853.085 457.86C850.918 459.858 848.761 461.868 846.608 463.881C843.907 466.406 841.196 468.92 838.477 471.425C836.309 473.423 834.153 475.433 832 477.445C829.299 479.97 826.588 482.485 823.868 484.99C821.701 486.988 819.545 488.997 817.392 491.01C814.69 493.535 811.98 496.049 809.26 498.555C807.093 500.553 804.937 502.562 802.784 504.575C800.085 507.097 797.378 509.61 794.66 512.111C793.112 513.537 791.571 514.97 790.036 516.409C789.688 516.735 789.341 517.061 788.983 517.397C788.313 518.025 787.644 518.654 786.975 519.284C786.077 520.126 785.172 520.961 784.263 521.791C783.984 522.049 783.705 522.306 783.417 522.571C781.935 523.882 780.867 524.776 778.85 524.791C775.777 524.578 774.343 522.855 772.263 520.748C771.347 519.883 770.423 519.026 769.498 518.17C768.47 517.217 767.447 516.259 766.424 515.301C763.695 512.747 760.936 510.226 758.177 507.705C757.133 506.749 756.09 505.792 755.046 504.836C754.525 504.357 754.003 503.879 753.481 503.401C752.438 502.444 751.394 501.488 750.351 500.531C750.093 500.295 749.834 500.058 749.568 499.814C749.046 499.336 748.524 498.857 748.002 498.378C746.704 497.189 745.407 495.999 744.109 494.811C741.115 492.069 738.128 489.321 735.147 486.567C732.223 483.866 729.288 481.177 726.352 478.489C722.842 475.276 719.338 472.057 715.843 468.828C713.176 466.365 710.5 463.911 707.822 461.459C706.259 460.028 704.696 458.595 703.134 457.162C701.836 455.973 700.539 454.784 699.241 453.595C696.247 450.854 693.26 448.105 690.279 445.351C687.355 442.65 684.42 439.961 681.484 437.273C678.261 434.322 675.042 431.369 671.832 428.404C670.986 427.622 670.139 426.841 669.293 426.06C668.717 425.529 668.142 424.996 667.566 424.464C666.717 423.679 665.867 422.894 665.017 422.11C664.521 421.652 664.026 421.194 663.515 420.723C662.094 419.424 662.094 419.424 660.093 417.969C660.093 475.473 660.093 532.977 660.093 592.224C651.829 592.224 643.565 592.224 635.051 592.224C635.051 521.463 635.051 450.702 635.051 377.797Z" fill="#422D1C"/>
<path d="M364.797 470.662C441.239 470.662 517.682 470.662 596.44 470.662C596.44 480.303 596.44 489.945 596.44 499.878C519.998 499.878 443.556 499.878 364.797 499.878C364.797 490.237 364.797 480.596 364.797 470.662Z" fill="#DF5E19"/>
<path d="M364.797 563.006C441.067 563.006 517.337 563.006 595.919 563.006C595.919 572.647 595.919 582.289 595.919 592.222C519.648 592.222 443.378 592.222 364.797 592.222C364.797 582.581 364.797 572.939 364.797 563.006Z" fill="#DD5E18"/>
<path d="M136.805 636.569C140.267 639.291 142.72 642.642 143.587 647.003C144.102 652.3 143.333 656.81 140.157 661.175C138.016 663.522 135.565 664.674 132.631 665.785C132.115 666.043 132.115 666.043 131.588 666.307C125.853 666.771 121.894 666.146 117.371 662.59C114.44 659.882 112.542 656.087 112.178 652.102C112.088 647.516 112.965 643.312 115.936 639.699C121.565 633.996 129.589 632.039 136.805 636.569Z" fill="#483121"/>
<path d="M451.926 635.526C454.67 635.483 457.414 635.44 460.241 635.396C461.097 635.377 461.953 635.358 462.835 635.338C466.898 635.307 470.297 635.396 473.838 637.613C474.548 638.033 474.548 638.033 475.273 638.461C478.907 642.297 479.777 646.891 479.72 651.985C479.394 656.097 477.908 659.823 474.967 662.767C470.6 666.374 464.992 666.044 459.654 665.916C457.104 665.873 454.553 665.83 451.926 665.786C451.926 655.8 451.926 645.814 451.926 635.526Z" fill="#DA601D"/>
<path d="M593.312 635.525C596.067 635.525 598.822 635.525 601.66 635.525C603.494 639.866 605.244 644.232 606.917 648.637C607.307 649.661 607.701 650.683 608.095 651.706C608.345 652.362 608.594 653.018 608.844 653.673C609.068 654.259 609.291 654.845 609.522 655.449C610.008 656.916 610.008 656.916 610.008 658.481C610.352 658.481 610.696 658.481 611.051 658.481C611.129 657.85 611.129 657.85 611.209 657.206C611.654 654.934 612.408 652.871 613.221 650.708C613.383 650.273 613.544 649.837 613.71 649.388C614.223 648.005 614.74 646.624 615.257 645.242C615.607 644.302 615.957 643.361 616.306 642.42C617.16 640.121 618.017 637.823 618.877 635.525C621.631 635.525 624.386 635.525 627.224 635.525C627.224 645.511 627.224 655.497 627.224 665.785C625.503 665.785 623.781 665.785 622.007 665.785C621.835 658.382 621.663 650.979 621.485 643.351C620.889 644.927 620.292 646.503 619.678 648.126C619.101 649.646 618.524 651.165 617.948 652.684C617.546 653.743 617.144 654.803 616.744 655.862C616.169 657.382 615.592 658.9 615.015 660.419C614.835 660.896 614.655 661.372 614.47 661.863C614.219 662.521 614.219 662.521 613.963 663.193C613.816 663.581 613.669 663.969 613.517 664.369C613.138 665.263 613.138 665.263 612.616 665.785C611.067 665.785 609.517 665.785 607.921 665.785C605.166 658.726 602.411 651.667 599.573 644.395C599.401 651.453 599.229 658.512 599.051 665.785C597.158 665.785 595.264 665.785 593.312 665.785C593.312 655.799 593.312 645.814 593.312 635.525Z" fill="#483121"/>
<path d="M681.48 635.525C684.59 635.492 687.7 635.46 690.904 635.427C691.879 635.413 692.853 635.398 693.857 635.384C694.64 635.379 695.422 635.375 696.205 635.372C696.603 635.364 697.001 635.356 697.411 635.348C700.426 635.346 703.002 635.826 705.345 637.891C707.438 640.713 707.997 642.46 707.566 645.959C706.47 648.035 705.108 649.584 703.393 651.176C703.802 651.478 704.21 651.779 704.632 652.089C706.534 653.72 706.977 654.665 707.224 657.174C707.251 657.853 707.278 658.531 707.306 659.23C707.409 661.831 707.623 663.317 708.61 665.785C706.544 665.785 704.478 665.785 702.349 665.785C701.623 663.605 701.628 661.456 701.503 659.171C701.3 657.385 701.014 655.942 700.262 654.307C698.729 653.746 697.196 653.689 695.575 653.62C694.916 653.59 694.916 653.59 694.243 653.56C693.69 653.537 693.137 653.515 692.567 653.491C690.802 653.416 689.038 653.341 687.219 653.263C687.219 657.395 687.219 661.527 687.219 665.785C685.326 665.785 683.432 665.785 681.48 665.785C681.48 655.799 681.48 645.813 681.48 635.525Z" fill="#463020"/>
<path d="M312.105 635.525C315.215 635.492 318.325 635.46 321.529 635.427C322.504 635.413 323.478 635.398 324.482 635.384C325.265 635.379 326.047 635.375 326.83 635.372C327.228 635.364 327.626 635.356 328.036 635.348C331.051 635.346 333.627 635.826 335.97 637.891C338.063 640.713 338.622 642.46 338.191 645.959C337.095 648.035 335.733 649.584 334.018 651.176C334.427 651.478 334.835 651.779 335.257 652.089C337.159 653.72 337.602 654.665 337.849 657.174C337.876 657.853 337.903 658.531 337.931 659.23C338.034 661.831 338.248 663.317 339.235 665.785C337.169 665.785 335.103 665.785 332.974 665.785C332.248 663.605 332.253 661.456 332.128 659.171C331.925 657.385 331.639 655.942 330.887 654.307C329.354 653.746 327.821 653.689 326.2 653.62C325.541 653.59 325.541 653.59 324.868 653.56C324.315 653.537 323.762 653.515 323.192 653.491C321.427 653.416 319.663 653.341 317.844 653.263C317.844 657.395 317.844 661.527 317.844 665.785C315.951 665.785 314.057 665.785 312.105 665.785C312.105 655.799 312.105 645.813 312.105 635.525Z" fill="#463020"/>
<path d="M364.797 470.662C441.239 470.662 517.682 470.662 596.44 470.662C596.44 480.303 596.44 489.945 596.44 499.878C519.998 499.878 443.556 499.878 364.797 499.878C364.797 490.237 364.797 480.596 364.797 470.662ZM365.84 471.706C365.84 480.658 365.84 489.611 365.84 498.835C441.594 498.835 517.348 498.835 595.397 498.835C595.397 489.882 595.397 480.93 595.397 471.706C519.643 471.706 443.89 471.706 365.84 471.706Z" fill="#D26930"/>
<path d="M854.172 635.525C860.433 635.525 860.433 635.525 862.436 637.441C863.022 638.31 863.584 639.194 864.125 640.09C864.429 640.554 864.733 641.017 865.046 641.494C866.007 642.97 866.937 644.464 867.867 645.96C868.515 646.966 869.165 647.972 869.817 648.976C871.412 651.433 872.962 653.911 874.519 656.394C874.691 649.507 874.863 642.621 875.041 635.525C876.935 635.525 878.828 635.525 880.78 635.525C880.78 645.511 880.78 655.497 880.78 665.785C874.519 665.785 874.519 665.785 873.178 664.823C872.91 664.366 872.643 663.909 872.367 663.437C872.042 662.914 871.717 662.391 871.383 661.852C870.869 660.958 870.869 660.958 870.345 660.046C869.713 659.023 869.071 658.006 868.429 656.988C868.009 656.319 867.593 655.648 867.183 654.973C865.069 651.504 862.761 648.28 860.433 644.916C860.26 651.803 860.088 658.69 859.911 665.785C858.017 665.785 856.123 665.785 854.172 665.785C854.172 655.799 854.172 645.814 854.172 635.525Z" fill="#4A3323"/>
<path d="M351.754 635.525C358.015 635.525 358.015 635.525 360.018 637.441C360.604 638.31 361.166 639.194 361.707 640.09C362.011 640.554 362.315 641.017 362.628 641.494C363.589 642.97 364.519 644.464 365.449 645.96C366.097 646.966 366.747 647.972 367.399 648.976C368.994 651.433 370.545 653.911 372.101 656.394C372.273 649.507 372.445 642.621 372.623 635.525C374.517 635.525 376.41 635.525 378.362 635.525C378.362 645.511 378.362 655.497 378.362 665.785C372.101 665.785 372.101 665.785 370.76 664.823C370.492 664.366 370.225 663.909 369.949 663.437C369.624 662.914 369.299 662.391 368.965 661.852C368.451 660.958 368.451 660.958 367.927 660.046C367.295 659.023 366.653 658.006 366.011 656.988C365.591 656.319 365.175 655.648 364.765 654.973C362.651 651.504 360.343 648.28 358.015 644.916C357.842 651.803 357.67 658.69 357.493 665.785C355.599 665.785 353.705 665.785 351.754 665.785C351.754 655.799 351.754 645.814 351.754 635.525Z" fill="#4A3323"/>
<path d="M918.864 636.568C920.873 638.338 922.541 640.333 923.559 642.828C923.559 643.517 923.559 644.206 923.559 644.915C921.666 644.915 919.772 644.915 917.821 644.915C917.269 643.536 916.725 642.151 916.255 640.741C913.457 639.253 910.496 638.87 907.386 639.176C905.681 639.876 905.681 639.876 904.256 640.741C903.739 640.914 903.223 641.086 902.691 641.263C902.091 642.436 902.091 642.436 901.647 643.872C901.468 644.35 901.289 644.828 901.105 645.321C899.859 649.501 900.109 654.113 902.169 657.958C903.792 659.685 905.408 661.021 907.818 661.194C912.3 661.366 912.3 661.366 916.255 659.523C917.817 657.531 917.901 656.432 918.342 653.784C915.588 653.784 912.833 653.784 909.995 653.784C909.995 652.407 909.995 651.03 909.995 649.611C914.643 649.611 919.292 649.611 924.081 649.611C924.081 654.948 924.081 660.285 924.081 665.784C922.876 665.784 921.671 665.784 920.429 665.784C919.907 665.262 919.907 665.262 919.875 663.664C919.886 663.159 919.896 662.653 919.907 662.132C919.642 662.346 919.377 662.56 919.104 662.78C918.745 663.061 918.386 663.342 918.016 663.632C917.665 663.91 917.314 664.189 916.952 664.476C913.537 666.68 909.757 666.808 905.821 666.306C901.255 664.787 898.199 662.522 895.782 658.425C893.651 654.038 893.454 648.761 894.92 644.141C896.403 640.945 898.118 638.444 901.125 636.568C901.462 636.354 901.798 636.14 902.144 635.92C907.209 633.2 913.955 633.708 918.864 636.568Z" fill="#493222"/>
<path d="M516.095 636.568C518.105 638.338 519.772 640.333 520.79 642.828C520.79 643.517 520.79 644.206 520.79 644.915C518.897 644.915 517.003 644.915 515.052 644.915C514.89 644.356 514.729 643.796 514.562 643.22C513.81 641.469 513.014 640.809 511.302 639.991C508.16 638.817 505.55 638.646 502.4 639.991C499.943 641.348 498.903 643.2 498.053 645.869C497.262 649.98 497.416 654.254 499.4 657.958C501.072 659.738 502.691 661.019 505.163 661.213C509.122 661.449 509.122 661.449 512.802 660.273C514.769 658.199 515.412 655.993 516.095 653.263C513.34 653.263 510.586 653.263 507.748 653.263C507.748 652.058 507.748 650.852 507.748 649.611C512.224 649.611 516.7 649.611 521.312 649.611C521.312 654.948 521.312 660.285 521.312 665.784C520.107 665.784 518.902 665.784 517.66 665.784C517.138 665.262 517.138 665.262 517.106 663.664C517.117 663.159 517.127 662.653 517.138 662.132C516.873 662.346 516.609 662.56 516.336 662.78C515.976 663.061 515.617 663.342 515.247 663.632C514.896 663.91 514.545 664.189 514.183 664.476C510.768 666.68 506.988 666.808 503.052 666.306C498.494 664.79 495.243 662.533 493.013 658.29C491.087 653.807 490.638 648.849 492.151 644.177C493.638 640.964 495.334 638.454 498.357 636.568C498.693 636.354 499.029 636.14 499.376 635.92C504.44 633.2 511.186 633.708 516.095 636.568Z" fill="#DA611E"/>
<path d="M651.222 635.525C653.288 635.525 655.354 635.525 657.483 635.525C659.868 640.566 662.026 645.665 664.107 650.838C664.627 652.13 665.149 653.422 665.672 654.714C666.01 655.549 666.347 656.384 666.684 657.22C666.838 657.599 666.991 657.978 667.149 658.369C668.137 660.828 669.082 663.301 670.004 665.785C667.938 665.785 665.872 665.785 663.743 665.785C663.305 664.689 662.871 663.591 662.439 662.492C662.197 661.88 661.955 661.269 661.706 660.639C661.135 659.003 661.135 659.003 661.135 657.438C656.659 657.438 652.182 657.438 647.57 657.438C647.054 659.331 646.537 661.225 646.005 663.177C645.489 664.468 645.489 664.468 644.962 665.785C643.068 665.785 641.174 665.785 639.223 665.785C639.586 663.967 639.902 662.623 640.576 660.96C640.745 660.54 640.915 660.12 641.089 659.687C641.272 659.239 641.455 658.792 641.644 658.33C641.834 657.861 642.024 657.392 642.219 656.909C642.622 655.916 643.025 654.925 643.43 653.933C644.042 652.433 644.65 650.932 645.257 649.43C647.156 644.75 649.077 640.099 651.222 635.525Z" fill="#462F1F"/>
<path d="M233.324 635.525C235.218 635.525 237.112 635.525 239.063 635.525C239.063 639.485 239.063 643.445 239.063 647.525C243.884 647.525 248.705 647.525 253.671 647.525C253.671 643.565 253.671 639.605 253.671 635.525C255.565 635.525 257.459 635.525 259.41 635.525C259.41 645.511 259.41 655.497 259.41 665.785C257.516 665.785 255.623 665.785 253.671 665.785C253.671 661.309 253.671 656.832 253.671 652.22C248.851 652.22 244.03 652.22 239.063 652.22C239.063 656.697 239.063 661.173 239.063 665.785C237.169 665.785 235.275 665.785 233.324 665.785C233.324 655.799 233.324 645.814 233.324 635.525Z" fill="#493222"/>
<path d="M95.1738 635.978C97.7414 637.596 99.1676 638.904 100.285 641.786C100.285 642.647 100.285 643.508 100.285 644.394C98.219 644.394 96.153 644.394 94.0244 644.394C93.9276 643.824 93.8307 643.254 93.7309 642.666C93.1573 640.626 93.1573 640.626 91.3506 639.732C89.0133 638.954 86.4918 638.522 84.1953 639.648C83.2321 640.266 83.2321 640.266 82.0249 641.264C82.0792 643.038 82.0792 643.038 82.5466 644.916C85.1086 647.011 88.58 647.371 91.7327 648.056C95.1638 648.85 97.2876 649.933 99.959 652.253C101.415 654.885 101.279 657.741 100.517 660.617C99.1572 663.57 96.3835 664.621 93.5027 665.785C89.3152 667.181 83.9607 666.778 79.9849 664.919C77.5364 663.349 75.8614 661.139 74.7208 658.481C74.6556 656.785 74.6556 656.785 74.7208 655.351C76.6146 655.351 78.5085 655.351 80.4597 655.351C80.5673 655.91 80.6749 656.47 80.7858 657.046C81.4415 658.835 81.8347 659.789 83.4983 660.747C86.6177 661.688 90.4615 661.741 93.4477 660.423C94.6073 659.635 94.6073 659.635 94.8926 658.513C94.8859 658.158 94.8791 657.803 94.8722 657.437C94.8789 657.082 94.8857 656.727 94.8926 656.361C94.614 655.263 94.614 655.263 93.5618 654.533C90.8304 653.276 87.9287 652.623 85.0237 651.875C81.4029 650.898 78.3441 649.839 76.2859 646.481C75.552 644.279 75.3365 642.414 76.1637 640.19C77.5636 637.583 79.3218 636.113 82.0187 634.924C86.3786 633.697 91.1472 633.813 95.1738 635.978Z" fill="#483222"/>
<path d="M535.922 635.525C543.497 635.525 551.073 635.525 558.878 635.525C558.878 636.903 558.878 638.28 558.878 639.699C553.196 639.699 547.514 639.699 541.661 639.699C541.661 642.282 541.661 644.864 541.661 647.525C546.998 647.525 552.335 647.525 557.834 647.525C557.834 649.074 557.834 650.624 557.834 652.22C552.497 652.22 547.16 652.22 541.661 652.22C541.661 655.147 541.661 658.074 541.661 661.09C547.514 661.09 553.368 661.09 559.399 661.09C559.399 662.639 559.399 664.189 559.399 665.785C551.652 665.785 543.904 665.785 535.922 665.785C535.922 655.799 535.922 645.814 535.922 635.525Z" fill="#DA6322"/>
<path d="M414.883 635.525C422.458 635.525 430.034 635.525 437.838 635.525C437.838 636.903 437.838 638.28 437.838 639.699C432.157 639.699 426.475 639.699 420.622 639.699C420.622 642.282 420.622 644.864 420.622 647.525C425.959 647.525 431.296 647.525 436.795 647.525C436.795 649.074 436.795 650.624 436.795 652.22C431.458 652.22 426.121 652.22 420.622 652.22C420.622 655.147 420.622 658.074 420.622 661.09C426.475 661.09 432.329 661.09 438.36 661.09C438.36 662.639 438.36 664.189 438.36 665.785C430.613 665.785 422.865 665.785 414.883 665.785C414.883 655.799 414.883 645.814 414.883 635.525Z" fill="#DA6322"/>
<path d="M761.305 635.525C768.88 635.525 776.455 635.525 784.26 635.525C784.26 636.903 784.26 638.28 784.26 639.699C778.579 639.699 772.897 639.699 767.044 639.699C767.044 642.282 767.044 644.864 767.044 647.525C772.381 647.525 777.718 647.525 783.217 647.525C783.217 649.074 783.217 650.624 783.217 652.22C777.88 652.22 772.543 652.22 767.044 652.22C767.044 655.147 767.044 658.074 767.044 661.09C772.897 661.09 778.751 661.09 784.782 661.09C784.782 662.639 784.782 664.189 784.782 665.785C777.035 665.785 769.287 665.785 761.305 665.785C761.305 655.799 761.305 645.814 761.305 635.525Z" fill="#493222"/>
<path d="M275.062 635.525C282.638 635.525 290.213 635.525 298.018 635.525C298.018 636.903 298.018 638.28 298.018 639.699C292.337 639.699 286.655 639.699 280.801 639.699C280.801 642.282 280.801 644.864 280.801 647.525C286.139 647.525 291.476 647.525 296.975 647.525C296.975 649.074 296.975 650.624 296.975 652.22C291.638 652.22 286.3 652.22 280.801 652.22C280.801 655.147 280.801 658.074 280.801 661.09C286.655 661.09 292.509 661.09 298.54 661.09C298.54 662.639 298.54 664.189 298.54 665.785C290.792 665.785 283.045 665.785 275.062 665.785C275.062 655.799 275.062 645.814 275.062 635.525Z" fill="#493222"/>
<path d="M721.656 635.526C723.55 635.526 725.444 635.526 727.395 635.526C727.567 639.658 727.74 643.79 727.917 648.047C728.907 647.143 729.897 646.24 730.917 645.308C731.251 645.007 731.584 644.705 731.928 644.394C733.47 642.986 734.928 641.564 736.287 639.977C740.003 635.712 740.003 635.712 742.975 635.135C744.783 635.135 746.48 635.241 748.264 635.526C747.91 635.88 747.555 636.234 747.19 636.598C746.082 637.706 744.978 638.818 743.876 639.932C743.241 640.572 742.606 641.212 741.971 641.852C741.652 642.175 741.332 642.499 741.004 642.832C739.497 644.347 738.036 645.793 736.264 647.004C737.064 649.511 738.489 651.213 740.145 653.199C742.447 656.017 744.679 658.872 746.829 661.808C747.078 662.146 747.327 662.484 747.584 662.833C749.307 665.197 749.307 665.197 749.307 665.786C746.746 666.251 744.55 666.386 742.003 665.786C740.036 663.919 738.758 661.825 737.398 659.495C736.426 657.885 735.309 656.395 734.178 654.895C733.801 654.38 733.424 653.865 733.036 653.334C732.568 652.783 732.568 652.783 732.091 652.221C730.386 652.221 729.446 653.219 728.204 654.315C726.696 656.248 726.877 658.4 726.906 660.764C726.898 661.248 726.889 661.731 726.881 662.23C726.862 663.415 726.866 664.6 726.873 665.786C725.152 665.786 723.43 665.786 721.656 665.786C721.656 655.8 721.656 645.814 721.656 635.526Z" fill="#463020"/>
<path d="M156.633 635.525C158.527 635.525 160.421 635.525 162.372 635.525C162.377 636.173 162.381 636.82 162.387 637.487C162.407 639.897 162.442 642.306 162.48 644.715C162.495 645.757 162.506 646.798 162.513 647.84C162.524 649.34 162.549 650.839 162.576 652.339C162.576 652.802 162.577 653.265 162.577 653.742C162.646 656.676 163.061 658.314 164.98 660.568C166.506 661.331 167.879 661.199 169.578 661.22C170.216 661.234 170.854 661.247 171.512 661.261C173.47 661.076 174.409 660.742 175.936 659.524C176.836 658.042 177.115 656.912 177.146 655.189C177.157 654.751 177.167 654.312 177.178 653.86C177.187 653.158 177.187 653.158 177.196 652.441C177.206 651.957 177.216 651.474 177.227 650.976C177.258 649.434 177.282 647.893 177.306 646.351C177.326 645.305 177.346 644.259 177.367 643.213C177.417 640.65 177.461 638.088 177.502 635.525C179.395 635.525 181.289 635.525 183.241 635.525C183.305 638.55 183.353 641.575 183.384 644.601C183.397 645.628 183.415 646.655 183.437 647.682C183.68 658.927 183.68 658.927 180.632 662.655C177.518 665.696 173.938 666.341 169.708 666.47C165.426 666.378 162.301 665.364 158.985 662.649C156.578 659.475 156.413 656.055 156.48 652.237C156.482 651.756 156.484 651.276 156.487 650.781C156.495 649.261 156.515 647.741 156.535 646.221C156.543 645.184 156.55 644.147 156.556 643.111C156.574 640.582 156.601 638.054 156.633 635.525Z" fill="#462F1F"/>
<path d="M131.587 639.178C134.399 640.487 136.128 642.453 137.457 645.243C138.492 649.902 138.024 654.246 135.761 658.482C134.05 660.502 132.21 661.504 129.558 661.755C123.728 661.931 123.728 661.931 121.343 659.853C118.566 656.536 117.802 652.773 117.841 648.547C118.223 645.302 119.69 642.684 122.033 640.45C125.011 638.599 128.154 638.897 131.587 639.178Z" fill="#EEDBCA"/>
<path d="M457.141 639.699C468.35 639.699 468.35 639.699 471.545 642.53C474.213 645.431 474.021 648.878 473.978 652.622C473.742 655.418 472.938 657.38 470.87 659.294C466.514 662.601 463.145 661.611 457.141 661.611C457.141 654.38 457.141 647.149 457.141 639.699Z" fill="#F1DCCA"/>
<path d="M795.219 635.525C803.827 635.525 812.435 635.525 821.305 635.525C821.305 636.903 821.305 638.28 821.305 639.699C817.861 639.699 814.418 639.699 810.87 639.699C810.87 648.308 810.87 656.916 810.87 665.785C808.976 665.785 807.083 665.785 805.131 665.785C805.131 657.177 805.131 648.568 805.131 639.699C801.86 639.699 798.589 639.699 795.219 639.699C795.219 638.322 795.219 636.944 795.219 635.525Z" fill="#462F1F"/>
<path d="M195.238 635.525C203.847 635.525 212.455 635.525 221.324 635.525C221.324 636.903 221.324 638.28 221.324 639.699C217.881 639.699 214.438 639.699 210.89 639.699C210.89 648.308 210.89 656.916 210.89 665.785C208.996 665.785 207.102 665.785 205.151 665.785C205.151 657.177 205.151 648.568 205.151 639.699C201.88 639.699 198.609 639.699 195.238 639.699C195.238 638.322 195.238 636.944 195.238 635.525Z" fill="#462F1F"/>
<path d="M833.824 635.525C835.546 635.525 837.268 635.525 839.041 635.525C839.041 645.511 839.041 655.497 839.041 665.785C837.32 665.785 835.598 665.785 833.824 665.785C833.824 655.799 833.824 645.814 833.824 635.525Z" fill="#422C1B"/>
<path d="M686.699 639.7C688.656 639.672 690.612 639.652 692.569 639.635C693.401 639.622 693.401 639.622 694.25 639.609C695.052 639.604 695.052 639.604 695.87 639.599C696.362 639.593 696.854 639.588 697.36 639.582C698.785 639.708 699.596 639.961 700.786 640.744C702.086 642.694 702.068 643.652 701.829 645.961C700.892 647.398 700.237 648.323 698.699 649.091C697.791 649.136 696.881 649.147 695.972 649.142C695.434 649.141 694.896 649.139 694.342 649.137C693.496 649.131 693.496 649.131 692.634 649.124C691.782 649.121 691.782 649.121 690.914 649.117C689.509 649.111 688.104 649.101 686.699 649.091C686.699 645.992 686.699 642.893 686.699 639.7Z" fill="#EAD7C6"/>
<path d="M317.32 639.7C319.277 639.672 321.233 639.652 323.19 639.635C324.022 639.622 324.022 639.622 324.871 639.609C325.673 639.604 325.673 639.604 326.491 639.599C326.983 639.593 327.475 639.588 327.981 639.582C329.406 639.708 330.217 639.961 331.407 640.744C332.707 642.694 332.689 643.652 332.45 645.961C331.513 647.398 330.858 648.323 329.32 649.091C328.412 649.136 327.502 649.147 326.593 649.142C326.055 649.141 325.517 649.139 324.963 649.137C324.117 649.131 324.117 649.131 323.255 649.124C322.403 649.121 322.403 649.121 321.535 649.117C320.13 649.111 318.725 649.101 317.32 649.091C317.32 645.992 317.32 642.893 317.32 639.7Z" fill="#EAD7C6"/>
<path d="M653.83 640.742C654.174 640.742 654.519 640.742 654.873 640.742C655.573 642.621 656.267 644.502 656.96 646.383C657.159 646.918 657.358 647.452 657.564 648.002C657.752 648.515 657.94 649.028 658.134 649.556C658.396 650.265 658.396 650.265 658.664 650.989C659.047 652.22 659.047 652.22 659.047 653.785C655.948 653.785 652.849 653.785 649.656 653.785C650.011 651.66 650.297 650.121 651.028 648.181C651.191 647.744 651.354 647.306 651.522 646.856C651.692 646.41 651.862 645.963 652.037 645.503C652.208 645.044 652.38 644.586 652.557 644.113C652.979 642.988 653.403 641.865 653.83 640.742Z" fill="#E4D1C0"/>
<path d="M415.335 634.42C415.973 634.422 415.973 634.422 416.624 634.423C417.104 634.423 417.585 634.424 418.08 634.424C418.602 634.426 419.124 634.429 419.662 634.432C420.194 634.432 420.726 634.433 421.274 634.434C422.981 634.437 424.687 634.443 426.394 634.45C427.548 634.453 428.701 634.455 429.855 634.457C432.69 634.463 435.525 634.472 438.361 634.483C438.882 635.526 438.882 635.526 438.882 640.222C432.856 640.222 426.831 640.222 420.622 640.222C420.622 640.049 420.622 639.877 420.622 639.7C426.304 639.7 431.985 639.7 437.839 639.7C437.839 638.323 437.839 636.945 437.839 635.526C430.264 635.526 422.688 635.526 414.883 635.526C414.883 645.512 414.883 655.498 414.883 665.786C414.711 665.786 414.539 665.786 414.362 665.786C414.281 661.781 414.204 657.777 414.13 653.773C414.096 651.913 414.061 650.054 414.023 648.195C413.98 646.06 413.942 643.924 413.903 641.789C413.889 641.118 413.875 640.448 413.86 639.757C413.85 639.14 413.839 638.524 413.828 637.889C413.818 637.344 413.808 636.798 413.797 636.236C413.857 634.515 413.857 634.515 415.335 634.42Z" fill="#F8BE9A"/>
<path d="M457.141 639.699C466.01 639.699 466.01 639.699 469.14 640.743C467.053 641.264 467.053 641.264 458.184 640.743C458.184 647.285 458.184 653.827 458.184 660.568C461.283 660.568 464.382 660.568 467.575 660.568C467.575 660.224 467.575 659.879 467.575 659.525C468.264 659.697 468.952 659.869 469.662 660.046C466.01 661.611 466.01 661.611 457.141 661.611C457.141 654.38 457.141 647.149 457.141 639.699Z" fill="#F4BF9C"/>
<path d="M455.299 634.376C455.885 634.372 455.885 634.372 456.482 634.367C457.31 634.362 458.138 634.359 458.965 634.357C460.234 634.352 461.503 634.336 462.771 634.319C463.574 634.316 464.376 634.313 465.179 634.311C465.56 634.305 465.941 634.298 466.334 634.292C467.404 634.296 467.404 634.296 469.143 634.482C469.487 634.999 469.832 635.515 470.186 636.047C464.161 635.875 458.135 635.703 451.926 635.526C451.926 645.511 451.926 655.497 451.926 665.786C451.754 665.786 451.582 665.786 451.404 665.786C451.324 661.781 451.247 657.777 451.173 653.772C451.139 651.913 451.104 650.054 451.066 648.195C451.023 646.059 450.984 643.924 450.946 641.788C450.932 641.118 450.918 640.447 450.903 639.756C450.893 639.14 450.882 638.524 450.871 637.889C450.861 637.343 450.851 636.798 450.84 636.235C450.931 633.617 453.229 634.388 455.299 634.376Z" fill="#F3BD9A"/>
<path d="M507.75 649.611C512.226 649.611 516.703 649.611 521.315 649.611C521.315 654.949 521.315 660.286 521.315 665.785C520.11 665.785 518.904 665.785 517.663 665.785C517.141 665.263 517.141 665.263 517.108 663.665C517.119 663.159 517.13 662.654 517.141 662.133C518.184 663.176 518.184 663.176 518.184 664.741C518.873 664.741 519.562 664.741 520.271 664.741C520.271 659.921 520.271 655.1 520.271 650.133C516.311 650.133 512.352 650.133 508.272 650.133C508.272 650.994 508.272 651.855 508.272 652.742C510.854 652.742 513.437 652.742 516.098 652.742C516.098 652.914 516.098 653.086 516.098 653.263C513.343 653.263 510.588 653.263 507.75 653.263C507.75 652.058 507.75 650.853 507.75 649.611Z" fill="#CE6930"/>
<path d="M514.012 641.787C514.356 641.787 514.7 641.787 515.055 641.787C515.227 642.476 515.399 643.164 515.577 643.874C516.782 643.874 517.987 643.874 519.229 643.874C519.573 643.185 519.918 642.497 520.272 641.787C520.445 642.82 520.617 643.853 520.794 644.917C518.9 644.917 517.006 644.917 515.055 644.917C514.711 643.884 514.366 642.851 514.012 641.787Z" fill="#CE713C"/>
<path d="M517.142 662.133C518.185 663.176 518.185 663.176 518.185 664.741C519.046 664.914 519.907 665.086 520.794 665.263C520.794 665.435 520.794 665.607 520.794 665.785C519.751 665.807 518.707 665.806 517.664 665.785C517.142 665.263 517.142 665.263 517.109 663.665C517.12 663.16 517.131 662.654 517.142 662.133Z" fill="#CD682F"/>
</svg>
